<svg width="720" height="900" viewBox="0 0 720 900" fill="none" xmlns="http://www.w3.org/2000/svg">
<g clip-path="url(#clip0_18_777)">
<rect width="720" height="900" fill="#EAE8E4"/>
<circle cx="354" cy="404" r="262" fill="url(#paint0_linear_18_777)" fill-opacity="0.5"/>
<circle cx="353.5" cy="403.5" r="183.5" transform="rotate(86 353.5 403.5)" fill="url(#paint1_linear_18_777)" fill-opacity="0.5"/>
<path d="M131.337 735.288C129.625 735.288 128.073 734.92 126.681 734.184C125.305 733.432 124.217 732.4 123.417 731.088C122.633 729.76 122.241 728.264 122.241 726.6C122.241 724.936 122.633 723.448 123.417 722.136C124.217 720.808 125.305 719.776 126.681 719.04C128.073 718.288 129.633 717.912 131.361 717.912C132.817 717.912 134.129 718.168 135.297 718.68C136.481 719.192 137.473 719.928 138.273 720.888L135.777 723.192C134.641 721.88 133.233 721.224 131.553 721.224C130.513 721.224 129.585 721.456 128.769 721.92C127.953 722.368 127.313 723 126.849 723.816C126.401 724.632 126.177 725.56 126.177 726.6C126.177 727.64 126.401 728.568 126.849 729.384C127.313 730.2 127.953 730.84 128.769 731.304C129.585 731.752 130.513 731.976 131.553 731.976C133.233 731.976 134.641 731.312 135.777 729.984L138.273 732.288C137.473 733.264 136.481 734.008 135.297 734.52C134.113 735.032 132.793 735.288 131.337 735.288ZM153.314 722.088V735H149.762V733.464C149.266 734.024 148.674 734.456 147.986 734.76C147.298 735.048 146.554 735.192 145.754 735.192C144.058 735.192 142.714 734.704 141.722 733.728C140.73 732.752 140.234 731.304 140.234 729.384V722.088H143.978V728.832C143.978 730.912 144.85 731.952 146.594 731.952C147.49 731.952 148.21 731.664 148.754 731.088C149.298 730.496 149.57 729.624 149.57 728.472V722.088H153.314ZM161.127 735.192C160.055 735.192 159.007 735.064 157.983 734.808C156.959 734.536 156.143 734.2 155.535 733.8L156.783 731.112C157.359 731.48 158.055 731.784 158.871 732.024C159.687 732.248 160.487 732.36 161.271 732.36C162.855 732.36 163.647 731.968 163.647 731.184C163.647 730.816 163.431 730.552 162.999 730.392C162.567 730.232 161.903 730.096 161.007 729.984C159.951 729.824 159.079 729.64 158.391 729.432C157.703 729.224 157.103 728.856 156.591 728.328C156.095 727.8 155.847 727.048 155.847 726.072C155.847 725.256 156.079 724.536 156.543 723.912C157.023 723.272 157.711 722.776 158.607 722.424C159.519 722.072 160.591 721.896 161.823 721.896C162.735 721.896 163.639 722 164.535 722.208C165.447 722.4 166.199 722.672 166.791 723.024L165.543 725.688C164.407 725.048 163.167 724.728 161.823 724.728C161.023 724.728 160.423 724.84 160.023 725.064C159.623 725.288 159.423 725.576 159.423 725.928C159.423 726.328 159.639 726.608 160.071 726.768C160.503 726.928 161.191 727.08 162.135 727.224C163.191 727.4 164.055 727.592 164.727 727.8C165.399 727.992 165.983 728.352 166.479 728.88C166.975 729.408 167.223 730.144 167.223 731.088C167.223 731.888 166.983 732.6 166.503 733.224C166.023 733.848 165.319 734.336 164.391 734.688C163.479 735.024 162.391 735.192 161.127 735.192ZM177.309 734.376C176.941 734.648 176.485 734.856 175.941 735C175.413 735.128 174.861 735.192 174.285 735.192C172.733 735.192 171.541 734.8 170.709 734.016C169.877 733.232 169.461 732.08 169.461 730.56V719.232H173.205V722.376H176.397V725.256H173.205V730.512C173.205 731.056 173.341 731.48 173.613 731.784C173.885 732.072 174.277 732.216 174.789 732.216C175.365 732.216 175.877 732.056 176.325 731.736L177.309 734.376ZM185.169 735.192C183.809 735.192 182.585 734.912 181.497 734.352C180.425 733.776 179.585 732.984 178.977 731.976C178.369 730.968 178.065 729.824 178.065 728.544C178.065 727.264 178.369 726.12 178.977 725.112C179.585 724.104 180.425 723.32 181.497 722.76C182.585 722.184 183.809 721.896 185.169 721.896C186.529 721.896 187.745 722.184 188.817 722.76C189.889 723.32 190.729 724.104 191.337 725.112C191.945 726.12 192.249 727.264 192.249 728.544C192.249 729.824 191.945 730.968 191.337 731.976C190.729 732.984 189.889 733.776 188.817 734.352C187.745 734.912 186.529 735.192 185.169 735.192ZM185.169 732.12C186.129 732.12 186.913 731.8 187.521 731.16C188.145 730.504 188.457 729.632 188.457 728.544C188.457 727.456 188.145 726.592 187.521 725.952C186.913 725.296 186.129 724.968 185.169 724.968C184.209 724.968 183.417 725.296 182.793 725.952C182.169 726.592 181.857 727.456 181.857 728.544C181.857 729.632 182.169 730.504 182.793 731.16C183.417 731.8 184.209 732.12 185.169 732.12ZM211.287 721.896C212.903 721.896 214.183 722.376 215.127 723.336C216.087 724.28 216.567 725.704 216.567 727.608V735H212.823V728.184C212.823 727.16 212.607 726.4 212.175 725.904C211.759 725.392 211.159 725.136 210.375 725.136C209.495 725.136 208.799 725.424 208.287 726C207.775 726.56 207.519 727.4 207.519 728.52V735H203.775V728.184C203.775 726.152 202.959 725.136 201.327 725.136C200.463 725.136 199.775 725.424 199.263 726C198.751 726.56 198.495 727.4 198.495 728.52V735H194.751V722.088H198.327V723.576C198.807 723.032 199.391 722.616 200.079 722.328C200.783 722.04 201.551 721.896 202.383 721.896C203.295 721.896 204.119 722.08 204.855 722.448C205.591 722.8 206.183 723.32 206.631 724.008C207.159 723.336 207.823 722.816 208.623 722.448C209.439 722.08 210.327 721.896 211.287 721.896ZM219.923 722.088H223.667V735H219.923V722.088ZM221.795 720.288C221.107 720.288 220.547 720.088 220.115 719.688C219.683 719.288 219.467 718.792 219.467 718.2C219.467 717.608 219.683 717.112 220.115 716.712C220.547 716.312 221.107 716.112 221.795 716.112C222.483 716.112 223.043 716.304 223.475 716.688C223.907 717.072 224.123 717.552 224.123 718.128C224.123 718.752 223.907 719.272 223.475 719.688C223.043 720.088 222.483 720.288 221.795 720.288ZM237.894 732.12V735H226.374V732.744L228.942 729.72H227.19V727.224H231.054L232.95 724.968H226.542V722.088H237.678V724.344L235.23 727.248H237.054V729.744H233.118L231.102 732.12H237.894ZM253.348 722.088V735H249.772V733.512C248.844 734.632 247.5 735.192 245.74 735.192C244.524 735.192 243.42 734.92 242.428 734.376C241.452 733.832 240.684 733.056 240.124 732.048C239.564 731.04 239.284 729.872 239.284 728.544C239.284 727.216 239.564 726.048 240.124 725.04C240.684 724.032 241.452 723.256 242.428 722.712C243.42 722.168 244.524 721.896 245.74 721.896C247.388 721.896 248.676 722.416 249.604 723.456V722.088H253.348ZM246.388 732.12C247.332 732.12 248.116 731.8 248.74 731.16C249.364 730.504 249.676 729.632 249.676 728.544C249.676 727.456 249.364 726.592 248.74 725.952C248.116 725.296 247.332 724.968 246.388 724.968C245.428 724.968 244.636 725.296 244.012 725.952C243.388 726.592 243.076 727.456 243.076 728.544C243.076 729.632 243.388 730.504 244.012 731.16C244.636 731.8 245.428 732.12 246.388 732.12ZM264.446 721.896C265.646 721.896 266.734 722.176 267.71 722.736C268.702 723.28 269.478 724.056 270.038 725.064C270.598 726.056 270.878 727.216 270.878 728.544C270.878 729.872 270.598 731.04 270.038 732.048C269.478 733.04 268.702 733.816 267.71 734.376C266.734 734.92 265.646 735.192 264.446 735.192C262.67 735.192 261.318 734.632 260.39 733.512V735H256.814V717.192H260.558V723.456C261.502 722.416 262.798 721.896 264.446 721.896ZM263.798 732.12C264.758 732.12 265.542 731.8 266.15 731.16C266.774 730.504 267.086 729.632 267.086 728.544C267.086 727.456 266.774 726.592 266.15 725.952C265.542 725.296 264.758 724.968 263.798 724.968C262.838 724.968 262.046 725.296 261.422 725.952C260.814 726.592 260.51 727.456 260.51 728.544C260.51 729.632 260.814 730.504 261.422 731.16C262.046 731.8 262.838 732.12 263.798 732.12ZM278.016 735.192C276.56 735.192 275.424 734.808 274.608 734.04C273.792 733.256 273.384 732.152 273.384 730.728V717.192H277.128V730.512C277.128 731.056 277.264 731.48 277.536 731.784C277.824 732.072 278.224 732.216 278.736 732.216C278.928 732.216 279.12 732.192 279.312 732.144C279.52 732.096 279.68 732.04 279.792 731.976L279.96 734.88C279.336 735.088 278.688 735.192 278.016 735.192ZM288.068 732.192C288.74 732.192 289.332 732.096 289.844 731.904C290.372 731.696 290.86 731.376 291.308 730.944L293.3 733.104C292.084 734.496 290.308 735.192 287.972 735.192C286.516 735.192 285.228 734.912 284.108 734.352C282.988 733.776 282.124 732.984 281.516 731.976C280.908 730.968 280.604 729.824 280.604 728.544C280.604 727.28 280.9 726.144 281.492 725.136C282.1 724.112 282.924 723.32 283.964 722.76C285.02 722.184 286.204 721.896 287.516 721.896C288.748 721.896 289.868 722.16 290.876 722.688C291.884 723.2 292.684 723.952 293.276 724.944C293.884 725.92 294.188 727.08 294.188 728.424L284.636 730.272C284.908 730.912 285.332 731.392 285.908 731.712C286.5 732.032 287.22 732.192 288.068 732.192ZM287.516 724.728C286.572 724.728 285.804 725.032 285.212 725.64C284.62 726.248 284.308 727.088 284.276 728.16L290.564 726.936C290.388 726.264 290.028 725.728 289.484 725.328C288.94 724.928 288.284 724.728 287.516 724.728ZM322.941 717.912C324.925 717.912 326.469 718.496 327.573 719.664C328.677 720.816 329.229 722.488 329.229 724.68V735H325.341V724.8C325.341 723.616 325.029 722.728 324.405 722.136C323.797 721.528 322.989 721.224 321.981 721.224C320.877 721.224 319.997 721.544 319.341 722.184C318.685 722.808 318.357 723.76 318.357 725.04V735H314.469V724.8C314.469 723.616 314.181 722.728 313.605 722.136C313.029 721.528 312.245 721.224 311.253 721.224C310.165 721.224 309.293 721.544 308.637 722.184C307.981 722.808 307.653 723.76 307.653 725.04V735H303.765V718.2H307.533V720.264C308.045 719.512 308.725 718.936 309.573 718.536C310.421 718.12 311.397 717.912 312.501 717.912C313.653 717.912 314.661 718.128 315.525 718.56C316.389 718.976 317.053 719.584 317.517 720.384C318.093 719.584 318.845 718.976 319.773 718.56C320.717 718.128 321.773 717.912 322.941 717.912ZM345.806 722.088V735H342.254V733.464C341.758 734.024 341.166 734.456 340.478 734.76C339.79 735.048 339.046 735.192 338.246 735.192C336.55 735.192 335.206 734.704 334.214 733.728C333.222 732.752 332.726 731.304 332.726 729.384V722.088H336.47V728.832C336.47 730.912 337.342 731.952 339.086 731.952C339.982 731.952 340.702 731.664 341.246 731.088C341.79 730.496 342.062 729.624 342.062 728.472V722.088H345.806ZM353.907 735.192C352.451 735.192 351.315 734.808 350.499 734.04C349.683 733.256 349.275 732.152 349.275 730.728V717.192H353.019V730.512C353.019 731.056 353.155 731.48 353.427 731.784C353.715 732.072 354.115 732.216 354.627 732.216C354.819 732.216 355.011 732.192 355.203 732.144C355.411 732.096 355.571 732.04 355.683 731.976L355.851 734.88C355.227 735.088 354.579 735.192 353.907 735.192ZM365.465 734.376C365.097 734.648 364.641 734.856 364.097 735C363.569 735.128 363.017 735.192 362.441 735.192C360.889 735.192 359.697 734.8 358.865 734.016C358.033 733.232 357.617 732.08 357.617 730.56V719.232H361.361V722.376H364.553V725.256H361.361V730.512C361.361 731.056 361.497 731.48 361.769 731.784C362.041 732.072 362.433 732.216 362.945 732.216C363.521 732.216 364.033 732.056 364.481 731.736L365.465 734.376ZM367.58 722.088H371.324V735H367.58V722.088ZM369.452 720.288C368.764 720.288 368.204 720.088 367.772 719.688C367.34 719.288 367.124 718.792 367.124 718.2C367.124 717.608 367.34 717.112 367.772 716.712C368.204 716.312 368.764 716.112 369.452 716.112C370.14 716.112 370.7 716.304 371.132 716.688C371.564 717.072 371.78 717.552 371.78 718.128C371.78 718.752 371.564 719.272 371.132 719.688C370.7 720.088 370.14 720.288 369.452 720.288ZM382.43 721.896C383.63 721.896 384.718 722.176 385.694 722.736C386.686 723.28 387.462 724.056 388.022 725.064C388.582 726.056 388.862 727.216 388.862 728.544C388.862 729.872 388.582 731.04 388.022 732.048C387.462 733.04 386.686 733.816 385.694 734.376C384.718 734.92 383.63 735.192 382.43 735.192C380.782 735.192 379.486 734.672 378.542 733.632V739.656H374.798V722.088H378.374V723.576C379.302 722.456 380.654 721.896 382.43 721.896ZM381.782 732.12C382.742 732.12 383.526 731.8 384.134 731.16C384.758 730.504 385.07 729.632 385.07 728.544C385.07 727.456 384.758 726.592 384.134 725.952C383.526 725.296 382.742 724.968 381.782 724.968C380.822 724.968 380.03 725.296 379.406 725.952C378.798 726.592 378.494 727.456 378.494 728.544C378.494 729.632 378.798 730.504 379.406 731.16C380.03 731.8 380.822 732.12 381.782 732.12ZM404.377 722.088V735H400.825V733.464C400.329 734.024 399.737 734.456 399.049 734.76C398.361 735.048 397.617 735.192 396.817 735.192C395.121 735.192 393.777 734.704 392.785 733.728C391.793 732.752 391.297 731.304 391.297 729.384V722.088H395.041V728.832C395.041 730.912 395.913 731.952 397.657 731.952C398.553 731.952 399.273 731.664 399.817 731.088C400.361 730.496 400.633 729.624 400.633 728.472V722.088H404.377ZM411.421 723.792C411.869 723.168 412.469 722.696 413.221 722.376C413.989 722.056 414.869 721.896 415.861 721.896V725.352C415.445 725.32 415.165 725.304 415.021 725.304C413.949 725.304 413.109 725.608 412.501 726.216C411.893 726.808 411.589 727.704 411.589 728.904V735H407.845V722.088H411.421V723.792ZM425.719 721.896C426.919 721.896 428.007 722.176 428.983 722.736C429.975 723.28 430.751 724.056 431.311 725.064C431.871 726.056 432.151 727.216 432.151 728.544C432.151 729.872 431.871 731.04 431.311 732.048C430.751 733.04 429.975 733.816 428.983 734.376C428.007 734.92 426.919 735.192 425.719 735.192C424.071 735.192 422.775 734.672 421.831 733.632V739.656H418.087V722.088H421.663V723.576C422.591 722.456 423.943 721.896 425.719 721.896ZM425.071 732.12C426.031 732.12 426.815 731.8 427.423 731.16C428.047 730.504 428.359 729.632 428.359 728.544C428.359 727.456 428.047 726.592 427.423 725.952C426.815 725.296 426.031 724.968 425.071 724.968C424.111 724.968 423.319 725.296 422.695 725.952C422.087 726.592 421.783 727.456 421.783 728.544C421.783 729.632 422.087 730.504 422.695 731.16C423.319 731.8 424.111 732.12 425.071 732.12ZM440.802 735.192C439.442 735.192 438.218 734.912 437.13 734.352C436.058 733.776 435.218 732.984 434.61 731.976C434.002 730.968 433.698 729.824 433.698 728.544C433.698 727.264 434.002 726.12 434.61 725.112C435.218 724.104 436.058 723.32 437.13 722.76C438.218 722.184 439.442 721.896 440.802 721.896C442.162 721.896 443.378 722.184 444.45 722.76C445.522 723.32 446.362 724.104 446.97 725.112C447.578 726.12 447.882 727.264 447.882 728.544C447.882 729.824 447.578 730.968 446.97 731.976C446.362 732.984 445.522 733.776 444.45 734.352C443.378 734.912 442.162 735.192 440.802 735.192ZM440.802 732.12C441.762 732.12 442.546 731.8 443.154 731.16C443.778 730.504 444.09 729.632 444.09 728.544C444.09 727.456 443.778 726.592 443.154 725.952C442.546 725.296 441.762 724.968 440.802 724.968C439.842 724.968 439.05 725.296 438.426 725.952C437.802 726.592 437.49 727.456 437.49 728.544C437.49 729.632 437.802 730.504 438.426 731.16C439.05 731.8 439.842 732.12 440.802 732.12ZM454.728 735.192C453.656 735.192 452.608 735.064 451.584 734.808C450.56 734.536 449.744 734.2 449.136 733.8L450.384 731.112C450.96 731.48 451.656 731.784 452.472 732.024C453.288 732.248 454.088 732.36 454.872 732.36C456.456 732.36 457.248 731.968 457.248 731.184C457.248 730.816 457.032 730.552 456.6 730.392C456.168 730.232 455.504 730.096 454.608 729.984C453.552 729.824 452.68 729.64 451.992 729.432C451.304 729.224 450.704 728.856 450.192 728.328C449.696 727.8 449.448 727.048 449.448 726.072C449.448 725.256 449.68 724.536 450.144 723.912C450.624 723.272 451.312 722.776 452.208 722.424C453.12 722.072 454.192 721.896 455.424 721.896C456.336 721.896 457.24 722 458.136 722.208C459.048 722.4 459.8 722.672 460.392 723.024L459.144 725.688C458.008 725.048 456.768 724.728 455.424 724.728C454.624 724.728 454.024 724.84 453.624 725.064C453.224 725.288 453.024 725.576 453.024 725.928C453.024 726.328 453.24 726.608 453.672 726.768C454.104 726.928 454.792 727.08 455.736 727.224C456.792 727.4 457.656 727.592 458.328 727.8C459 727.992 459.584 728.352 460.08 728.88C460.576 729.408 460.824 730.144 460.824 731.088C460.824 731.888 460.584 732.6 460.104 733.224C459.624 733.848 458.92 734.336 457.992 734.688C457.08 735.024 455.992 735.192 454.728 735.192ZM469.638 732.192C470.31 732.192 470.902 732.096 471.414 731.904C471.942 731.696 472.43 731.376 472.878 730.944L474.87 733.104C473.654 734.496 471.878 735.192 469.542 735.192C468.086 735.192 466.798 734.912 465.678 734.352C464.558 733.776 463.694 732.984 463.086 731.976C462.478 730.968 462.174 729.824 462.174 728.544C462.174 727.28 462.47 726.144 463.062 725.136C463.67 724.112 464.494 723.32 465.534 722.76C466.59 722.184 467.774 721.896 469.086 721.896C470.318 721.896 471.438 722.16 472.446 722.688C473.454 723.2 474.254 723.952 474.846 724.944C475.454 725.92 475.758 727.08 475.758 728.424L466.206 730.272C466.478 730.912 466.902 731.392 467.478 731.712C468.07 732.032 468.79 732.192 469.638 732.192ZM469.086 724.728C468.142 724.728 467.374 725.032 466.782 725.64C466.19 726.248 465.878 727.088 465.846 728.16L472.134 726.936C471.958 726.264 471.598 725.728 471.054 725.328C470.51 724.928 469.854 724.728 469.086 724.728ZM485.336 718.2H492.968C494.792 718.2 496.4 718.552 497.792 719.256C499.2 719.944 500.288 720.92 501.056 722.184C501.84 723.448 502.232 724.92 502.232 726.6C502.232 728.28 501.84 729.752 501.056 731.016C500.288 732.28 499.2 733.264 497.792 733.968C496.4 734.656 494.792 735 492.968 735H485.336V718.2ZM492.776 731.808C494.456 731.808 495.792 731.344 496.784 730.416C497.792 729.472 498.296 728.2 498.296 726.6C498.296 725 497.792 723.736 496.784 722.808C495.792 721.864 494.456 721.392 492.776 721.392H489.224V731.808H492.776ZM518.004 722.088V735H514.428V733.512C513.5 734.632 512.156 735.192 510.396 735.192C509.18 735.192 508.076 734.92 507.084 734.376C506.108 733.832 505.34 733.056 504.78 732.048C504.22 731.04 503.94 729.872 503.94 728.544C503.94 727.216 504.22 726.048 504.78 725.04C505.34 724.032 506.108 723.256 507.084 722.712C508.076 722.168 509.18 721.896 510.396 721.896C512.044 721.896 513.332 722.416 514.26 723.456V722.088H518.004ZM511.044 732.12C511.988 732.12 512.772 731.8 513.396 731.16C514.02 730.504 514.332 729.632 514.332 728.544C514.332 727.456 514.02 726.592 513.396 725.952C512.772 725.296 511.988 724.968 511.044 724.968C510.084 724.968 509.292 725.296 508.668 725.952C508.044 726.592 507.732 727.456 507.732 728.544C507.732 729.632 508.044 730.504 508.668 731.16C509.292 731.8 510.084 732.12 511.044 732.12ZM525.814 735.192C524.742 735.192 523.694 735.064 522.67 734.808C521.646 734.536 520.83 734.2 520.222 733.8L521.47 731.112C522.046 731.48 522.742 731.784 523.558 732.024C524.374 732.248 525.174 732.36 525.958 732.36C527.542 732.36 528.334 731.968 528.334 731.184C528.334 730.816 528.118 730.552 527.686 730.392C527.254 730.232 526.59 730.096 525.694 729.984C524.638 729.824 523.766 729.64 523.078 729.432C522.39 729.224 521.79 728.856 521.278 728.328C520.782 727.8 520.534 727.048 520.534 726.072C520.534 725.256 520.766 724.536 521.23 723.912C521.71 723.272 522.398 722.776 523.294 722.424C524.206 722.072 525.278 721.896 526.51 721.896C527.422 721.896 528.326 722 529.222 722.208C530.134 722.4 530.886 722.672 531.478 723.024L530.23 725.688C529.094 725.048 527.854 724.728 526.51 724.728C525.71 724.728 525.11 724.84 524.71 725.064C524.31 725.288 524.11 725.576 524.11 725.928C524.11 726.328 524.326 726.608 524.758 726.768C525.19 726.928 525.878 727.08 526.822 727.224C527.878 727.4 528.742 727.592 529.414 727.8C530.086 727.992 530.67 728.352 531.166 728.88C531.662 729.408 531.91 730.144 531.91 731.088C531.91 731.888 531.67 732.6 531.19 733.224C530.71 733.848 530.006 734.336 529.078 734.688C528.166 735.024 527.078 735.192 525.814 735.192ZM542.068 721.896C543.668 721.896 544.956 722.376 545.932 723.336C546.924 724.296 547.42 725.72 547.42 727.608V735H543.676V728.184C543.676 727.16 543.452 726.4 543.004 725.904C542.556 725.392 541.908 725.136 541.06 725.136C540.116 725.136 539.364 725.432 538.804 726.024C538.244 726.6 537.964 727.464 537.964 728.616V735H534.22V717.192H537.964V723.432C538.46 722.936 539.06 722.56 539.764 722.304C540.468 722.032 541.236 721.896 542.068 721.896ZM558.446 721.896C559.646 721.896 560.734 722.176 561.71 722.736C562.702 723.28 563.478 724.056 564.038 725.064C564.598 726.056 564.878 727.216 564.878 728.544C564.878 729.872 564.598 731.04 564.038 732.048C563.478 733.04 562.702 733.816 561.71 734.376C560.734 734.92 559.646 735.192 558.446 735.192C556.67 735.192 555.318 734.632 554.39 733.512V735H550.814V717.192H554.558V723.456C555.502 722.416 556.798 721.896 558.446 721.896ZM557.798 732.12C558.758 732.12 559.542 731.8 560.15 731.16C560.774 730.504 561.086 729.632 561.086 728.544C561.086 727.456 560.774 726.592 560.15 725.952C559.542 725.296 558.758 724.968 557.798 724.968C556.838 724.968 556.046 725.296 555.422 725.952C554.814 726.592 554.51 727.456 554.51 728.544C554.51 729.632 554.814 730.504 555.422 731.16C556.046 731.8 556.838 732.12 557.798 732.12ZM573.528 735.192C572.168 735.192 570.944 734.912 569.856 734.352C568.784 733.776 567.944 732.984 567.336 731.976C566.728 730.968 566.424 729.824 566.424 728.544C566.424 727.264 566.728 726.12 567.336 725.112C567.944 724.104 568.784 723.32 569.856 722.76C570.944 722.184 572.168 721.896 573.528 721.896C574.888 721.896 576.104 722.184 577.176 722.76C578.248 723.32 579.088 724.104 579.696 725.112C580.304 726.12 580.608 727.264 580.608 728.544C580.608 729.824 580.304 730.968 579.696 731.976C579.088 732.984 578.248 733.776 577.176 734.352C576.104 734.912 574.888 735.192 573.528 735.192ZM573.528 732.12C574.488 732.12 575.272 731.8 575.88 731.16C576.504 730.504 576.816 729.632 576.816 728.544C576.816 727.456 576.504 726.592 575.88 725.952C575.272 725.296 574.488 724.968 573.528 724.968C572.568 724.968 571.776 725.296 571.152 725.952C570.528 726.592 570.216 727.456 570.216 728.544C570.216 729.632 570.528 730.504 571.152 731.16C571.776 731.8 572.568 732.12 573.528 732.12ZM596.215 722.088V735H592.639V733.512C591.711 734.632 590.367 735.192 588.607 735.192C587.391 735.192 586.287 734.92 585.295 734.376C584.319 733.832 583.551 733.056 582.991 732.048C582.431 731.04 582.151 729.872 582.151 728.544C582.151 727.216 582.431 726.048 582.991 725.04C583.551 724.032 584.319 723.256 585.295 722.712C586.287 722.168 587.391 721.896 588.607 721.896C590.255 721.896 591.543 722.416 592.471 723.456V722.088H596.215ZM589.255 732.12C590.199 732.12 590.983 731.8 591.607 731.16C592.231 730.504 592.543 729.632 592.543 728.544C592.543 727.456 592.231 726.592 591.607 725.952C590.983 725.296 590.199 724.968 589.255 724.968C588.295 724.968 587.503 725.296 586.879 725.952C586.255 726.592 585.943 727.456 585.943 728.544C585.943 729.632 586.255 730.504 586.879 731.16C587.503 731.8 588.295 732.12 589.255 732.12ZM603.257 723.792C603.705 723.168 604.305 722.696 605.057 722.376C605.825 722.056 606.705 721.896 607.697 721.896V725.352C607.281 725.32 607.001 725.304 606.857 725.304C605.785 725.304 604.945 725.608 604.337 726.216C603.729 726.808 603.425 727.704 603.425 728.904V735H599.681V722.088H603.257V723.792ZM622.958 717.192V735H619.382V733.512C618.454 734.632 617.11 735.192 615.35 735.192C614.134 735.192 613.03 734.92 612.038 734.376C611.062 733.832 610.294 733.056 609.734 732.048C609.174 731.04 608.894 729.872 608.894 728.544C608.894 727.216 609.174 726.048 609.734 725.04C610.294 724.032 611.062 723.256 612.038 722.712C613.03 722.168 614.134 721.896 615.35 721.896C616.998 721.896 618.286 722.416 619.214 723.456V717.192H622.958ZM615.998 732.12C616.942 732.12 617.726 731.8 618.35 731.16C618.974 730.504 619.286 729.632 619.286 728.544C619.286 727.456 618.974 726.592 618.35 725.952C617.726 725.296 616.942 724.968 615.998 724.968C615.038 724.968 614.246 725.296 613.622 725.952C612.998 726.592 612.686 727.456 612.686 728.544C612.686 729.632 612.998 730.504 613.622 731.16C614.246 731.8 615.038 732.12 615.998 732.12Z" fill="#133F32"/>
<path opacity="0.7" d="M187.354 766V756.2H193.416V757.166H188.53V760.582H192.996V761.534H188.53V765.034H193.416V766H187.354ZM197.23 766L194.556 758.944H195.788L197.916 764.866L200.058 758.944H201.262L198.588 766H197.23ZM205.321 766.168C204.658 766.168 204.07 766.014 203.557 765.706C203.053 765.398 202.656 764.969 202.367 764.418C202.078 763.858 201.933 763.209 201.933 762.472C201.933 761.725 202.073 761.077 202.353 760.526C202.642 759.975 203.044 759.546 203.557 759.238C204.08 758.93 204.677 758.776 205.349 758.776C206.04 758.776 206.623 758.93 207.099 759.238C207.584 759.546 207.953 759.952 208.205 760.456C208.466 760.951 208.597 761.497 208.597 762.094C208.597 762.187 208.597 762.285 208.597 762.388C208.597 762.491 208.592 762.607 208.583 762.738H202.815V761.828H207.449C207.421 761.184 207.206 760.68 206.805 760.316C206.413 759.952 205.918 759.77 205.321 759.77C204.92 759.77 204.546 759.863 204.201 760.05C203.865 760.227 203.594 760.493 203.389 760.848C203.184 761.193 203.081 761.627 203.081 762.15V762.542C203.081 763.121 203.184 763.606 203.389 763.998C203.604 764.39 203.879 764.684 204.215 764.88C204.56 765.076 204.929 765.174 205.321 765.174C205.816 765.174 206.222 765.067 206.539 764.852C206.866 764.628 207.099 764.329 207.239 763.956H208.401C208.289 764.376 208.093 764.754 207.813 765.09C207.533 765.426 207.183 765.692 206.763 765.888C206.352 766.075 205.872 766.168 205.321 766.168ZM210.184 766V758.944H211.248L211.332 760.288C211.491 759.971 211.691 759.7 211.934 759.476C212.186 759.252 212.485 759.079 212.83 758.958C213.185 758.837 213.586 758.776 214.034 758.776V760.008H213.6C213.301 760.008 213.017 760.05 212.746 760.134C212.475 760.209 212.233 760.335 212.018 760.512C211.813 760.689 211.649 760.932 211.528 761.24C211.416 761.539 211.36 761.912 211.36 762.36V766H210.184ZM216.136 769.08L217.858 765.216H217.452L214.68 758.944H215.954L218.25 764.334L220.658 758.944H221.876L217.368 769.08H216.136ZM225.917 766C225.497 766 225.133 765.935 224.825 765.804C224.517 765.673 224.279 765.454 224.111 765.146C223.952 764.829 223.873 764.404 223.873 763.872V759.938H222.641V758.944H223.873L224.027 757.236H225.049V758.944H227.093V759.938H225.049V763.872C225.049 764.311 225.138 764.609 225.315 764.768C225.492 764.917 225.805 764.992 226.253 764.992H227.009V766H225.917ZM228.627 766V755.92H229.803V760.134C230.037 759.714 230.363 759.383 230.783 759.14C231.213 758.897 231.679 758.776 232.183 758.776C232.725 758.776 233.196 758.888 233.597 759.112C233.999 759.327 234.307 759.658 234.521 760.106C234.736 760.554 234.843 761.119 234.843 761.8V766H233.681V761.926C233.681 761.217 233.532 760.685 233.233 760.33C232.935 759.966 232.501 759.784 231.931 759.784C231.53 759.784 231.166 759.882 230.839 760.078C230.522 760.274 230.27 760.554 230.083 760.918C229.897 761.282 229.803 761.73 229.803 762.262V766H228.627ZM236.792 766V758.944H237.968V766H236.792ZM237.38 757.446C237.147 757.446 236.951 757.371 236.792 757.222C236.643 757.063 236.568 756.867 236.568 756.634C236.568 756.401 236.643 756.214 236.792 756.074C236.951 755.925 237.147 755.85 237.38 755.85C237.604 755.85 237.796 755.925 237.954 756.074C238.113 756.214 238.192 756.401 238.192 756.634C238.192 756.867 238.113 757.063 237.954 757.222C237.796 757.371 237.604 757.446 237.38 757.446ZM240.043 766V758.944H241.107L241.163 760.176C241.387 759.737 241.705 759.397 242.115 759.154C242.535 758.902 243.011 758.776 243.543 758.776C244.094 758.776 244.57 758.888 244.971 759.112C245.373 759.327 245.685 759.658 245.909 760.106C246.133 760.545 246.245 761.105 246.245 761.786V766H245.069V761.912C245.069 761.203 244.911 760.671 244.593 760.316C244.285 759.961 243.847 759.784 243.277 759.784C242.885 759.784 242.535 759.882 242.227 760.078C241.919 760.265 241.672 760.54 241.485 760.904C241.308 761.259 241.219 761.702 241.219 762.234V766H240.043ZM250.869 769.248C250.234 769.248 249.669 769.164 249.175 768.996C248.689 768.837 248.311 768.59 248.041 768.254C247.77 767.918 247.635 767.503 247.635 767.008C247.635 766.793 247.677 766.565 247.761 766.322C247.854 766.079 248.008 765.841 248.223 765.608C248.447 765.375 248.759 765.165 249.161 764.978L249.973 765.454C249.478 765.659 249.156 765.893 249.007 766.154C248.857 766.425 248.783 766.672 248.783 766.896C248.783 767.204 248.871 767.461 249.049 767.666C249.226 767.871 249.473 768.025 249.791 768.128C250.108 768.231 250.467 768.282 250.869 768.282C251.27 768.282 251.615 768.226 251.905 768.114C252.194 768.002 252.418 767.843 252.577 767.638C252.735 767.433 252.815 767.19 252.815 766.91C252.815 766.583 252.693 766.308 252.451 766.084C252.208 765.869 251.746 765.743 251.065 765.706C250.514 765.669 250.052 765.617 249.679 765.552C249.305 765.487 248.997 765.412 248.755 765.328C248.512 765.235 248.307 765.132 248.139 765.02C247.98 764.908 247.835 764.791 247.705 764.67V764.348L249.063 763.004L250.085 763.368L248.685 764.628L248.867 764.138C248.969 764.213 249.067 764.283 249.161 764.348C249.254 764.413 249.38 764.469 249.539 764.516C249.697 764.563 249.917 764.605 250.197 764.642C250.486 764.679 250.864 764.717 251.331 764.754C251.975 764.801 252.488 764.913 252.871 765.09C253.263 765.267 253.543 765.505 253.711 765.804C253.888 766.103 253.977 766.457 253.977 766.868C253.977 767.269 253.865 767.647 253.641 768.002C253.426 768.366 253.09 768.665 252.633 768.898C252.175 769.131 251.587 769.248 250.869 769.248ZM250.855 763.788C250.267 763.788 249.763 763.676 249.343 763.452C248.932 763.228 248.619 762.929 248.405 762.556C248.19 762.173 248.083 761.749 248.083 761.282C248.083 760.815 248.19 760.395 248.405 760.022C248.629 759.649 248.946 759.35 249.357 759.126C249.767 758.893 250.267 758.776 250.855 758.776C251.443 758.776 251.942 758.893 252.353 759.126C252.763 759.35 253.076 759.649 253.291 760.022C253.505 760.395 253.613 760.815 253.613 761.282C253.613 761.749 253.505 762.173 253.291 762.556C253.076 762.929 252.763 763.228 252.353 763.452C251.942 763.676 251.443 763.788 250.855 763.788ZM250.855 762.822C251.359 762.822 251.755 762.691 252.045 762.43C252.334 762.169 252.479 761.786 252.479 761.282C252.479 760.787 252.334 760.409 252.045 760.148C251.755 759.887 251.359 759.756 250.855 759.756C250.36 759.756 249.959 759.887 249.651 760.148C249.352 760.409 249.203 760.787 249.203 761.282C249.203 761.786 249.352 762.169 249.651 762.43C249.949 762.691 250.351 762.822 250.855 762.822ZM252.003 759.938L251.653 758.944H254.537V759.826L252.003 759.938ZM260.378 769.08L262.1 765.216H261.694L258.922 758.944H260.196L262.492 764.334L264.9 758.944H266.118L261.61 769.08H260.378ZM269.881 766.168C269.228 766.168 268.64 766.019 268.117 765.72C267.594 765.412 267.184 764.983 266.885 764.432C266.586 763.872 266.437 763.223 266.437 762.486C266.437 761.73 266.586 761.077 266.885 760.526C267.193 759.966 267.608 759.537 268.131 759.238C268.663 758.93 269.256 758.776 269.909 758.776C270.581 758.776 271.174 758.93 271.687 759.238C272.21 759.537 272.62 759.966 272.919 760.526C273.227 761.077 273.381 761.725 273.381 762.472C273.381 763.219 273.227 763.872 272.919 764.432C272.611 764.983 272.196 765.412 271.673 765.72C271.15 766.019 270.553 766.168 269.881 766.168ZM269.895 765.16C270.296 765.16 270.67 765.062 271.015 764.866C271.36 764.661 271.64 764.357 271.855 763.956C272.07 763.555 272.177 763.06 272.177 762.472C272.177 761.875 272.07 761.38 271.855 760.988C271.65 760.587 271.374 760.288 271.029 760.092C270.693 759.887 270.32 759.784 269.909 759.784C269.517 759.784 269.144 759.887 268.789 760.092C268.444 760.288 268.164 760.587 267.949 760.988C267.744 761.38 267.641 761.875 267.641 762.472C267.641 763.06 267.744 763.555 267.949 763.956C268.164 764.357 268.439 764.661 268.775 764.866C269.12 765.062 269.494 765.16 269.895 765.16ZM277.592 766.168C277.05 766.168 276.574 766.061 276.164 765.846C275.762 765.631 275.45 765.3 275.226 764.852C275.011 764.404 274.904 763.844 274.904 763.172V758.944H276.08V763.046C276.08 763.746 276.234 764.273 276.542 764.628C276.85 764.983 277.284 765.16 277.844 765.16C278.236 765.16 278.59 765.067 278.908 764.88C279.225 764.684 279.472 764.409 279.65 764.054C279.836 763.69 279.93 763.247 279.93 762.724V758.944H281.106V766H280.042L279.972 764.768C279.757 765.207 279.44 765.552 279.02 765.804C278.6 766.047 278.124 766.168 277.592 766.168ZM286.774 766V758.944H287.838L287.894 760.176C288.118 759.737 288.435 759.397 288.846 759.154C289.266 758.902 289.742 758.776 290.274 758.776C290.825 758.776 291.301 758.888 291.702 759.112C292.103 759.327 292.416 759.658 292.64 760.106C292.864 760.545 292.976 761.105 292.976 761.786V766H291.8V761.912C291.8 761.203 291.641 760.671 291.324 760.316C291.016 759.961 290.577 759.784 290.008 759.784C289.616 759.784 289.266 759.882 288.958 760.078C288.65 760.265 288.403 760.54 288.216 760.904C288.039 761.259 287.95 761.702 287.95 762.234V766H286.774ZM297.907 766.168C297.244 766.168 296.656 766.014 296.143 765.706C295.639 765.398 295.242 764.969 294.953 764.418C294.664 763.858 294.519 763.209 294.519 762.472C294.519 761.725 294.659 761.077 294.939 760.526C295.228 759.975 295.63 759.546 296.143 759.238C296.666 758.93 297.263 758.776 297.935 758.776C298.626 758.776 299.209 758.93 299.685 759.238C300.17 759.546 300.539 759.952 300.791 760.456C301.052 760.951 301.183 761.497 301.183 762.094C301.183 762.187 301.183 762.285 301.183 762.388C301.183 762.491 301.178 762.607 301.169 762.738H295.401V761.828H300.035C300.007 761.184 299.792 760.68 299.391 760.316C298.999 759.952 298.504 759.77 297.907 759.77C297.506 759.77 297.132 759.863 296.787 760.05C296.451 760.227 296.18 760.493 295.975 760.848C295.77 761.193 295.667 761.627 295.667 762.15V762.542C295.667 763.121 295.77 763.606 295.975 763.998C296.19 764.39 296.465 764.684 296.801 764.88C297.146 765.076 297.515 765.174 297.907 765.174C298.402 765.174 298.808 765.067 299.125 764.852C299.452 764.628 299.685 764.329 299.825 763.956H300.987C300.875 764.376 300.679 764.754 300.399 765.09C300.119 765.426 299.769 765.692 299.349 765.888C298.938 766.075 298.458 766.168 297.907 766.168ZM305.864 766.168C305.201 766.168 304.613 766.014 304.1 765.706C303.596 765.398 303.199 764.969 302.91 764.418C302.621 763.858 302.476 763.209 302.476 762.472C302.476 761.725 302.616 761.077 302.896 760.526C303.185 759.975 303.587 759.546 304.1 759.238C304.623 758.93 305.22 758.776 305.892 758.776C306.583 758.776 307.166 758.93 307.642 759.238C308.127 759.546 308.496 759.952 308.748 760.456C309.009 760.951 309.14 761.497 309.14 762.094C309.14 762.187 309.14 762.285 309.14 762.388C309.14 762.491 309.135 762.607 309.126 762.738H303.358V761.828H307.992C307.964 761.184 307.749 760.68 307.348 760.316C306.956 759.952 306.461 759.77 305.864 759.77C305.463 759.77 305.089 759.863 304.744 760.05C304.408 760.227 304.137 760.493 303.932 760.848C303.727 761.193 303.624 761.627 303.624 762.15V762.542C303.624 763.121 303.727 763.606 303.932 763.998C304.147 764.39 304.422 764.684 304.758 764.88C305.103 765.076 305.472 765.174 305.864 765.174C306.359 765.174 306.765 765.067 307.082 764.852C307.409 764.628 307.642 764.329 307.782 763.956H308.944C308.832 764.376 308.636 764.754 308.356 765.09C308.076 765.426 307.726 765.692 307.306 765.888C306.895 766.075 306.415 766.168 305.864 766.168ZM313.835 766.168C313.154 766.168 312.556 766.009 312.043 765.692C311.53 765.365 311.133 764.922 310.853 764.362C310.573 763.802 310.433 763.167 310.433 762.458C310.433 761.749 310.573 761.119 310.853 760.568C311.133 760.008 311.53 759.569 312.043 759.252C312.566 758.935 313.168 758.776 313.849 758.776C314.428 758.776 314.932 758.893 315.361 759.126C315.8 759.359 316.136 759.686 316.369 760.106V755.92H317.545V766H316.481L316.383 764.838C316.234 765.071 316.042 765.291 315.809 765.496C315.576 765.692 315.296 765.855 314.969 765.986C314.642 766.107 314.264 766.168 313.835 766.168ZM313.975 765.146C314.442 765.146 314.852 765.034 315.207 764.81C315.562 764.586 315.837 764.278 316.033 763.886C316.229 763.485 316.327 763.013 316.327 762.472C316.327 761.94 316.229 761.473 316.033 761.072C315.837 760.671 315.562 760.358 315.207 760.134C314.852 759.91 314.442 759.798 313.975 759.798C313.518 759.798 313.112 759.91 312.757 760.134C312.402 760.358 312.127 760.671 311.931 761.072C311.735 761.473 311.637 761.94 311.637 762.472C311.637 763.013 311.735 763.485 311.931 763.886C312.127 764.278 312.402 764.586 312.757 764.81C313.112 765.034 313.518 765.146 313.975 765.146ZM323.335 766V758.944H324.511V766H323.335ZM323.923 757.446C323.69 757.446 323.494 757.371 323.335 757.222C323.186 757.063 323.111 756.867 323.111 756.634C323.111 756.401 323.186 756.214 323.335 756.074C323.494 755.925 323.69 755.85 323.923 755.85C324.147 755.85 324.338 755.925 324.497 756.074C324.656 756.214 324.735 756.401 324.735 756.634C324.735 756.867 324.656 757.063 324.497 757.222C324.338 757.371 324.147 757.446 323.923 757.446ZM326.586 766V758.944H327.65L327.706 760.176C327.93 759.737 328.248 759.397 328.658 759.154C329.078 758.902 329.554 758.776 330.086 758.776C330.637 758.776 331.113 758.888 331.514 759.112C331.916 759.327 332.228 759.658 332.452 760.106C332.676 760.545 332.788 761.105 332.788 761.786V766H331.612V761.912C331.612 761.203 331.454 760.671 331.136 760.316C330.828 759.961 330.39 759.784 329.82 759.784C329.428 759.784 329.078 759.882 328.77 760.078C328.462 760.265 328.215 760.54 328.028 760.904C327.851 761.259 327.762 761.702 327.762 762.234V766H326.586ZM340.64 766.168C340.071 766.168 339.595 766.07 339.212 765.874C338.83 765.669 338.545 765.403 338.358 765.076C338.172 764.74 338.078 764.376 338.078 763.984C338.078 763.508 338.2 763.107 338.442 762.78C338.694 762.444 339.044 762.192 339.492 762.024C339.95 761.847 340.486 761.758 341.102 761.758H342.964C342.964 761.319 342.894 760.955 342.754 760.666C342.624 760.367 342.428 760.143 342.166 759.994C341.914 759.845 341.597 759.77 341.214 759.77C340.766 759.77 340.379 759.882 340.052 760.106C339.726 760.33 339.525 760.661 339.45 761.1H338.246C338.302 760.596 338.47 760.176 338.75 759.84C339.04 759.495 339.404 759.233 339.842 759.056C340.281 758.869 340.738 758.776 341.214 758.776C341.868 758.776 342.409 758.897 342.838 759.14C343.277 759.373 343.604 759.705 343.818 760.134C344.033 760.554 344.14 761.053 344.14 761.632V766H343.09L343.02 764.754C342.927 764.95 342.806 765.137 342.656 765.314C342.516 765.482 342.348 765.631 342.152 765.762C341.956 765.883 341.732 765.981 341.48 766.056C341.238 766.131 340.958 766.168 340.64 766.168ZM340.822 765.174C341.149 765.174 341.443 765.109 341.704 764.978C341.975 764.838 342.204 764.651 342.39 764.418C342.577 764.175 342.717 763.909 342.81 763.62C342.913 763.331 342.964 763.027 342.964 762.71V762.668H341.2C340.743 762.668 340.374 762.724 340.094 762.836C339.814 762.939 339.614 763.088 339.492 763.284C339.371 763.471 339.31 763.685 339.31 763.928C339.31 764.18 339.366 764.399 339.478 764.586C339.6 764.773 339.772 764.917 339.996 765.02C340.23 765.123 340.505 765.174 340.822 765.174ZM345.959 766V758.944H347.023L347.079 760.176C347.303 759.737 347.621 759.397 348.031 759.154C348.451 758.902 348.927 758.776 349.459 758.776C350.01 758.776 350.486 758.888 350.887 759.112C351.289 759.327 351.601 759.658 351.825 760.106C352.049 760.545 352.161 761.105 352.161 761.786V766H350.985V761.912C350.985 761.203 350.827 760.671 350.509 760.316C350.201 759.961 349.763 759.784 349.193 759.784C348.801 759.784 348.451 759.882 348.143 760.078C347.835 760.265 347.588 760.54 347.401 760.904C347.224 761.259 347.135 761.702 347.135 762.234V766H345.959ZM360.811 766.168C360.149 766.168 359.561 766.014 359.047 765.706C358.543 765.398 358.147 764.969 357.857 764.418C357.568 763.858 357.423 763.209 357.423 762.472C357.423 761.725 357.563 761.077 357.843 760.526C358.133 759.975 358.534 759.546 359.047 759.238C359.57 758.93 360.167 758.776 360.839 758.776C361.53 758.776 362.113 758.93 362.589 759.238C363.075 759.546 363.443 759.952 363.695 760.456C363.957 760.951 364.087 761.497 364.087 762.094C364.087 762.187 364.087 762.285 364.087 762.388C364.087 762.491 364.083 762.607 364.073 762.738H358.305V761.828H362.939C362.911 761.184 362.697 760.68 362.295 760.316C361.903 759.952 361.409 759.77 360.811 759.77C360.41 759.77 360.037 759.863 359.691 760.05C359.355 760.227 359.085 760.493 358.879 760.848C358.674 761.193 358.571 761.627 358.571 762.15V762.542C358.571 763.121 358.674 763.606 358.879 763.998C359.094 764.39 359.369 764.684 359.705 764.88C360.051 765.076 360.419 765.174 360.811 765.174C361.306 765.174 361.712 765.067 362.029 764.852C362.356 764.628 362.589 764.329 362.729 763.956H363.891C363.779 764.376 363.583 764.754 363.303 765.09C363.023 765.426 362.673 765.692 362.253 765.888C361.843 766.075 361.362 766.168 360.811 766.168ZM367.97 766.168C367.401 766.168 366.925 766.07 366.542 765.874C366.16 765.669 365.875 765.403 365.688 765.076C365.502 764.74 365.408 764.376 365.408 763.984C365.408 763.508 365.53 763.107 365.772 762.78C366.024 762.444 366.374 762.192 366.822 762.024C367.28 761.847 367.816 761.758 368.432 761.758H370.294C370.294 761.319 370.224 760.955 370.084 760.666C369.954 760.367 369.758 760.143 369.496 759.994C369.244 759.845 368.927 759.77 368.544 759.77C368.096 759.77 367.709 759.882 367.382 760.106C367.056 760.33 366.855 760.661 366.78 761.1H365.576C365.632 760.596 365.8 760.176 366.08 759.84C366.37 759.495 366.734 759.233 367.172 759.056C367.611 758.869 368.068 758.776 368.544 758.776C369.198 758.776 369.739 758.897 370.168 759.14C370.607 759.373 370.934 759.705 371.148 760.134C371.363 760.554 371.47 761.053 371.47 761.632V766H370.42L370.35 764.754C370.257 764.95 370.136 765.137 369.986 765.314C369.846 765.482 369.678 765.631 369.482 765.762C369.286 765.883 369.062 765.981 368.81 766.056C368.568 766.131 368.288 766.168 367.97 766.168ZM368.152 765.174C368.479 765.174 368.773 765.109 369.034 764.978C369.305 764.838 369.534 764.651 369.72 764.418C369.907 764.175 370.047 763.909 370.14 763.62C370.243 763.331 370.294 763.027 370.294 762.71V762.668H368.53C368.073 762.668 367.704 762.724 367.424 762.836C367.144 762.939 366.944 763.088 366.822 763.284C366.701 763.471 366.64 763.685 366.64 763.928C366.64 764.18 366.696 764.399 366.808 764.586C366.93 764.773 367.102 764.917 367.326 765.02C367.56 765.123 367.835 765.174 368.152 765.174ZM375.95 766.168C375.362 766.168 374.848 766.07 374.41 765.874C373.98 765.678 373.635 765.407 373.374 765.062C373.122 764.707 372.968 764.292 372.912 763.816H374.116C374.162 764.059 374.26 764.283 374.41 764.488C374.559 764.693 374.76 764.861 375.012 764.992C375.273 765.113 375.59 765.174 375.964 765.174C376.29 765.174 376.561 765.127 376.776 765.034C376.99 764.931 377.149 764.796 377.252 764.628C377.364 764.46 377.42 764.278 377.42 764.082C377.42 763.793 377.35 763.573 377.21 763.424C377.079 763.275 376.883 763.158 376.622 763.074C376.36 762.981 376.043 762.901 375.67 762.836C375.362 762.78 375.058 762.705 374.76 762.612C374.461 762.519 374.195 762.397 373.962 762.248C373.728 762.089 373.542 761.898 373.402 761.674C373.271 761.45 373.206 761.175 373.206 760.848C373.206 760.447 373.308 760.092 373.514 759.784C373.719 759.467 374.013 759.219 374.396 759.042C374.788 758.865 375.24 758.776 375.754 758.776C376.51 758.776 377.121 758.958 377.588 759.322C378.054 759.686 378.33 760.213 378.414 760.904H377.252C377.205 760.549 377.051 760.274 376.79 760.078C376.538 759.873 376.188 759.77 375.74 759.77C375.301 759.77 374.965 759.859 374.732 760.036C374.508 760.213 374.396 760.447 374.396 760.736C374.396 760.923 374.456 761.091 374.578 761.24C374.708 761.38 374.895 761.501 375.138 761.604C375.39 761.707 375.698 761.791 376.062 761.856C376.528 761.94 376.953 762.052 377.336 762.192C377.718 762.332 378.026 762.542 378.26 762.822C378.502 763.093 378.624 763.48 378.624 763.984C378.624 764.423 378.512 764.805 378.288 765.132C378.073 765.459 377.765 765.715 377.364 765.902C376.962 766.079 376.491 766.168 375.95 766.168ZM380.429 766V758.944H381.605V766H380.429ZM381.017 757.446C380.784 757.446 380.588 757.371 380.429 757.222C380.28 757.063 380.205 756.867 380.205 756.634C380.205 756.401 380.28 756.214 380.429 756.074C380.588 755.925 380.784 755.85 381.017 755.85C381.241 755.85 381.432 755.925 381.591 756.074C381.75 756.214 381.829 756.401 381.829 756.634C381.829 756.867 381.75 757.063 381.591 757.222C381.432 757.371 381.241 757.446 381.017 757.446ZM383.68 766V755.92H384.856V766H383.68ZM387.567 769.08L389.289 765.216H388.883L386.111 758.944H387.385L389.681 764.334L392.089 758.944H393.307L388.799 769.08H387.567ZM401.473 766.168C400.811 766.168 400.213 766.014 399.681 765.706C399.159 765.398 398.748 764.969 398.449 764.418C398.151 763.858 398.001 763.214 398.001 762.486C398.001 761.739 398.151 761.091 398.449 760.54C398.748 759.989 399.159 759.56 399.681 759.252C400.213 758.935 400.811 758.776 401.473 758.776C402.313 758.776 403.013 758.995 403.573 759.434C404.133 759.863 404.488 760.442 404.637 761.17H403.433C403.34 760.731 403.111 760.391 402.747 760.148C402.383 759.905 401.954 759.784 401.459 759.784C401.058 759.784 400.685 759.887 400.339 760.092C399.994 760.288 399.719 760.587 399.513 760.988C399.308 761.389 399.205 761.884 399.205 762.472C399.205 762.911 399.266 763.303 399.387 763.648C399.509 763.984 399.672 764.264 399.877 764.488C400.083 764.712 400.321 764.885 400.591 765.006C400.871 765.118 401.161 765.174 401.459 765.174C401.795 765.174 402.099 765.123 402.369 765.02C402.64 764.908 402.869 764.745 403.055 764.53C403.242 764.315 403.368 764.063 403.433 763.774H404.637C404.488 764.483 404.129 765.062 403.559 765.51C402.999 765.949 402.304 766.168 401.473 766.168ZM408.869 766.168C408.328 766.168 407.852 766.061 407.441 765.846C407.04 765.631 406.727 765.3 406.503 764.852C406.288 764.404 406.181 763.844 406.181 763.172V758.944H407.357V763.046C407.357 763.746 407.511 764.273 407.819 764.628C408.127 764.983 408.561 765.16 409.121 765.16C409.513 765.16 409.868 765.067 410.185 764.88C410.502 764.684 410.75 764.409 410.927 764.054C411.114 763.69 411.207 763.247 411.207 762.724V758.944H412.383V766H411.319L411.249 764.768C411.034 765.207 410.717 765.552 410.297 765.804C409.877 766.047 409.401 766.168 408.869 766.168ZM416.993 766.168C416.405 766.168 415.891 766.07 415.453 765.874C415.023 765.678 414.678 765.407 414.417 765.062C414.165 764.707 414.011 764.292 413.955 763.816H415.159C415.205 764.059 415.303 764.283 415.453 764.488C415.602 764.693 415.803 764.861 416.055 764.992C416.316 765.113 416.633 765.174 417.007 765.174C417.333 765.174 417.604 765.127 417.819 765.034C418.033 764.931 418.192 764.796 418.295 764.628C418.407 764.46 418.463 764.278 418.463 764.082C418.463 763.793 418.393 763.573 418.253 763.424C418.122 763.275 417.926 763.158 417.665 763.074C417.403 762.981 417.086 762.901 416.713 762.836C416.405 762.78 416.101 762.705 415.803 762.612C415.504 762.519 415.238 762.397 415.005 762.248C414.771 762.089 414.585 761.898 414.445 761.674C414.314 761.45 414.249 761.175 414.249 760.848C414.249 760.447 414.351 760.092 414.557 759.784C414.762 759.467 415.056 759.219 415.439 759.042C415.831 758.865 416.283 758.776 416.797 758.776C417.553 758.776 418.164 758.958 418.631 759.322C419.097 759.686 419.373 760.213 419.457 760.904H418.295C418.248 760.549 418.094 760.274 417.833 760.078C417.581 759.873 417.231 759.77 416.783 759.77C416.344 759.77 416.008 759.859 415.775 760.036C415.551 760.213 415.439 760.447 415.439 760.736C415.439 760.923 415.499 761.091 415.621 761.24C415.751 761.38 415.938 761.501 416.181 761.604C416.433 761.707 416.741 761.791 417.105 761.856C417.571 761.94 417.996 762.052 418.379 762.192C418.761 762.332 419.069 762.542 419.303 762.822C419.545 763.093 419.667 763.48 419.667 763.984C419.667 764.423 419.555 764.805 419.331 765.132C419.116 765.459 418.808 765.715 418.407 765.902C418.005 766.079 417.534 766.168 416.993 766.168ZM423.817 766C423.397 766 423.033 765.935 422.725 765.804C422.417 765.673 422.179 765.454 422.011 765.146C421.853 764.829 421.773 764.404 421.773 763.872V759.938H420.541V758.944H421.773L421.927 757.236H422.949V758.944H424.993V759.938H422.949V763.872C422.949 764.311 423.038 764.609 423.215 764.768C423.393 764.917 423.705 764.992 424.153 764.992H424.909V766H423.817ZM429.486 766.168C428.833 766.168 428.245 766.019 427.722 765.72C427.2 765.412 426.789 764.983 426.49 764.432C426.192 763.872 426.042 763.223 426.042 762.486C426.042 761.73 426.192 761.077 426.49 760.526C426.798 759.966 427.214 759.537 427.736 759.238C428.268 758.93 428.861 758.776 429.514 758.776C430.186 758.776 430.779 758.93 431.292 759.238C431.815 759.537 432.226 759.966 432.524 760.526C432.832 761.077 432.986 761.725 432.986 762.472C432.986 763.219 432.832 763.872 432.524 764.432C432.216 764.983 431.801 765.412 431.278 765.72C430.756 766.019 430.158 766.168 429.486 766.168ZM429.5 765.16C429.902 765.16 430.275 765.062 430.62 764.866C430.966 764.661 431.246 764.357 431.46 763.956C431.675 763.555 431.782 763.06 431.782 762.472C431.782 761.875 431.675 761.38 431.46 760.988C431.255 760.587 430.98 760.288 430.634 760.092C430.298 759.887 429.925 759.784 429.514 759.784C429.122 759.784 428.749 759.887 428.394 760.092C428.049 760.288 427.769 760.587 427.554 760.988C427.349 761.38 427.246 761.875 427.246 762.472C427.246 763.06 427.349 763.555 427.554 763.956C427.769 764.357 428.044 764.661 428.38 764.866C428.726 765.062 429.099 765.16 429.5 765.16ZM434.635 766V758.944H435.699L435.769 759.952C435.993 759.588 436.292 759.303 436.665 759.098C437.048 758.883 437.463 758.776 437.911 758.776C438.275 758.776 438.602 758.827 438.891 758.93C439.19 759.023 439.451 759.173 439.675 759.378C439.899 759.574 440.081 759.826 440.221 760.134C440.464 759.705 440.795 759.373 441.215 759.14C441.645 758.897 442.102 758.776 442.587 758.776C443.129 758.776 443.6 758.888 444.001 759.112C444.412 759.327 444.725 759.658 444.939 760.106C445.163 760.545 445.275 761.105 445.275 761.786V766H444.113V761.912C444.113 761.203 443.969 760.671 443.679 760.316C443.39 759.961 442.984 759.784 442.461 759.784C442.097 759.784 441.771 759.882 441.481 760.078C441.192 760.265 440.963 760.54 440.795 760.904C440.627 761.268 440.543 761.716 440.543 762.248V766H439.367V761.912C439.367 761.203 439.223 760.671 438.933 760.316C438.644 759.961 438.233 759.784 437.701 759.784C437.347 759.784 437.025 759.882 436.735 760.078C436.455 760.265 436.231 760.54 436.063 760.904C435.895 761.268 435.811 761.716 435.811 762.248V766H434.635ZM447.216 766V758.944H448.392V766H447.216ZM447.804 757.446C447.571 757.446 447.375 757.371 447.216 757.222C447.067 757.063 446.992 756.867 446.992 756.634C446.992 756.401 447.067 756.214 447.216 756.074C447.375 755.925 447.571 755.85 447.804 755.85C448.028 755.85 448.219 755.925 448.378 756.074C448.537 756.214 448.616 756.401 448.616 756.634C448.616 756.867 448.537 757.063 448.378 757.222C448.219 757.371 448.028 757.446 447.804 757.446ZM449.991 766V765.034L453.897 759.924H450.061V758.944H455.241V759.91L451.321 765.02H455.311V766H449.991ZM459.175 766.168C458.606 766.168 458.13 766.07 457.747 765.874C457.365 765.669 457.08 765.403 456.893 765.076C456.707 764.74 456.613 764.376 456.613 763.984C456.613 763.508 456.735 763.107 456.977 762.78C457.229 762.444 457.579 762.192 458.027 762.024C458.485 761.847 459.021 761.758 459.637 761.758H461.499C461.499 761.319 461.429 760.955 461.289 760.666C461.159 760.367 460.963 760.143 460.701 759.994C460.449 759.845 460.132 759.77 459.749 759.77C459.301 759.77 458.914 759.882 458.587 760.106C458.261 760.33 458.06 760.661 457.985 761.1H456.781C456.837 760.596 457.005 760.176 457.285 759.84C457.575 759.495 457.939 759.233 458.377 759.056C458.816 758.869 459.273 758.776 459.749 758.776C460.403 758.776 460.944 758.897 461.373 759.14C461.812 759.373 462.139 759.705 462.353 760.134C462.568 760.554 462.675 761.053 462.675 761.632V766H461.625L461.555 764.754C461.462 764.95 461.341 765.137 461.191 765.314C461.051 765.482 460.883 765.631 460.687 765.762C460.491 765.883 460.267 765.981 460.015 766.056C459.773 766.131 459.493 766.168 459.175 766.168ZM459.357 765.174C459.684 765.174 459.978 765.109 460.239 764.978C460.51 764.838 460.739 764.651 460.925 764.418C461.112 764.175 461.252 763.909 461.345 763.62C461.448 763.331 461.499 763.027 461.499 762.71V762.668H459.735C459.278 762.668 458.909 762.724 458.629 762.836C458.349 762.939 458.149 763.088 458.027 763.284C457.906 763.471 457.845 763.685 457.845 763.928C457.845 764.18 457.901 764.399 458.013 764.586C458.135 764.773 458.307 764.917 458.531 765.02C458.765 765.123 459.04 765.174 459.357 765.174ZM468.191 766.168C467.789 766.168 467.425 766.112 467.099 766C466.781 765.879 466.501 765.72 466.259 765.524C466.016 765.328 465.815 765.099 465.657 764.838L465.559 766H464.495V755.92H465.671V760.106C465.895 759.742 466.217 759.429 466.637 759.168C467.057 758.907 467.575 758.776 468.191 758.776C468.872 758.776 469.469 758.939 469.983 759.266C470.496 759.583 470.893 760.022 471.173 760.582C471.462 761.133 471.607 761.763 471.607 762.472C471.607 763.181 471.462 763.816 471.173 764.376C470.893 764.936 470.496 765.375 469.983 765.692C469.469 766.009 468.872 766.168 468.191 766.168ZM468.051 765.146C468.508 765.146 468.914 765.034 469.269 764.81C469.623 764.586 469.899 764.278 470.095 763.886C470.3 763.485 470.403 763.013 470.403 762.472C470.403 761.94 470.3 761.473 470.095 761.072C469.899 760.671 469.623 760.358 469.269 760.134C468.914 759.91 468.508 759.798 468.051 759.798C467.584 759.798 467.173 759.91 466.819 760.134C466.464 760.358 466.189 760.671 465.993 761.072C465.797 761.473 465.699 761.94 465.699 762.472C465.699 763.013 465.797 763.485 465.993 763.886C466.189 764.278 466.464 764.586 466.819 764.81C467.173 765.034 467.584 765.146 468.051 765.146ZM473.258 766V755.92H474.434V766H473.258ZM479.47 766.168C478.807 766.168 478.219 766.014 477.706 765.706C477.202 765.398 476.805 764.969 476.516 764.418C476.226 763.858 476.082 763.209 476.082 762.472C476.082 761.725 476.222 761.077 476.502 760.526C476.791 759.975 477.192 759.546 477.706 759.238C478.228 758.93 478.826 758.776 479.498 758.776C480.188 758.776 480.772 758.93 481.248 759.238C481.733 759.546 482.102 759.952 482.354 760.456C482.615 760.951 482.746 761.497 482.746 762.094C482.746 762.187 482.746 762.285 482.746 762.388C482.746 762.491 482.741 762.607 482.732 762.738H476.964V761.828H481.598C481.57 761.184 481.355 760.68 480.954 760.316C480.562 759.952 480.067 759.77 479.47 759.77C479.068 759.77 478.695 759.863 478.35 760.05C478.014 760.227 477.743 760.493 477.538 760.848C477.332 761.193 477.23 761.627 477.23 762.15V762.542C477.23 763.121 477.332 763.606 477.538 763.998C477.752 764.39 478.028 764.684 478.364 764.88C478.709 765.076 479.078 765.174 479.47 765.174C479.964 765.174 480.37 765.067 480.688 764.852C481.014 764.628 481.248 764.329 481.388 763.956H482.55C482.438 764.376 482.242 764.754 481.962 765.09C481.682 765.426 481.332 765.692 480.912 765.888C480.501 766.075 480.02 766.168 479.47 766.168ZM491.159 766.168C490.478 766.168 489.881 766.009 489.367 765.692C488.854 765.365 488.457 764.922 488.177 764.362C487.897 763.802 487.757 763.167 487.757 762.458C487.757 761.749 487.897 761.119 488.177 760.568C488.457 760.008 488.854 759.569 489.367 759.252C489.89 758.935 490.492 758.776 491.173 758.776C491.752 758.776 492.256 758.893 492.685 759.126C493.124 759.359 493.46 759.686 493.693 760.106V755.92H494.869V766H493.805L493.707 764.838C493.558 765.071 493.367 765.291 493.133 765.496C492.9 765.692 492.62 765.855 492.293 765.986C491.967 766.107 491.589 766.168 491.159 766.168ZM491.299 765.146C491.766 765.146 492.177 765.034 492.531 764.81C492.886 764.586 493.161 764.278 493.357 763.886C493.553 763.485 493.651 763.013 493.651 762.472C493.651 761.94 493.553 761.473 493.357 761.072C493.161 760.671 492.886 760.358 492.531 760.134C492.177 759.91 491.766 759.798 491.299 759.798C490.842 759.798 490.436 759.91 490.081 760.134C489.727 760.358 489.451 760.671 489.255 761.072C489.059 761.473 488.961 761.94 488.961 762.472C488.961 763.013 489.059 763.485 489.255 763.886C489.451 764.278 489.727 764.586 490.081 764.81C490.436 765.034 490.842 765.146 491.299 765.146ZM499.125 766.168C498.555 766.168 498.079 766.07 497.697 765.874C497.314 765.669 497.029 765.403 496.843 765.076C496.656 764.74 496.563 764.376 496.563 763.984C496.563 763.508 496.684 763.107 496.927 762.78C497.179 762.444 497.529 762.192 497.977 762.024C498.434 761.847 498.971 761.758 499.587 761.758H501.449C501.449 761.319 501.379 760.955 501.239 760.666C501.108 760.367 500.912 760.143 500.651 759.994C500.399 759.845 500.081 759.77 499.699 759.77C499.251 759.77 498.863 759.882 498.537 760.106C498.21 760.33 498.009 760.661 497.935 761.1H496.731C496.787 760.596 496.955 760.176 497.235 759.84C497.524 759.495 497.888 759.233 498.327 759.056C498.765 758.869 499.223 758.776 499.699 758.776C500.352 758.776 500.893 758.897 501.323 759.14C501.761 759.373 502.088 759.705 502.303 760.134C502.517 760.554 502.625 761.053 502.625 761.632V766H501.575L501.505 764.754C501.411 764.95 501.29 765.137 501.141 765.314C501.001 765.482 500.833 765.631 500.637 765.762C500.441 765.883 500.217 765.981 499.965 766.056C499.722 766.131 499.442 766.168 499.125 766.168ZM499.307 765.174C499.633 765.174 499.927 765.109 500.189 764.978C500.459 764.838 500.688 764.651 500.875 764.418C501.061 764.175 501.201 763.909 501.295 763.62C501.397 763.331 501.449 763.027 501.449 762.71V762.668H499.685C499.227 762.668 498.859 762.724 498.579 762.836C498.299 762.939 498.098 763.088 497.977 763.284C497.855 763.471 497.795 763.685 497.795 763.928C497.795 764.18 497.851 764.399 497.963 764.586C498.084 764.773 498.257 764.917 498.481 765.02C498.714 765.123 498.989 765.174 499.307 765.174ZM507.104 766.168C506.516 766.168 506.003 766.07 505.564 765.874C505.135 765.678 504.789 765.407 504.528 765.062C504.276 764.707 504.122 764.292 504.066 763.816H505.27C505.317 764.059 505.415 764.283 505.564 764.488C505.713 764.693 505.914 764.861 506.166 764.992C506.427 765.113 506.745 765.174 507.118 765.174C507.445 765.174 507.715 765.127 507.93 765.034C508.145 764.931 508.303 764.796 508.406 764.628C508.518 764.46 508.574 764.278 508.574 764.082C508.574 763.793 508.504 763.573 508.364 763.424C508.233 763.275 508.037 763.158 507.776 763.074C507.515 762.981 507.197 762.901 506.824 762.836C506.516 762.78 506.213 762.705 505.914 762.612C505.615 762.519 505.349 762.397 505.116 762.248C504.883 762.089 504.696 761.898 504.556 761.674C504.425 761.45 504.36 761.175 504.36 760.848C504.36 760.447 504.463 760.092 504.668 759.784C504.873 759.467 505.167 759.219 505.55 759.042C505.942 758.865 506.395 758.776 506.908 758.776C507.664 758.776 508.275 758.958 508.742 759.322C509.209 759.686 509.484 760.213 509.568 760.904H508.406C508.359 760.549 508.205 760.274 507.944 760.078C507.692 759.873 507.342 759.77 506.894 759.77C506.455 759.77 506.119 759.859 505.886 760.036C505.662 760.213 505.55 760.447 505.55 760.736C505.55 760.923 505.611 761.091 505.732 761.24C505.863 761.38 506.049 761.501 506.292 761.604C506.544 761.707 506.852 761.791 507.216 761.856C507.683 761.94 508.107 762.052 508.49 762.192C508.873 762.332 509.181 762.542 509.414 762.822C509.657 763.093 509.778 763.48 509.778 763.984C509.778 764.423 509.666 764.805 509.442 765.132C509.227 765.459 508.919 765.715 508.518 765.902C508.117 766.079 507.645 766.168 507.104 766.168ZM511.471 766V755.92H512.647V760.134C512.881 759.714 513.207 759.383 513.627 759.14C514.057 758.897 514.523 758.776 515.027 758.776C515.569 758.776 516.04 758.888 516.441 759.112C516.843 759.327 517.151 759.658 517.365 760.106C517.58 760.554 517.687 761.119 517.687 761.8V766H516.525V761.926C516.525 761.217 516.376 760.685 516.077 760.33C515.779 759.966 515.345 759.784 514.775 759.784C514.374 759.784 514.01 759.882 513.683 760.078C513.366 760.274 513.114 760.554 512.927 760.918C512.741 761.282 512.647 761.73 512.647 762.262V766H511.471ZM523.22 766.168C522.819 766.168 522.455 766.112 522.128 766C521.811 765.879 521.531 765.72 521.288 765.524C521.045 765.328 520.845 765.099 520.686 764.838L520.588 766H519.524V755.92H520.7V760.106C520.924 759.742 521.246 759.429 521.666 759.168C522.086 758.907 522.604 758.776 523.22 758.776C523.901 758.776 524.499 758.939 525.012 759.266C525.525 759.583 525.922 760.022 526.202 760.582C526.491 761.133 526.636 761.763 526.636 762.472C526.636 763.181 526.491 763.816 526.202 764.376C525.922 764.936 525.525 765.375 525.012 765.692C524.499 766.009 523.901 766.168 523.22 766.168ZM523.08 765.146C523.537 765.146 523.943 765.034 524.298 764.81C524.653 764.586 524.928 764.278 525.124 763.886C525.329 763.485 525.432 763.013 525.432 762.472C525.432 761.94 525.329 761.473 525.124 761.072C524.928 760.671 524.653 760.358 524.298 760.134C523.943 759.91 523.537 759.798 523.08 759.798C522.613 759.798 522.203 759.91 521.848 760.134C521.493 760.358 521.218 760.671 521.022 761.072C520.826 761.473 520.728 761.94 520.728 762.472C520.728 763.013 520.826 763.485 521.022 763.886C521.218 764.278 521.493 764.586 521.848 764.81C522.203 765.034 522.613 765.146 523.08 765.146ZM531.438 766.168C530.784 766.168 530.196 766.019 529.674 765.72C529.151 765.412 528.74 764.983 528.442 764.432C528.143 763.872 527.994 763.223 527.994 762.486C527.994 761.73 528.143 761.077 528.442 760.526C528.75 759.966 529.165 759.537 529.688 759.238C530.22 758.93 530.812 758.776 531.466 758.776C532.138 758.776 532.73 758.93 533.244 759.238C533.766 759.537 534.177 759.966 534.476 760.526C534.784 761.077 534.938 761.725 534.938 762.472C534.938 763.219 534.784 763.872 534.476 764.432C534.168 764.983 533.752 765.412 533.23 765.72C532.707 766.019 532.11 766.168 531.438 766.168ZM531.452 765.16C531.853 765.16 532.226 765.062 532.572 764.866C532.917 764.661 533.197 764.357 533.412 763.956C533.626 763.555 533.734 763.06 533.734 762.472C533.734 761.875 533.626 761.38 533.412 760.988C533.206 760.587 532.931 760.288 532.586 760.092C532.25 759.887 531.876 759.784 531.466 759.784C531.074 759.784 530.7 759.887 530.346 760.092C530 760.288 529.72 760.587 529.506 760.988C529.3 761.38 529.198 761.875 529.198 762.472C529.198 763.06 529.3 763.555 529.506 763.956C529.72 764.357 529.996 764.661 530.332 764.866C530.677 765.062 531.05 765.16 531.452 765.16ZM538.882 766.168C538.313 766.168 537.837 766.07 537.454 765.874C537.072 765.669 536.787 765.403 536.6 765.076C536.414 764.74 536.32 764.376 536.32 763.984C536.32 763.508 536.442 763.107 536.684 762.78C536.936 762.444 537.286 762.192 537.734 762.024C538.192 761.847 538.728 761.758 539.344 761.758H541.206C541.206 761.319 541.136 760.955 540.996 760.666C540.866 760.367 540.67 760.143 540.408 759.994C540.156 759.845 539.839 759.77 539.456 759.77C539.008 759.77 538.621 759.882 538.294 760.106C537.968 760.33 537.767 760.661 537.692 761.1H536.488C536.544 760.596 536.712 760.176 536.992 759.84C537.282 759.495 537.646 759.233 538.084 759.056C538.523 758.869 538.98 758.776 539.456 758.776C540.11 758.776 540.651 758.897 541.08 759.14C541.519 759.373 541.846 759.705 542.06 760.134C542.275 760.554 542.382 761.053 542.382 761.632V766H541.332L541.262 764.754C541.169 764.95 541.048 765.137 540.898 765.314C540.758 765.482 540.59 765.631 540.394 765.762C540.198 765.883 539.974 765.981 539.722 766.056C539.48 766.131 539.2 766.168 538.882 766.168ZM539.064 765.174C539.391 765.174 539.685 765.109 539.946 764.978C540.217 764.838 540.446 764.651 540.632 764.418C540.819 764.175 540.959 763.909 541.052 763.62C541.155 763.331 541.206 763.027 541.206 762.71V762.668H539.442C538.985 762.668 538.616 762.724 538.336 762.836C538.056 762.939 537.856 763.088 537.734 763.284C537.613 763.471 537.552 763.685 537.552 763.928C537.552 764.18 537.608 764.399 537.72 764.586C537.842 764.773 538.014 764.917 538.238 765.02C538.472 765.123 538.747 765.174 539.064 765.174ZM544.202 766V758.944H545.266L545.35 760.288C545.508 759.971 545.709 759.7 545.952 759.476C546.204 759.252 546.502 759.079 546.848 758.958C547.202 758.837 547.604 758.776 548.052 758.776V760.008H547.618C547.319 760.008 547.034 760.05 546.764 760.134C546.493 760.209 546.25 760.335 546.036 760.512C545.83 760.689 545.667 760.932 545.546 761.24C545.434 761.539 545.378 761.912 545.378 762.36V766H544.202ZM552.232 766.168C551.55 766.168 550.953 766.009 550.44 765.692C549.926 765.365 549.53 764.922 549.25 764.362C548.97 763.802 548.83 763.167 548.83 762.458C548.83 761.749 548.97 761.119 549.25 760.568C549.53 760.008 549.926 759.569 550.44 759.252C550.962 758.935 551.564 758.776 552.246 758.776C552.824 758.776 553.328 758.893 553.758 759.126C554.196 759.359 554.532 759.686 554.766 760.106V755.92H555.942V766H554.878L554.78 764.838C554.63 765.071 554.439 765.291 554.206 765.496C553.972 765.692 553.692 765.855 553.366 765.986C553.039 766.107 552.661 766.168 552.232 766.168ZM552.372 765.146C552.838 765.146 553.249 765.034 553.604 764.81C553.958 764.586 554.234 764.278 554.43 763.886C554.626 763.485 554.724 763.013 554.724 762.472C554.724 761.94 554.626 761.473 554.43 761.072C554.234 760.671 553.958 760.358 553.604 760.134C553.249 759.91 552.838 759.798 552.372 759.798C551.914 759.798 551.508 759.91 551.154 760.134C550.799 760.358 550.524 760.671 550.328 761.072C550.132 761.473 550.034 761.94 550.034 762.472C550.034 763.013 550.132 763.485 550.328 763.886C550.524 764.278 550.799 764.586 551.154 764.81C551.508 765.034 551.914 765.146 552.372 765.146ZM558.321 766.07C558.088 766.07 557.892 765.995 557.733 765.846C557.584 765.687 557.509 765.496 557.509 765.272C557.509 765.048 557.584 764.861 557.733 764.712C557.892 764.553 558.088 764.474 558.321 764.474C558.554 764.474 558.746 764.553 558.895 764.712C559.044 764.861 559.119 765.048 559.119 765.272C559.119 765.496 559.044 765.687 558.895 765.846C558.746 765.995 558.554 766.07 558.321 766.07Z" fill="#BA8D77"/>
<g clip-path="url(#clip1_18_777)">
<path d="M79.4 69.47H71.95L77.21 64.21L72.67 59.66L67.41 64.92V57.48H60.98V64.92L55.72 59.66L51.18 64.21L56.44 69.47H49V75.9H56.43L51.18 81.15L55.72 85.7L60.98 80.44V87.88H67.41V80.44L72.67 85.7L77.21 81.15L71.95 75.9H79.4V69.47Z" fill="#8DACE5"/>
<path d="M79.4 118.25C79.4 109.86 72.59 103.06 64.2 103.06C55.81 103.06 49 109.86 49 118.25H79.39H79.4Z" fill="#EBDBA0"/>
<path d="M79.4 87.89C79.4 96.28 72.59 103.08 64.2 103.08C55.81 103.08 49 96.27 49 87.89H79.39H79.4Z" fill="#E8A68E"/>
<path d="M118.23 103.06C118.23 111.45 111.42 118.25 103.03 118.25C94.64 118.25 87.84 111.45 87.83 103.06H118.22H118.23Z" fill="#C0D9CB"/>
<path d="M103.03 103.04L87.77 87.78L103.03 72.52V103.04Z" fill="#E8A68E"/>
<path d="M118.294 57.2554L103.035 41.9961L87.7752 57.2554L103.035 72.5148L118.294 57.2554Z" fill="#BA8D77"/>
<path d="M103.03 72.52V103.04L118.29 87.78L103.03 72.52Z" fill="#133F32"/>
<path d="M136.9 116.86C136.42 117.25 135.84 117.55 135.15 117.74C134.46 117.94 133.74 118.03 132.98 118.03C131.06 118.03 129.58 117.53 128.53 116.53C127.48 115.53 126.96 114.07 126.96 112.15V93.56H131.05V100.48H135.72V103.75H131.05V112.05C131.05 112.9 131.26 113.55 131.69 113.99C132.12 114.43 132.71 114.66 133.47 114.66C134.38 114.66 135.15 114.42 135.76 113.94L136.9 116.85V116.86Z" fill="#1D1D1B"/>
<path d="M142.41 119.67C141 118.91 139.89 117.85 139.09 116.48C138.29 115.12 137.9 113.58 137.9 111.85C137.9 110.12 138.3 108.59 139.09 107.24C139.88 105.89 140.99 104.83 142.41 104.07C143.83 103.31 145.42 102.93 147.18 102.93C148.94 102.93 150.57 103.31 151.98 104.07C153.39 104.83 154.5 105.89 155.3 107.24C156.09 108.59 156.49 110.13 156.49 111.85C156.49 113.57 156.09 115.11 155.3 116.48C154.5 117.84 153.4 118.9 151.98 119.67C150.56 120.44 148.96 120.81 147.18 120.81C145.4 120.81 143.82 120.43 142.41 119.67ZM150.91 115.82C151.89 114.82 152.38 113.5 152.38 111.87C152.38 110.24 151.89 108.92 150.91 107.91C149.93 106.91 148.69 106.41 147.18 106.41C145.67 106.41 144.44 106.91 143.47 107.91C142.5 108.91 142.01 110.23 142.01 111.87C142.01 113.51 142.49 114.82 143.47 115.82C144.44 116.82 145.67 117.32 147.18 117.32C148.69 117.32 149.93 116.82 150.91 115.82Z" fill="#1D1D1B"/>
<path d="M162.57 114.11C161.16 113.35 160.05 112.29 159.25 110.92C158.45 109.56 158.06 108.02 158.06 106.29C158.06 104.56 158.46 103.03 159.25 101.68C160.04 100.33 161.15 99.27 162.57 98.51C163.99 97.75 165.58 97.37 167.34 97.37C169.1 97.37 170.73 97.75 172.14 98.51C173.55 99.27 174.66 100.33 175.46 101.68C176.25 103.03 176.65 104.57 176.65 106.29C176.65 108.01 176.25 109.55 175.46 110.92C174.66 112.28 173.56 113.34 172.14 114.11C170.72 114.88 169.12 115.25 167.34 115.25C165.56 115.25 163.98 114.87 162.57 114.11ZM171.07 110.25C172.05 109.25 172.54 107.93 172.54 106.3C172.54 104.67 172.05 103.35 171.07 102.34C170.09 101.34 168.85 100.84 167.34 100.84C165.83 100.84 164.6 101.34 163.63 102.34C162.66 103.34 162.17 104.66 162.17 106.3C162.17 107.94 162.65 109.25 163.63 110.25C164.6 111.25 165.83 111.75 167.34 111.75C168.85 111.75 170.09 111.25 171.07 110.25Z" fill="#1D1D1B"/>
<path d="M180.24 115.62C179.23 114.63 178.72 113.23 178.72 111.42V92.62H182.81V111.12C182.81 112.86 183.63 113.73 185.26 113.73C185.8 113.73 186.29 113.62 186.73 113.4L186.92 116.67C186.16 116.95 185.34 117.1 184.47 117.1C182.66 117.1 181.25 116.6 180.24 115.61V115.62Z" fill="#1D1D1B"/>
<path d="M203.02 104.98C204.36 105.72 205.41 106.77 206.17 108.12C206.93 109.47 207.31 111.03 207.31 112.79C207.31 114.55 206.93 116.12 206.17 117.48C205.41 118.84 204.36 119.89 203.02 120.63C201.68 121.37 200.16 121.74 198.46 121.74C197.26 121.74 196.17 121.53 195.18 121.12C194.19 120.71 193.36 120.09 192.68 119.26V121.51H188.79V97.26H192.88V106.18C193.58 105.42 194.4 104.84 195.35 104.45C196.3 104.06 197.34 103.86 198.47 103.86C200.17 103.86 201.69 104.23 203.03 104.97L203.02 104.98ZM201.71 116.74C202.68 115.74 203.17 114.42 203.17 112.79C203.17 111.16 202.68 109.84 201.71 108.83C200.74 107.83 199.5 107.33 198 107.33C197.02 107.33 196.14 107.55 195.35 108C194.57 108.45 193.95 109.08 193.49 109.91C193.03 110.74 192.8 111.7 192.8 112.79C192.8 113.88 193.03 114.84 193.49 115.67C193.95 116.5 194.57 117.14 195.35 117.58C196.14 118.03 197.02 118.25 198 118.25C199.5 118.25 200.74 117.75 201.71 116.75V116.74Z" fill="#1D1D1B"/>
<path d="M213.35 115.5C211.94 114.74 210.83 113.68 210.03 112.31C209.23 110.95 208.84 109.41 208.84 107.68C208.84 105.95 209.24 104.42 210.03 103.07C210.82 101.72 211.93 100.66 213.35 99.9C214.77 99.14 216.36 98.76 218.12 98.76C219.88 98.76 221.51 99.14 222.92 99.9C224.34 100.66 225.44 101.72 226.24 103.07C227.03 104.42 227.43 105.96 227.43 107.68C227.43 109.4 227.03 110.94 226.24 112.31C225.44 113.67 224.34 114.73 222.92 115.5C221.5 116.26 219.9 116.64 218.12 116.64C216.34 116.64 214.76 116.26 213.35 115.5ZM221.85 111.64C222.83 110.64 223.32 109.32 223.32 107.69C223.32 106.06 222.83 104.74 221.85 103.73C220.87 102.73 219.63 102.23 218.12 102.23C216.61 102.23 215.38 102.73 214.41 103.73C213.44 104.73 212.95 106.05 212.95 107.69C212.95 109.33 213.43 110.64 214.41 111.64C215.38 112.64 216.61 113.14 218.12 113.14C219.63 113.14 220.87 112.64 221.85 111.64Z" fill="#1D1D1B"/>
<path d="M240.16 118.23L235.68 112.18L231.17 118.23H226.66L233.46 109.37L226.96 100.77H231.5L235.78 106.49L240.06 100.77H244.47L237.93 109.3L244.76 118.22H240.15L240.16 118.23Z" fill="#1D1D1B"/>
<path d="M140.88 74.25C142.16 75.5 142.79 77.33 142.79 79.73V89.7H140.47V79.96C140.47 78.17 140.02 76.81 139.13 75.87C138.24 74.93 136.96 74.46 135.31 74.46C133.46 74.46 131.99 75.01 130.91 76.11C129.83 77.21 129.29 78.73 129.29 80.67V89.69H126.97V72.5H129.19V75.67C129.82 74.62 130.7 73.81 131.82 73.23C132.94 72.65 134.24 72.36 135.73 72.36C137.89 72.36 139.6 72.99 140.88 74.24V74.25Z" fill="#1D1D1B"/>
<path d="M163.91 72.5V89.69H161.69V86.55C161.08 87.6 160.24 88.41 159.17 88.99C158.1 89.57 156.88 89.86 155.51 89.86C153.27 89.86 151.49 89.23 150.2 87.98C148.9 86.73 148.25 84.89 148.25 82.47V72.5H150.57V82.24C150.57 84.05 151.02 85.42 151.91 86.36C152.8 87.3 154.08 87.77 155.73 87.77C157.54 87.77 158.97 87.22 160.01 86.12C161.06 85.02 161.58 83.49 161.58 81.53V72.51H163.9L163.91 72.5Z" fill="#1D1D1B"/>
<path d="M174.38 73.25C175.46 72.66 176.79 72.37 178.38 72.37V74.63L177.82 74.6C176.01 74.6 174.59 75.16 173.57 76.27C172.54 77.38 172.03 78.94 172.03 80.94V89.7H169.71V72.51H171.93V75.88C172.47 74.73 173.29 73.85 174.37 73.26L174.38 73.25Z" fill="#1D1D1B"/>
<path d="M182.75 89.26C181.47 88.86 180.48 88.35 179.76 87.74L180.81 85.91C181.53 86.48 182.43 86.94 183.52 87.3C184.61 87.66 185.74 87.84 186.92 87.84C188.49 87.84 189.65 87.6 190.4 87.11C191.15 86.62 191.53 85.93 191.53 85.03C191.53 84.4 191.32 83.9 190.91 83.54C190.5 83.18 189.97 82.91 189.34 82.72C188.71 82.53 187.87 82.36 186.82 82.18C185.42 81.92 184.3 81.65 183.45 81.38C182.6 81.11 181.88 80.64 181.28 79.99C180.68 79.34 180.38 78.43 180.38 77.28C180.38 75.84 180.98 74.66 182.18 73.75C183.38 72.83 185.05 72.38 187.18 72.38C188.29 72.38 189.4 72.53 190.51 72.82C191.62 73.11 192.54 73.5 193.26 73.98L192.25 75.84C190.83 74.86 189.14 74.37 187.18 74.37C185.7 74.37 184.58 74.63 183.83 75.15C183.08 75.67 182.7 76.36 182.7 77.21C182.7 77.86 182.91 78.39 183.34 78.78C183.77 79.17 184.29 79.46 184.93 79.65C185.56 79.84 186.43 80.03 187.55 80.22C188.92 80.48 190.02 80.74 190.85 81C191.68 81.26 192.39 81.71 192.97 82.34C193.55 82.97 193.85 83.84 193.85 84.95C193.85 86.45 193.22 87.65 191.97 88.53C190.72 89.41 188.98 89.85 186.76 89.85C185.36 89.85 184.03 89.65 182.76 89.24L182.75 89.26Z" fill="#1D1D1B"/>
<path d="M207.76 87.23C208.66 86.85 209.43 86.29 210.06 85.55L211.37 87.05C210.61 87.96 209.66 88.66 208.53 89.14C207.4 89.62 206.14 89.86 204.77 89.86C203 89.86 201.44 89.48 200.06 88.73C198.69 87.98 197.62 86.94 196.86 85.61C196.1 84.28 195.72 82.78 195.72 81.1C195.72 79.42 196.08 77.92 196.82 76.59C197.55 75.26 198.56 74.23 199.84 73.48C201.12 72.74 202.59 72.37 204.22 72.37C205.75 72.37 207.12 72.72 208.36 73.42C209.59 74.12 210.57 75.09 211.3 76.33C212.03 77.57 212.42 78.99 212.46 80.58L198.34 83.33C198.78 84.73 199.57 85.82 200.71 86.62C201.85 87.42 203.22 87.81 204.81 87.81C205.88 87.81 206.86 87.62 207.77 87.24L207.76 87.23ZM200.99 75.2C200.04 75.76 199.3 76.53 198.77 77.52C198.24 78.51 197.97 79.65 197.97 80.94C197.97 81.27 197.98 81.51 198 81.66L210.13 79.31C209.87 77.87 209.2 76.69 208.14 75.76C207.07 74.83 205.76 74.37 204.22 74.37C203.02 74.37 201.95 74.65 201 75.2H200.99Z" fill="#1D1D1B"/>
<path d="M221.16 73.25C222.24 72.66 223.57 72.37 225.16 72.37V74.63L224.6 74.6C222.79 74.6 221.37 75.16 220.35 76.27C219.32 77.38 218.81 78.94 218.81 80.94V89.7H216.49V72.51H218.71V75.88C219.25 74.73 220.07 73.85 221.15 73.26L221.16 73.25Z" fill="#1D1D1B"/>
<path d="M244.42 72.5V87.6C244.42 90.52 243.75 92.68 242.43 94.09C241.1 95.5 239.1 96.2 236.42 96.2C234.92 96.2 233.49 95.97 232.15 95.5C230.81 95.03 229.73 94.38 228.9 93.55L230.08 91.78C230.82 92.52 231.74 93.1 232.83 93.51C233.92 93.92 235.09 94.13 236.33 94.13C238.31 94.13 239.77 93.62 240.71 92.61C241.65 91.6 242.12 90.02 242.12 87.89V85.9C241.51 86.9 240.68 87.68 239.62 88.22C238.56 88.76 237.37 89.04 236.04 89.04C233.79 89.04 232.02 88.41 230.73 87.16C229.43 85.91 228.78 84.07 228.78 81.65V72.5H231.1V81.42C231.1 83.23 231.55 84.6 232.44 85.54C233.33 86.48 234.61 86.95 236.26 86.95C238.07 86.95 239.5 86.4 240.54 85.3C241.59 84.2 242.11 82.67 242.11 80.71V72.51H244.43L244.42 72.5Z" fill="#1D1D1B"/>
<path d="M131.19 67.29C130.98 67.48 130.72 67.63 130.41 67.73C130.1 67.83 129.78 67.88 129.44 67.88C128.65 67.88 128.05 67.67 127.63 67.24C127.21 66.82 126.99 66.22 126.99 65.44V57.59H128.12V59.42H130.65V60.37H128.12V65.37C128.12 65.87 128.24 66.25 128.49 66.51C128.73 66.77 129.09 66.9 129.56 66.9C130.07 66.9 130.48 66.76 130.8 66.47L131.2 67.28L131.19 67.29Z" fill="#1D1D1B"/>
<path d="M139.68 60.28C140.3 60.89 140.61 61.78 140.61 62.95V67.8H139.48V63.06C139.48 62.19 139.26 61.53 138.83 61.07C138.39 60.61 137.77 60.39 136.97 60.39C136.07 60.39 135.35 60.66 134.83 61.19C134.31 61.73 134.04 62.47 134.04 63.41V67.8H132.91V55.99H134.04V60.89C134.35 60.4 134.77 60.03 135.31 59.76C135.85 59.49 136.47 59.36 137.17 59.36C138.22 59.36 139.06 59.67 139.68 60.28Z" fill="#1D1D1B"/>
<path d="M148.37 66.6C148.81 66.41 149.18 66.14 149.49 65.78L150.13 66.51C149.76 66.96 149.3 67.3 148.75 67.53C148.2 67.76 147.59 67.88 146.92 67.88C146.06 67.88 145.3 67.7 144.63 67.33C143.96 66.96 143.44 66.46 143.07 65.81C142.7 65.16 142.51 64.43 142.51 63.61C142.51 62.79 142.69 62.06 143.04 61.41C143.4 60.76 143.89 60.26 144.51 59.9C145.14 59.54 145.85 59.36 146.64 59.36C147.38 59.36 148.05 59.53 148.65 59.87C149.25 60.21 149.73 60.68 150.08 61.29C150.44 61.9 150.62 62.58 150.65 63.36L143.77 64.7C143.98 65.38 144.37 65.91 144.92 66.3C145.48 66.69 146.14 66.88 146.92 66.88C147.44 66.88 147.92 66.79 148.36 66.6H148.37ZM145.07 60.74C144.61 61.01 144.25 61.39 143.99 61.87C143.73 62.35 143.6 62.91 143.6 63.53C143.6 63.69 143.6 63.81 143.62 63.88L149.52 62.73C149.39 62.03 149.07 61.45 148.55 61C148.03 60.55 147.39 60.32 146.64 60.32C146.06 60.32 145.53 60.46 145.07 60.73V60.74Z" fill="#1D1D1B"/>
</g>
<g clip-path="url(#clip2_18_777)">
<mask id="mask0_18_777" style="mask-type:luminance" maskUnits="userSpaceOnUse" x="229" y="257" width="458" height="429">
<path d="M687 257H229V686H687V257Z" fill="white"/>
</mask>
<g mask="url(#mask0_18_777)">
<path d="M487.447 432.032C487.447 432.032 553.773 427.268 566.051 452.208C579.614 479.734 539.136 506.577 551.478 541.956C562.982 574.938 612.85 565.738 651.195 578.008C689.55 590.277 688.02 626.329 659.639 647.816" stroke="#232020" stroke-width="13.6"/>
<path d="M492.056 414.735C492.001 487.331 433.153 546.164 360.542 546.164C287.93 546.164 229.082 487.34 229.027 414.735H492.056Z" fill="#E0BBAD"/>
<path d="M466.762 414.735C466.717 473.376 419.181 520.887 360.532 520.887C301.884 520.887 254.357 473.376 254.312 414.735H466.762Z" fill="#232020"/>
<path d="M629.764 621.839L680.515 680.38" stroke="#B6D9CB" stroke-width="18.86"/>
<path d="M459.002 526.334C459.002 536.417 450.832 544.597 440.74 544.597C430.648 544.597 422.478 536.417 422.478 526.334C422.478 516.251 430.657 508.071 440.74 508.071C450.823 508.071 459.002 516.242 459.002 526.334ZM298.369 526.188C298.369 536.272 290.189 544.451 280.107 544.451C270.024 544.451 261.844 536.272 261.844 526.188C261.844 516.105 270.024 507.926 280.107 507.926C290.189 507.926 298.369 516.105 298.369 526.188Z" stroke="#CA8E78" stroke-width="28.06" stroke-miterlimit="10"/>
</g>
<path d="M347.954 257V341.856L305.528 268.368L283.896 280.846L326.313 354.326L252.845 311.907L240.376 333.54L313.843 375.959H229V400.935H491.892V375.959H407.048L480.516 333.54L468.046 311.907L394.552 354.344L436.978 280.846L415.346 268.368L372.929 341.829V257H347.954Z" fill="#F5A68E"/>
</g>
<path d="M163.47 576.58C163.47 601.43 143.32 621.58 118.48 621.58C93.64 621.58 73.47 601.43 73.47 576.58C73.47 551.73 93.62 531.58 118.47 531.58C143.32 531.58 163.46 551.73 163.46 576.58" fill="#BA8E78"/>
<path d="M118 643.92C118 656.35 107.93 666.42 95.5 666.42C83.07 666.42 73 656.35 73 643.92C73 631.49 83.07 621.42 95.5 621.42C107.93 621.42 118 631.49 118 643.92Z" fill="#143F32"/>
<path d="M163.46 486.66C163.44 511.49 143.31 531.62 118.47 531.62C93.63 531.62 73.49 511.49 73.48 486.66H163.46Z" fill="#8FABDA"/>
<path d="M163 621.43H118V666.42H163V621.43Z" fill="#E8A68F"/>
<path d="M118.47 423L86.65 454.81L118.47 486.63L150.28 454.81L118.47 423Z" fill="#EBDBA0"/>
<path d="M-15.2543 686.4C-15.2543 686.4 58.8 681.17 72.5084 708.55C87.6508 738.77 42.4576 768.24 56.2372 807.08C69.0813 843.29 124.759 833.19 167.573 846.66C210.397 860.13 208.688 899.71 177 923.3" stroke="#232020" stroke-width="13.6"/>
<path d="M639 177.48H616.98L632.55 161.9L619.1 148.45L603.53 164.02V142H584.5V164.02L568.93 148.45L555.48 161.9L571.05 177.48H549.03V196.52H639V177.48Z" fill="#C1D9CB"/>
<path d="M638.99 196.54H549V286.53H638.99V196.54Z" fill="#143F32"/>
</g>
<defs>
<linearGradient id="paint0_linear_18_777" x1="353.473" y1="113.006" x2="354" y2="650" gradientUnits="userSpaceOnUse">
<stop stop-color="#C0D9CB"/>
<stop offset="1" stop-color="white" stop-opacity="0"/>
</linearGradient>
<linearGradient id="paint1_linear_18_777" x1="353.5" y1="127.171" x2="353.5" y2="576.746" gradientUnits="userSpaceOnUse">
<stop stop-color="#C0D9CB"/>
<stop offset="0.567308" stop-color="#C0D9CB" stop-opacity="0"/>
</linearGradient>
<clipPath id="clip0_18_777">
<rect width="720" height="900" fill="white"/>
</clipPath>
<clipPath id="clip1_18_777">
<rect width="195.77" height="79.75" fill="white" transform="translate(49 42)"/>
</clipPath>
<clipPath id="clip2_18_777">
<rect width="458" height="429" fill="white" transform="translate(229 257)"/>
</clipPath>
</defs>
</svg>
