<svg width="20" height="21" viewBox="0 0 20 21" fill="none" xmlns="http://www.w3.org/2000/svg">
<path d="M0.0245884 11.4833C-0.0386021 8.36523 -0.144151 5.62149 2.05085 3.16386C4.44513 0.483316 7.29842 0.472206 10.6607 0.506233C13.5994 0.536094 15.927 0.886787 17.9699 3.18539C19.7462 5.18468 19.9594 7.21454 19.99 9.79369C20.0261 12.8117 20.0761 15.4319 17.9699 17.8089C15.5423 20.5478 12.5918 20.5409 9.16983 20.4874C6.28599 20.4423 4.02919 20.0638 2.03071 17.8082C0.304431 15.861 0.0752796 13.9951 0.0245884 11.4833ZM11.3183 7.94717L5.7506 13.1534C5.13467 14.0555 6.13183 15.0819 7.0651 14.511L12.6571 9.34925C12.7057 9.83536 12.6654 10.3291 12.6765 10.8173C12.689 11.3666 12.6772 11.9694 12.7189 12.5173C12.771 13.2006 13.2154 13.7048 13.9452 13.5277C14.9181 13.2916 14.6028 12.0104 14.5889 11.2847C14.5646 10.0069 14.6313 8.5437 14.5049 7.28815C14.4577 6.81454 14.0417 6.36176 13.5813 6.25621L8.23378 5.69232C7.03802 5.68816 6.82692 7.36245 8.02685 7.60273L11.3169 7.94717L11.3183 7.94717Z" fill="#6E8780"/>
</svg>
