<svg width="20" height="21" viewBox="0 0 20 21" fill="none" xmlns="http://www.w3.org/2000/svg">
<path d="M9.01673 0.524589C12.1348 0.461398 14.8785 0.35585 17.3361 2.55085C20.0167 4.94513 20.0278 7.79842 19.9938 11.1607C19.9639 14.0994 19.6132 16.427 17.3146 18.4699C15.3153 20.2462 13.2855 20.4594 10.7063 20.49C7.68826 20.5261 5.06813 20.5761 2.69106 18.4699C-0.047817 16.0423 -0.0408728 13.0918 0.0125992 9.66983C0.0577379 6.78599 0.436209 4.52919 2.69175 2.53071C4.63897 0.804432 6.50493 0.57528 9.01673 0.524589ZM12.5528 11.8183L7.3466 6.25061C6.44452 5.63467 5.41813 6.63183 5.98896 7.5651L11.1507 13.1571C10.6646 13.2057 10.1709 13.1654 9.6827 13.1765C9.13339 13.189 8.53062 13.1772 7.9827 13.2189C7.29937 13.271 6.79521 13.7154 6.97229 14.4452C7.2084 15.4181 8.48965 15.1028 9.21534 15.0889C10.4931 15.0646 11.9563 15.1313 13.2119 15.0049C13.6855 14.9577 14.1382 14.5417 14.2438 14.0813L14.8077 8.73378C14.8118 7.53802 13.1375 7.32692 12.8973 8.52685L12.5528 11.8169V11.8183Z" fill="#6E8780"/>
</svg>
