<svg width="15" height="14" viewBox="0 0 15 14" fill="none" xmlns="http://www.w3.org/2000/svg">
<path d="M7.93555 3.81818C8.287 3.81818 8.57191 4.10309 8.57191 4.45455V6.36364H10.481C10.8325 6.36364 11.1174 6.64855 11.1174 7C11.1174 7.35145 10.8325 7.63636 10.481 7.63636H8.57191V9.54545C8.57191 9.89691 8.287 10.1818 7.93555 10.1818C7.58409 10.1818 7.29918 9.89691 7.29918 9.54545V7.63636H5.39009C5.03864 7.63636 4.75373 7.35145 4.75373 7C4.75373 6.64855 5.03864 6.36364 5.39009 6.36364H7.29918V4.45455C7.29918 4.10309 7.58409 3.81818 7.93555 3.81818Z" fill="white"/>
<path fill-rule="evenodd" clip-rule="evenodd" d="M7.93555 0C11.8015 0 14.9355 3.13401 14.9355 7C14.9355 10.866 11.8015 14 7.93555 14C4.06955 14 0.935547 10.866 0.935547 7C0.935547 3.13401 4.06955 0 7.93555 0ZM7.93555 1.27273C4.77246 1.27273 2.20827 3.83691 2.20827 7C2.20827 10.1631 4.77246 12.7273 7.93555 12.7273C11.0986 12.7273 13.6628 10.1631 13.6628 7C13.6628 3.83691 11.0986 1.27273 7.93555 1.27273Z" fill="white"/>
</svg>
