<svg width="15" height="16" viewBox="0 0 15 16" fill="none" xmlns="http://www.w3.org/2000/svg">
<g clip-path="url(#clip0_205_4482)">
<path d="M0 8.46875C0 8.15615 0 7.84385 0 7.53125C0.0328125 7.28047 0.0574219 7.02852 0.0996094 6.77949C0.364746 5.21943 1.04941 3.86943 2.16064 2.74326C3.28242 1.60596 4.63242 0.892285 6.2083 0.615137C6.48105 0.56709 6.75674 0.537793 7.03125 0.5C7.34385 0.5 7.65615 0.5 7.96875 0.5C8.22422 0.533398 8.48115 0.558008 8.73457 0.601367C10.1432 0.842188 11.3897 1.43076 12.457 2.38057C13.7619 3.54189 14.5781 4.98418 14.8849 6.70772C14.9335 6.98047 14.9622 7.25645 15 7.53125V8.46875C14.9918 8.50654 14.9786 8.54375 14.9757 8.58184C14.8884 9.72881 14.5617 10.804 13.9664 11.7869C12.777 13.7507 11.0528 14.9592 8.79111 15.3852C8.51924 15.4364 8.24297 15.4622 7.96846 15.5H7.03096C6.84785 15.4774 6.66445 15.4578 6.48223 15.4317C4.98955 15.2179 3.67061 14.6202 2.54326 13.6188C1.24131 12.4619 0.428027 11.0231 0.116895 9.30664C0.0665039 9.02949 0.0383789 8.74824 0 8.46875ZM6.87744 8.62256C6.87744 8.70811 6.87744 8.76641 6.87744 8.82471C6.87744 9.63008 6.8792 10.4354 6.87656 11.2408C6.87568 11.53 6.99668 11.7424 7.26152 11.8569C7.6708 12.0339 8.11641 11.7351 8.11992 11.2766C8.12637 10.4519 8.12197 9.62685 8.12226 8.80186C8.12226 8.7459 8.12226 8.68965 8.12226 8.62256C8.20518 8.62256 8.26318 8.62256 8.32119 8.62256C9.13154 8.62256 9.9416 8.62373 10.752 8.62168C11.0443 8.6208 11.2661 8.47432 11.3625 8.22822C11.5254 7.81309 11.2269 7.38184 10.7651 7.37891C9.94512 7.37393 9.1251 7.37744 8.30508 7.37744C8.24854 7.37744 8.19228 7.37744 8.12226 7.37744C8.12226 7.29746 8.12226 7.23975 8.12226 7.18203C8.12226 6.37168 8.12139 5.56162 8.12256 4.75127C8.12314 4.46855 8.00244 4.26025 7.74404 4.1457C7.33008 3.9623 6.88184 4.26348 6.87891 4.73047C6.87363 5.55049 6.87715 6.37051 6.87715 7.19053C6.87715 7.24736 6.87715 7.3042 6.87715 7.37744C6.8001 7.37744 6.74297 7.37744 6.68584 7.37744C5.87549 7.37744 5.06543 7.37891 4.25508 7.37686C3.96563 7.37598 3.7541 7.49961 3.64131 7.76504C3.4667 8.1752 3.76729 8.61728 4.22666 8.62051C5.04668 8.62666 5.8667 8.62256 6.68672 8.62256C6.74385 8.62256 6.80098 8.62256 6.87744 8.62256Z" fill="white"/>
</g>
<defs>
<clipPath id="clip0_205_4482">
<rect width="15" height="15" fill="white" transform="translate(0 0.5)"/>
</clipPath>
</defs>
</svg>
