<svg width="15" height="14" viewBox="0 0 15 14" fill="none" xmlns="http://www.w3.org/2000/svg">
<path d="M8.77353 1.8165C9.80694 2.84992 10.8144 3.85682 11.8594 4.90128C11.8235 4.92393 11.7622 4.94878 11.7197 4.99131C9.82849 6.87919 7.93343 8.76431 6.05329 10.6632C5.70311 11.0167 5.32862 11.231 4.82158 11.2487C4.29576 11.2669 3.77104 11.3327 3.24743 11.3895C2.60893 11.4591 2.20849 10.9427 2.28582 10.3644C2.36425 9.77618 2.40733 9.18242 2.45538 8.59032C2.48134 8.26941 2.61335 8.01037 2.83926 7.78557C3.82075 6.80794 4.79949 5.82755 5.77933 4.84771C6.74812 3.87891 7.71691 2.91067 8.6846 1.94133C8.72437 1.90156 8.75144 1.84909 8.77463 1.81595L8.77353 1.8165Z" fill="#7F958F"/>
<path d="M7.88317 13.9999C5.70145 13.9999 3.52028 13.9999 1.33857 13.9999C1.0033 13.9999 0.782918 13.8038 0.781261 13.51C0.779604 13.2553 0.96077 13.0499 1.22258 13.0145C1.28388 13.0062 1.3463 13.0079 1.40816 13.0079C5.72962 13.0079 10.0516 13.0079 14.3731 13.0084C14.4604 13.0084 14.5504 13.0112 14.6343 13.0311C14.8691 13.0869 15.0188 13.3089 14.9983 13.5558C14.979 13.7872 14.7879 13.9767 14.552 13.996C14.4902 14.001 14.4283 13.9999 14.3659 13.9999C12.2052 13.9999 10.0444 13.9999 7.88317 13.9999Z" fill="#7F958F"/>
<path d="M9.50316 1.07693C9.84064 0.789712 10.1383 0.469911 10.4963 0.246768C11.1701 -0.173558 12.0859 -0.0382358 12.6592 0.510784C12.842 0.685874 13.0232 0.863173 13.1939 1.04931C13.8451 1.75795 13.8456 2.80407 13.1916 3.50775C12.9923 3.7226 12.7724 3.91923 12.5432 4.14238C11.5429 3.13382 10.541 2.12305 9.50316 1.07693Z" fill="#7F958F"/>
</svg>
