<svg width="17" height="16" viewBox="0 0 17 16" fill="none" xmlns="http://www.w3.org/2000/svg">
<path fill-rule="evenodd" clip-rule="evenodd" d="M14.6783 3.63931C14.8775 3.83054 14.884 4.14706 14.6927 4.34627L11.3327 7.84627C11.2384 7.94448 11.1082 8 10.972 8C10.8359 8 10.7056 7.94448 10.6113 7.84627L8.57203 5.72199L6.15538 8.23933L7.87716 9.89223L2.33203 11.5L3.71223 5.8939L5.434 7.5468L8.21134 4.65373C8.30562 4.55552 8.43588 4.5 8.57203 4.5C8.70818 4.5 8.83844 4.55552 8.93273 4.65373L10.972 6.77801L13.9713 3.65373C14.1626 3.45453 14.4791 3.44807 14.6783 3.63931Z" fill="black"/>
</svg>
