<svg width="17" height="16" viewBox="0 0 17 16" fill="none" xmlns="http://www.w3.org/2000/svg">
<path fill-rule="evenodd" clip-rule="evenodd" d="M9.12089 5.60777L14.666 4L13.2858 9.6061L11.5641 7.9532L8.78671 10.8463C8.69242 10.9445 8.56216 11 8.42602 11C8.28987 11 8.15961 10.9445 8.06532 10.8463L6.02602 8.72199L3.02671 11.8463C2.83547 12.0455 2.51896 12.0519 2.31975 11.8607C2.12054 11.6695 2.11409 11.3529 2.30532 11.1537L5.66532 7.65373C5.75961 7.55552 5.88987 7.5 6.02602 7.5C6.16216 7.5 6.29242 7.55552 6.38671 7.65373L8.42602 9.77801L10.8427 7.26067L9.12089 5.60777Z" fill="black"/>
</svg>
