<svg width="24" height="24" viewBox="0 0 24 24" fill="none" xmlns="http://www.w3.org/2000/svg">
<path d="M10.9394 0.439587C11.5252 -0.146203 12.4747 -0.146203 13.0605 0.439587C13.6463 1.02538 13.6463 1.9749 13.0605 2.56069L5.12101 10.5002H22.5C23.3285 10.5002 24 11.1718 24 12.0002C24 12.8286 23.3285 13.5002 22.5 13.5002H5.12101L13.0605 21.4397L13.1631 21.554C13.6436 22.1431 13.6097 23.0117 13.0605 23.5608C12.5113 24.11 11.6428 24.1439 11.0537 23.6634L10.9394 23.5608L0.439343 13.0608C-0.146448 12.475 -0.146448 11.5254 0.439343 10.9397L10.9394 0.439587Z" fill="#C0D9CB"/>
</svg>
