<svg width="19" height="19" viewBox="0 0 19 19" fill="none" xmlns="http://www.w3.org/2000/svg">
<g clip-path="url(#clip0_118_345)">
<path d="M8.88662 9.93186C8.37842 10.3708 8.21743 10.878 8.20777 11.4752C8.18845 12.6467 8.32261 13.7849 8.78949 14.8695C9.37443 16.2288 10.2867 17.3144 11.5215 18.1301C11.6863 18.2391 11.8494 18.3501 12.0034 18.4999H11.8135C8.79324 18.4999 5.77303 18.5004 2.75282 18.4999C1.41122 18.4988 0.498927 17.5838 0.49839 16.2395C0.49839 11.7468 0.49839 7.25402 0.49839 2.76127C0.498927 1.41538 1.40961 0.50094 2.75067 0.499867C4.89348 0.498793 7.03682 0.499867 9.17963 0.499867H9.5V0.741355C9.5 1.77224 9.49893 2.80366 9.5 3.83455C9.50161 5.14771 10.4203 6.06859 11.7373 6.07342C12.7617 6.07717 13.7867 6.07395 14.8111 6.07395C14.8836 6.07395 14.9555 6.07395 15.0515 6.07395V8.31604C14.9625 8.26506 14.8707 8.21783 14.7843 8.16309C14.1092 7.73593 13.4459 7.75471 12.7655 8.17007C12.2868 8.462 11.7856 8.71798 11.2875 8.97718C11.1749 9.03567 11.0343 9.06358 10.906 9.06358C8.49541 9.06841 6.08428 9.0668 3.67369 9.06787C3.58085 9.06787 3.4848 9.07002 3.39518 9.09041C3.19984 9.13495 3.07319 9.30292 3.07212 9.49718C3.07158 9.69145 3.19769 9.86049 3.39249 9.9061C3.48211 9.92703 3.57817 9.92972 3.67101 9.92972C5.3185 9.93079 6.96598 9.93079 8.61293 9.93079C8.68377 9.93079 8.75514 9.93079 8.88662 9.93079V9.93186ZM6.48569 6.49629C5.54818 6.49629 4.6112 6.49629 3.67369 6.49629C3.60017 6.49629 3.52558 6.49414 3.45313 6.50487C3.22452 6.53868 3.07266 6.70987 3.07158 6.92614C3.07051 7.14187 3.22184 7.3152 3.44938 7.35062C3.51485 7.36082 3.583 7.35974 3.64954 7.35974C5.55086 7.35974 7.45218 7.36028 9.35403 7.35921C9.44043 7.35921 9.52898 7.35491 9.61216 7.33452C9.8032 7.2873 9.93146 7.11128 9.92717 6.92023C9.92341 6.73456 9.79891 6.56927 9.61591 6.52312C9.53273 6.50219 9.44419 6.4979 9.35779 6.4979C8.40042 6.49629 7.44306 6.49683 6.48569 6.49683V6.49629ZM5.63565 15.0745C6.31772 15.0745 6.99979 15.074 7.68186 15.0745C7.86325 15.0745 8.0296 15.0434 8.13801 14.8786C8.23084 14.738 8.23943 14.5899 8.16108 14.4418C8.07361 14.277 7.92389 14.2116 7.74518 14.2116C6.3408 14.2105 4.93641 14.2105 3.53202 14.2126C3.47299 14.2126 3.4102 14.2228 3.35546 14.2438C3.17408 14.3119 3.0748 14.4482 3.07427 14.6414C3.07373 14.8341 3.17086 14.9757 3.35332 15.0396C3.43918 15.0697 3.53739 15.0734 3.62969 15.0734C4.29834 15.0761 4.967 15.075 5.63619 15.075L5.63565 15.0745ZM5.22029 3.92524C4.70512 3.92524 4.1894 3.92524 3.67423 3.92524C3.62057 3.92524 3.5669 3.9231 3.51377 3.92685C3.24975 3.94564 3.07373 4.11736 3.07212 4.35456C3.07105 4.59229 3.24599 4.77153 3.50948 4.78548C3.70965 4.79567 3.91089 4.7887 4.11159 4.7887C4.98202 4.7887 5.85192 4.7887 6.72235 4.7887C6.76904 4.7887 6.81626 4.78977 6.86295 4.7887C7.16454 4.78011 7.36202 4.60356 7.35666 4.34919C7.35129 4.10073 7.16025 3.929 6.86778 3.92685C6.31879 3.92256 5.76981 3.92578 5.22083 3.92524H5.22029ZM5.1999 11.6395C4.69116 11.6395 4.18243 11.6395 3.67369 11.6395C3.62003 11.6395 3.56636 11.6373 3.51324 11.6411C3.24921 11.6598 3.07319 11.8316 3.07158 12.0693C3.07051 12.307 3.24545 12.4884 3.50894 12.4997C3.76277 12.511 4.01768 12.5034 4.27205 12.5034C5.12209 12.5034 5.97212 12.5029 6.8227 12.504C6.99657 12.504 7.1581 12.4766 7.26865 12.3253C7.36793 12.1895 7.38403 12.0403 7.31212 11.8895C7.2284 11.713 7.07492 11.6416 6.8871 11.6405C6.3247 11.6389 5.7623 11.64 5.20044 11.6395H5.1999Z" fill="#64748B"/>
<path d="M18.5011 11.8312C18.4871 14.2444 17.5056 16.1409 15.483 17.482C15.0982 17.7369 14.714 17.9923 14.3314 18.251C13.9606 18.5016 13.5978 18.492 13.2297 18.2413C12.7875 17.9398 12.3335 17.6553 11.8961 17.3473C10.1 16.0846 9.16675 14.3475 9.07122 12.1585C9.05942 11.8913 9.06532 11.623 9.06854 11.3552C9.07337 10.8931 9.30466 10.5846 9.75061 10.4574C10.987 10.1053 12.1532 9.59606 13.2318 8.89521C13.6074 8.65157 13.9632 8.65533 14.3367 8.89306C15.1401 9.40341 15.9805 9.84292 16.8793 10.1622C17.1938 10.2738 17.5158 10.3645 17.8356 10.4606C18.2564 10.5862 18.4952 10.8947 18.5 11.3299C18.5021 11.4974 18.5 11.6648 18.5 11.8317L18.5011 11.8312ZM13.3509 13.6015C13.1771 13.4271 13.0171 13.2651 12.8556 13.1052C12.634 12.8862 12.3871 12.8669 12.2004 13.0515C12.0152 13.2345 12.0297 13.4905 12.2428 13.7073C12.4918 13.96 12.7424 14.2106 12.9951 14.4596C13.2474 14.7086 13.4706 14.7076 13.725 14.4553C14.1001 14.0829 14.473 13.7078 14.8471 13.3343C15.0129 13.1685 15.1809 13.0053 15.3435 12.8368C15.5404 12.6329 15.5496 12.3694 15.3708 12.1945C15.1943 12.0217 14.948 12.0313 14.7446 12.2218C14.6764 12.2857 14.612 12.3544 14.5455 12.4204C14.1516 12.8105 13.7577 13.2001 13.3509 13.6021V13.6015Z" fill="#64748B"/>
<path d="M10.3538 0.784424C10.5121 0.908924 10.642 0.989421 10.7461 1.09568C11.9986 2.37073 13.2479 3.64847 14.4961 4.92783C14.568 5.00188 14.626 5.08935 14.7124 5.19829C14.6104 5.2042 14.5471 5.21064 14.4838 5.21117C13.5731 5.21171 12.663 5.21278 11.7523 5.21117C10.8829 5.20956 10.3554 4.67936 10.3543 3.80678C10.3533 2.88323 10.3543 1.95913 10.3543 1.03557C10.3543 0.971175 10.3543 0.906778 10.3543 0.78496L10.3538 0.784424Z" fill="#64748B"/>
</g>
<defs>
<clipPath id="clip0_118_345">
<rect width="18.0032" height="18" fill="white" transform="translate(0.49839 0.5)"/>
</clipPath>
</defs>
</svg>
