<svg width="16" height="17" viewBox="0 0 16 17" fill="none" xmlns="http://www.w3.org/2000/svg">
<path d="M14.5455 8.16699C14.5455 4.55204 11.615 1.62154 8 1.62154C4.38505 1.62154 1.45455 4.55204 1.45455 8.16699C1.45455 11.7819 4.38505 14.7124 8 14.7124C11.615 14.7124 14.5455 11.7819 14.5455 8.16699ZM16 8.16699C16 12.5853 12.4183 16.167 8 16.167C3.58172 16.167 0 12.5853 0 8.16699C0 3.74871 3.58172 0.166992 8 0.166992C12.4183 0.166992 16 3.74871 16 8.16699Z" fill="#BA8D77"/>
<path d="M9.66761 5.47097C9.95163 5.18695 10.412 5.18695 10.696 5.47097C10.98 5.75499 10.98 6.21536 10.696 6.49938L6.33239 10.863C6.04837 11.147 5.588 11.147 5.30398 10.863C5.01996 10.579 5.01996 10.1186 5.30398 9.83461L9.66761 5.47097Z" fill="#BA8D77"/>
<path d="M5.30398 5.47097C5.588 5.18695 6.04837 5.18695 6.33239 5.47097L10.696 9.83461L10.7457 9.89C10.9787 10.1757 10.9623 10.5967 10.696 10.863C10.4298 11.1293 10.0087 11.1457 9.72301 10.9127L9.66761 10.863L5.30398 6.49938C5.01996 6.21536 5.01996 5.75499 5.30398 5.47097Z" fill="#BA8D77"/>
</svg>
