<svg width="35" height="40" viewBox="0 0 35 40" fill="none" xmlns="http://www.w3.org/2000/svg">
<path d="M30.6751 31.0713C30.5723 31.1765 30.2774 31.2525 30.1233 31.2536H10.2723C9.40917 31.3119 9.25606 30.1776 10.1202 30.0755L30.2004 30.0734C30.7388 30.0141 31.0399 30.6974 30.6751 31.0713Z" fill="#BA8D77"/>
<path d="M9.90649 26.032L30.3535 26.0122C31.0008 26.1163 30.9885 27.0298 30.3535 27.1142H10.0411C9.46054 26.9892 9.38245 26.3215 9.90752 26.033L9.90649 26.032Z" fill="#BA8D77"/>
<path d="M9.90649 34.2347L30.3535 34.2149C31.0008 34.319 30.9885 35.2325 30.3535 35.3169H10.0411C9.46054 35.1919 9.38245 34.5242 9.90752 34.2357L9.90649 34.2347Z" fill="#BA8D77"/>
<path d="M23.543 0.00104161L23.88 0.123952L34.7298 11.1796L34.9753 11.5734L35 37.0022C34.8305 38.4772 33.6765 39.9208 32.1558 40H8.23674C7.0448 39.9406 6.25462 39.1792 5.69873 38.1657C5.5857 37.9595 5.32676 37.3564 5.5446 37.2272L5.39046 37.1731V22.5978L5.5446 22.502L5.47369 22.6582H1.13748L1.04501 22.502C0.827168 22.8092 0.236334 22.1061 0.156186 21.7999C0.0328812 21.3291 0.00924784 20.7895 0 20.2906C0.0709001 17.5324 0.106864 14.7815 0.108919 12.0379C0.148993 11.7108 0.891903 10.7963 1.19811 11.1744C1.20427 11.113 1.22585 11.0203 1.26798 11.0182C2.43218 10.9713 3.97452 10.9296 5.11817 11.0182C5.35347 10.9692 5.49527 11.0213 5.54357 11.1744L5.38944 11.1203V2.86964L5.54357 2.77381C5.48089 2.75923 5.3956 2.71444 5.40691 2.67278C5.80148 1.26556 6.69749 0.107286 8.23572 0H23.5419L23.543 0.00104161ZM8.66009 1.09473C7.76613 1.09473 6.62146 2.25717 6.62146 3.16546V11.1734H21.3512C21.381 11.1734 21.7139 11.3327 21.7704 11.3723C22.128 11.6213 22.2791 12.0369 22.315 12.4598C22.5545 15.3044 22.1311 18.4876 22.313 21.3687C22.3664 21.6989 21.7817 22.5009 21.5053 22.5009H6.62248V36.8356C6.62248 37.8543 7.8247 38.9157 8.81628 38.9042L31.4314 38.9094C32.686 38.9146 33.7741 37.8939 33.7741 36.6012V12.3441H24.6599C23.8379 12.3441 22.6983 11.2765 22.6983 10.4297V1.09473H8.66009ZM7.41163 17.598C7.17633 17.8501 7.51028 18.698 6.98726 18.9251C6.76531 19.0219 5.71208 19.0188 5.42848 18.9855C5.07501 18.9438 4.89314 18.7615 4.85203 18.399C4.79449 17.8959 4.77291 15.5596 4.87053 15.1325C4.92088 14.9128 5.06782 14.8034 5.28155 14.769C5.5148 14.7315 6.76326 14.7242 6.95335 14.7805C7.57501 14.9659 7.05919 16.069 7.6007 16.2314C8.34669 16.4554 8.36724 15.7377 8.31792 15.1909C8.24291 14.3565 7.63461 13.7555 6.81463 13.6712C5.84464 13.5722 4.27867 13.567 3.91286 14.7065C3.77928 15.1221 3.79059 18.1491 3.8543 18.7094C3.918 19.2698 4.49959 19.9063 5.05138 19.9937C5.55898 20.074 7.05097 20.049 7.49383 19.8281C8.19359 19.4792 8.38266 18.7459 8.31792 18.0032C8.27065 17.4585 7.75483 17.2304 7.41163 17.597V17.598ZM10.5261 13.693C8.69811 13.9618 8.36005 16.5554 10.0062 17.2272C10.6782 17.5012 12.0972 17.0512 12.3551 17.8876C12.7785 19.2584 10.5169 19.2292 10.1223 18.6719C9.91677 18.3824 9.96404 17.3585 9.2386 17.697C8.51315 18.0355 9.16667 19.299 9.62598 19.6438C10.336 20.1781 12.1702 20.1812 12.8463 19.5656C13.9817 18.5324 13.3806 16.5346 11.8835 16.3346C11.1786 16.2408 9.72462 16.6127 10.0226 15.2898C10.1685 14.6419 11.3759 14.669 11.8742 14.7826C12.65 14.9596 12.1095 16.0283 12.9686 16.0242C13.7649 16.02 13.4207 14.9305 13.1473 14.5065C12.5925 13.6462 11.4437 13.5587 10.5271 13.6941L10.5261 13.693ZM16.3913 17.7345L15.15 13.9566C14.8253 13.4316 14.1461 13.7045 14.1934 14.3003L15.9659 19.6886C16.2885 20.2146 16.7468 20.0896 16.9883 19.5531C17.686 18.0032 18.0086 15.9898 18.6806 14.394C18.8296 13.8659 18.3467 13.5295 17.8977 13.7587C17.2226 14.8586 17.0715 16.3752 16.5475 17.5428C16.5125 17.6199 16.4961 17.7262 16.3913 17.7345Z" fill="#BA8D77"/>
</svg>
