<svg width="25" height="25" viewBox="0 0 25 25" fill="none" xmlns="http://www.w3.org/2000/svg">
<g clip-path="url(#clip0_86_749)">
<path d="M23 16.6398H2V4.42281C2 4.014 2.65636 3.44599 3.08202 3.50399H21.9599C22.3708 3.46874 23 4.02708 23 4.42281V16.6404V16.6398ZM20.1938 6.32015C20.217 6.44182 20.1416 6.56407 20.1518 6.67892C20.1779 6.96264 20.6007 7.08034 20.7662 6.83016C20.8609 6.68688 21.0219 5.78057 21.0389 5.56849C21.0542 5.37745 21.087 5.18925 20.8904 5.08918C20.7878 5.03687 20.3672 5.00446 20.2176 4.9965C19.9268 4.98058 19.1837 4.89245 19.1338 5.23644C19.0653 5.70666 19.4875 5.64127 19.8117 5.70211L17.8585 7.53406C17.6454 7.43513 17.3411 7.58921 17.1971 7.58353C17.0123 7.5767 15.631 6.48959 15.3453 6.34517C15.2813 5.04426 13.4766 5.26999 13.8518 6.52029L11.6475 9.41321C10.8546 9.31484 10.4057 10.3201 11.0762 10.7988C11.6968 11.2417 12.5113 10.5697 12.2143 9.87375L14.4152 6.98254L14.952 6.90692L16.7839 8.12254C16.7187 8.96119 17.8036 9.37454 18.2332 8.63937C18.3687 8.40796 18.2831 8.08046 18.3335 7.99347C18.3437 7.97641 18.4191 7.95481 18.452 7.92297C19.0154 7.37259 19.593 6.82675 20.1943 6.32186L20.1938 6.32015ZM6.16599 5.0835C3.72874 5.38257 2.57417 8.36589 4.27401 10.2013C4.30632 10.2365 4.41287 10.3656 4.46502 10.3286L5.48016 8.93219C5.40081 8.70249 5.26081 8.50974 5.23587 8.25615C5.17976 7.67962 5.57312 7.01836 6.16656 6.91772V5.0835H6.16599ZM6.84615 5.0835V6.85291C7.14826 7.02348 7.42259 7.14174 7.60397 7.4573C7.77231 7.75069 7.77911 8.002 7.80632 8.32893L9.4387 9.00667C9.96016 7.17643 8.71943 5.31206 6.84615 5.0835ZM19.8418 7.5659C19.8004 7.57784 19.7698 7.6057 19.7483 7.64266L19.7284 15.1257C19.7409 15.2144 19.7925 15.2587 19.8769 15.2747C20.0436 15.3065 21.1528 15.3065 21.32 15.2747C21.3648 15.2661 21.4028 15.2531 21.4317 15.2161L21.4691 7.70805C21.4566 7.61935 21.405 7.575 21.3206 7.55908C21.1862 7.53349 19.9483 7.5352 19.8423 7.56647L19.8418 7.5659ZM7.50421 8.93617C7.12162 9.37056 6.58599 9.49792 6.03676 9.32508L4.97684 10.734C6.38081 11.6494 8.3187 11.0871 9.14057 9.66736L7.50478 8.93617H7.50421ZM13.7543 8.92139L13.6908 8.98507V15.211L13.7543 15.2747H15.3272L15.3907 15.211V8.98507L15.3272 8.92139H13.7543ZM16.8666 10.3383C16.8151 10.3497 16.7652 10.373 16.7289 10.4133L16.7164 15.1598C16.7482 15.2531 16.8105 15.2656 16.8972 15.2769C17.0474 15.2968 18.2468 15.2985 18.3375 15.2678C18.3811 15.2531 18.4015 15.2184 18.4197 15.1797L18.4429 10.4861C18.4174 10.4008 18.2984 10.3451 18.2151 10.3309C18.0223 10.299 17.0474 10.2985 16.8666 10.3377V10.3383ZM12.33 15.2752L12.3657 12.3613C12.3515 12.3175 12.3164 12.297 12.2778 12.2788C12.1622 12.2248 11.0949 12.226 10.9039 12.2447C10.7129 12.2635 10.6522 12.3232 10.629 12.5233C10.5683 13.0487 10.5678 14.5162 10.629 15.041C10.6403 15.1371 10.6607 15.2098 10.7361 15.2747H12.33V15.2752ZM3.94356 12.5984C3.67943 12.6575 3.63239 13.0487 3.87215 13.2056C4.13004 13.3745 4.76656 13.2864 4.71215 12.8758C4.66794 12.5387 4.19862 12.5409 3.943 12.5978L3.94356 12.5984ZM5.26138 12.5984C4.90939 12.7417 4.98081 13.1886 5.3396 13.2693H8.48081C8.87814 13.188 8.90308 12.6382 8.48421 12.5887L5.26194 12.5984H5.26138ZM3.98551 13.9624C3.87838 13.9863 3.72648 14.1318 3.70664 14.241C3.61368 14.7521 4.73595 14.8022 4.70761 14.2802C4.68891 13.9385 4.2349 13.9067 3.98551 13.963V13.9624ZM5.30332 13.9624C4.91109 14.1148 4.94283 14.5213 5.33903 14.6333H8.47968C8.88664 14.5213 8.89571 14.0642 8.47968 13.9561L5.30275 13.963L5.30332 13.9624ZM4.62202 15.9018C5.08453 15.3946 3.89085 15.0143 3.72761 15.5828C3.58421 16.0815 4.43555 16.1071 4.62202 15.9018ZM8.703 15.9018C8.91101 15.6738 8.73304 15.3514 8.44113 15.3173C7.48777 15.2047 6.31676 15.4015 5.3396 15.3207C4.94227 15.402 4.91733 15.9518 5.33619 16.0013C6.30656 16.1156 7.49061 15.9132 8.48421 16.0024C8.55563 15.995 8.65595 15.9535 8.70243 15.9018H8.703Z" fill="#64748B"/>
<path d="M23 17.3221V18.026C23 18.4348 22.3436 19.0029 21.918 18.9449H3.04008C2.62915 18.9801 2 18.4218 2 18.026V17.3221H23Z" fill="#64748B"/>
<path d="M16.8717 19.6322L17.7951 21.2447C17.8466 21.3658 17.7934 21.4778 17.6636 21.5L7.24631 21.4625C7.21174 21.4329 7.18963 21.3959 7.1851 21.3499C7.16583 21.1401 8.03587 19.9171 8.1498 19.6226L16.8717 19.6311V19.6322Z" fill="#64748B"/>
</g>
<defs>
<clipPath id="clip0_86_749">
<rect width="21" height="18" fill="white" transform="translate(2 3.5)"/>
</clipPath>
</defs>
</svg>
