<svg width="16" height="17" viewBox="0 0 16 17" fill="none" xmlns="http://www.w3.org/2000/svg">
<g clip-path="url(#clip0_1675_1151)">
<path d="M10.8846 2.86614H14.977C15.2761 2.86614 15.5324 3.23915 15.4967 3.53513C15.4071 4.27775 14.4601 3.94398 14.0035 4.02876C13.9626 4.03651 13.9303 4.04135 13.9183 4.08834L13.2998 14.2554C13.1712 15.3681 12.4294 16.2096 11.3311 16.4135C9.29171 16.3893 7.08947 16.584 5.06015 16.4561C3.58862 16.3631 2.70281 15.2775 2.7004 13.8199L2.0535 4.04474C1.68502 3.95948 1.06702 4.14502 0.755858 3.93575C0.444693 3.72648 0.408567 3.2561 0.69902 3.01147C0.749115 2.96932 0.973096 2.86663 1.02367 2.86663H5.11603V1.90359C5.11603 1.15419 5.97197 0.589839 6.64681 0.539943C7.39486 0.484235 8.5663 0.490532 9.3182 0.539943C10.0056 0.584995 10.8851 1.13385 10.8851 1.90408V2.86711L10.8846 2.86614ZM9.73052 2.86614V2.01259C9.73052 1.86436 9.44296 1.75342 9.31531 1.74083C8.66456 1.67446 7.41798 1.69045 6.75422 1.73889C6.61164 1.74906 6.26917 1.82754 6.26917 2.01307V2.86663H9.73052V2.86614ZM12.7593 4.06509H3.27649C3.44026 7.45169 3.67436 10.8514 3.8574 14.252C3.99853 14.9132 4.43349 15.2499 5.0958 15.293C7.00614 15.4175 9.04991 15.1966 10.9742 15.2906C11.8494 15.2121 12.176 14.5688 12.1823 13.7468L12.7593 4.0646V4.06509Z" fill="#FF5050"/>
<path d="M5.53862 5.99935C5.91915 5.91991 6.24572 6.16406 6.27125 6.55256L6.26981 12.8031C6.16625 13.5249 5.17977 13.5128 5.11426 12.7682L5.1157 6.51769C5.12196 6.30406 5.33583 6.04198 5.53862 5.99935Z" fill="#FF5050"/>
<path d="M7.84575 5.99935C8.22627 5.91991 8.55285 6.16406 8.57838 6.55256L8.57694 12.8031C8.47338 13.5249 7.4869 13.5128 7.42139 12.7682L7.42283 6.51769C7.42909 6.30406 7.64296 6.04198 7.84575 5.99935Z" fill="#FF5050"/>
<path d="M10.1534 5.99935C10.5339 5.91991 10.8605 6.16406 10.886 6.55256L10.8846 12.8031C10.781 13.5249 9.79451 13.5128 9.729 12.7682L9.73045 6.51769C9.73671 6.30406 9.95058 6.04198 10.1534 5.99935Z" fill="#FF5050"/>
</g>
<defs>
<clipPath id="clip0_1675_1151">
<rect width="15" height="16" fill="white" transform="translate(0.5 0.5)"/>
</clipPath>
</defs>
</svg>
