<svg width="16" height="16" viewBox="0 0 16 16" fill="none" xmlns="http://www.w3.org/2000/svg">
<path d="M10.8841 2.36565H14.9765C15.2756 2.36565 15.5319 2.73866 15.4962 3.03464C15.4066 3.77726 14.4597 3.44349 14.003 3.52827C13.9621 3.53602 13.9298 3.54086 13.9178 3.58785L13.2993 13.7549C13.1707 14.8676 12.4289 15.7091 11.3307 15.913C9.29122 15.8888 7.08898 16.0835 5.05966 15.9556C3.58813 15.8626 2.70232 14.777 2.69991 13.3194L2.05302 3.54425C1.68453 3.45899 1.06654 3.64453 0.75537 3.43526C0.444204 3.22599 0.408078 2.75561 0.698532 2.51098C0.748626 2.46884 0.972608 2.36614 1.02318 2.36614H5.11554V1.40311C5.11554 0.653703 5.97148 0.0893507 6.64632 0.0394552C7.39437 -0.0162534 8.56581 -0.00995591 9.31772 0.0394552C10.0051 0.0845065 10.8846 0.633357 10.8846 1.40359V2.36662L10.8841 2.36565ZM9.73003 2.36565V1.5121C9.73003 1.36387 9.44247 1.25293 9.31483 1.24034C8.66408 1.17397 7.41749 1.18996 6.75373 1.2384C6.61116 1.24857 6.26868 1.32705 6.26868 1.51258V2.36614L9.73003 2.36565ZM12.7588 3.5646H3.276C3.43977 6.9512 3.67387 10.3509 3.85691 13.7515C3.99804 14.4128 4.433 14.7494 5.09531 14.7925C7.00565 14.917 9.04942 14.6961 10.9737 14.7901C11.8489 14.7116 12.1755 14.0683 12.1818 13.2463L12.7588 3.5646Z" fill="#FF5050"/>
<path d="M5.53792 5.49887C5.91844 5.41942 6.24502 5.66357 6.27055 6.05208L6.26911 12.3026C6.16555 13.0244 5.17907 13.0123 5.11356 12.2677L5.115 6.0172C5.12126 5.80357 5.33513 5.54149 5.53792 5.49887Z" fill="#FF5050"/>
<path d="M7.84517 5.49887C8.22569 5.41942 8.55227 5.66357 8.5778 6.05208L8.57636 12.3026C8.47279 13.0244 7.48631 13.0123 7.42081 12.2677L7.42225 6.0172C7.42851 5.80357 7.64238 5.54149 7.84517 5.49887Z" fill="#FF5050"/>
<path d="M10.1529 5.49887C10.5334 5.41942 10.86 5.66357 10.8855 6.05208L10.8841 12.3026C10.7805 13.0244 9.79404 13.0123 9.72854 12.2677L9.72998 6.0172C9.73624 5.80357 9.95011 5.54149 10.1529 5.49887Z" fill="#FF5050"/>
</svg>
