<svg width="17" height="17" viewBox="0 0 17 17" fill="none" xmlns="http://www.w3.org/2000/svg">
<g clip-path="url(#clip0_1675_1147)">
<path d="M16.4999 2.39124C16.4138 2.92476 16.0951 3.31175 15.7125 3.66367C15.5024 3.85686 15.3076 4.06695 15.1207 4.25512C14.3352 3.46955 13.5568 2.69119 12.7646 1.89936C12.7816 1.88183 12.8223 1.83737 12.8648 1.79478C13.1185 1.54055 13.3705 1.28475 13.6269 1.03333C14.1057 0.563991 14.6755 0.396483 15.3173 0.593109C15.9573 0.789109 16.3424 1.23966 16.4736 1.9003C16.4774 1.91908 16.4908 1.93599 16.4999 1.95384V2.39124Z" fill="#133F32"/>
<path d="M7.1557 16.4846C5.583 16.4846 4.00999 16.4784 2.43729 16.4875C1.73626 16.4915 1.22591 16.1665 0.837039 15.6177C0.605033 15.2905 0.50077 14.9166 0.50077 14.5152C0.500457 11.4062 0.498892 8.29709 0.501397 5.1877C0.502336 4.07213 1.38653 3.18606 2.50774 3.1823C4.26798 3.17604 6.02823 3.17948 7.78847 3.18136C8.2027 3.18167 8.50046 3.46691 8.49952 3.85108C8.49858 4.23557 8.2002 4.51579 7.78471 4.51579C6.05578 4.51704 4.32653 4.5161 2.5976 4.51642C2.09476 4.51642 1.83645 4.77222 1.83645 5.27287C1.83614 8.32464 1.83614 11.3767 1.83645 14.4285C1.83645 14.9226 2.09257 15.1796 2.58601 15.18C5.64311 15.1806 8.70021 15.1806 11.7573 15.18C12.2364 15.18 12.4997 14.9138 12.4997 14.4348C12.5 12.7005 12.4997 10.9663 12.5 9.23201C12.5 8.8685 12.696 8.60956 13.0241 8.53223C13.3704 8.45082 13.7339 8.67625 13.8112 9.02505C13.8278 9.1005 13.8344 9.17972 13.8347 9.25737C13.836 10.9969 13.8426 12.7362 13.8329 14.4758C13.8278 15.3437 13.4189 15.9777 12.6302 16.3422C12.4386 16.4308 12.2107 16.4774 11.9987 16.479C10.3844 16.49 8.76972 16.485 7.15538 16.485L7.1557 16.4846Z" fill="#133F32"/>
<path d="M12.0195 2.64844C12.8054 3.43432 13.5815 4.2108 14.369 4.99825C14.3345 5.03488 14.2945 5.07965 14.2519 5.12224C12.6025 6.77196 10.9499 8.41917 9.30679 10.0752C9.11642 10.2668 8.91134 10.3735 8.65022 10.4208C7.98519 10.5414 7.3233 10.6791 6.66047 10.8119C6.32107 10.8798 6.13572 10.696 6.20397 10.3579C6.35426 9.61364 6.50079 8.86878 6.65577 8.12548C6.67393 8.03907 6.71996 7.94545 6.78133 7.88346C8.51277 6.14607 10.2476 4.41244 11.9822 2.67818C11.9932 2.66722 12.0066 2.65877 12.0195 2.64844Z" fill="#133F32"/>
</g>
<defs>
<clipPath id="clip0_1675_1147">
<rect width="16" height="15.9753" fill="white" transform="translate(0.5 0.512207)"/>
</clipPath>
</defs>
</svg>
