<svg width="15" height="14" viewBox="0 0 15 14" fill="none" xmlns="http://www.w3.org/2000/svg">
<g clip-path="url(#clip0_205_4493)">
<path d="M8.73374 1.81671C9.76716 2.85013 10.7746 3.85703 11.8196 4.9015C11.7837 4.92414 11.7224 4.949 11.6799 4.99153C9.7887 6.87941 7.89364 8.76452 6.0135 10.6634C5.66332 11.0169 5.28883 11.2312 4.78179 11.2489C4.25597 11.2671 3.73125 11.3329 3.20764 11.3898C2.56914 11.4594 2.1687 10.9429 2.24603 10.3646C2.32446 9.77639 2.36754 9.18264 2.4156 8.59053C2.44155 8.26963 2.57356 8.01058 2.79947 7.78578C3.78096 6.80815 4.7597 5.82776 5.73954 4.84792C6.70833 3.87913 7.67712 2.91089 8.64481 1.94154C8.68458 1.90177 8.71165 1.8493 8.73484 1.81616L8.73374 1.81671Z" fill="white"/>
<path d="M7.84337 13.9999C5.66165 13.9999 3.48049 13.9999 1.29877 13.9999C0.963504 13.9999 0.743123 13.8039 0.741466 13.51C0.739809 13.2554 0.920975 13.0499 1.18278 13.0146C1.24409 13.0063 1.3065 13.0079 1.36836 13.0079C5.68982 13.0079 10.0118 13.0079 14.3333 13.0085C14.4206 13.0085 14.5106 13.0113 14.5945 13.0311C14.8293 13.0869 14.979 13.309 14.9585 13.5559C14.9392 13.7873 14.7481 13.9767 14.5122 13.9961C14.4504 14.001 14.3885 13.9999 14.3261 13.9999C12.1654 13.9999 10.0047 13.9999 7.84337 13.9999Z" fill="white"/>
<path d="M9.46338 1.07717C9.80086 0.789956 10.0986 0.470155 10.4565 0.247012C11.1303 -0.173313 12.0461 -0.0379917 12.6194 0.511028C12.8022 0.686118 12.9834 0.863417 13.1541 1.04955C13.8053 1.7582 13.8058 2.80432 13.1519 3.50799C12.9525 3.72285 12.7326 3.91948 12.5034 4.14262C11.5031 3.13406 10.5007 2.12329 9.46283 1.07717H9.46338Z" fill="white"/>
</g>
<defs>
<clipPath id="clip0_205_4493">
<rect width="14.2193" height="14" fill="white" transform="translate(0.741455)"/>
</clipPath>
</defs>
</svg>
