<svg width="20" height="20" viewBox="0 0 20 20" fill="none" xmlns="http://www.w3.org/2000/svg">
<path d="M0 17V13C0 12.4477 0.447715 12 1 12C1.55228 12 2 12.4477 2 13V17L2.00488 17.0986C2.02757 17.3276 2.12883 17.5429 2.29297 17.707C2.48051 17.8946 2.73478 18 3 18H17C17.2652 18 17.5195 17.8946 17.707 17.707C17.8946 17.5195 18 17.2652 18 17V13C18 12.4477 18.4477 12 19 12C19.5523 12 20 12.4477 20 13V17C20 17.7957 19.6837 18.5585 19.1211 19.1211C18.5585 19.6837 17.7957 20 17 20H3C2.20435 20 1.44151 19.6837 0.878906 19.1211C0.316297 18.5585 0 17.7957 0 17Z" fill="#6E8780"/>
<path d="M9.36914 0.224609C9.76191 -0.095741 10.3409 -0.0731472 10.707 0.292969L15.707 5.29297L15.7754 5.36914C16.0957 5.76191 16.0731 6.34092 15.707 6.70703C15.3409 7.07315 14.7619 7.09574 14.3691 6.77539L14.293 6.70703L10 2.41406L5.70703 6.70703C5.31651 7.09756 4.68349 7.09756 4.29297 6.70703C3.90244 6.31651 3.90244 5.68349 4.29297 5.29297L9.29297 0.292969L9.36914 0.224609Z" fill="#6E8780"/>
<path d="M9 13V1C9 0.447715 9.44771 0 10 0C10.5523 0 11 0.447715 11 1V13C11 13.5523 10.5523 14 10 14C9.44771 14 9 13.5523 9 13Z" fill="#6E8780"/>
</svg>
