<svg width="15" height="14" viewBox="0 0 15 14" fill="none" xmlns="http://www.w3.org/2000/svg">
<g clip-path="url(#clip0_211_8446)">
<path d="M7.96022 13.999C6.33407 13.999 4.70792 14.0017 3.08221 13.9982C2.04088 13.996 1.23769 13.3857 1.0013 12.4203C0.965273 12.2727 0.944183 12.1176 0.943304 11.9656C0.938032 11.0064 0.935395 10.0468 0.941547 9.08764C0.944622 8.57884 1.36203 8.27918 1.85546 8.41627C2.14369 8.49623 2.32735 8.71988 2.33526 9.03008C2.34493 9.41366 2.33966 9.79724 2.3401 10.1813C2.34054 10.7239 2.33966 11.2665 2.3401 11.8092C2.34098 12.3452 2.5923 12.6009 3.12439 12.6009C6.35472 12.6018 9.58461 12.6018 12.8149 12.6009C13.3396 12.6009 13.5966 12.3452 13.5975 11.8241C13.5992 10.9141 13.5944 10.0042 13.6001 9.09423C13.6032 8.58894 14 8.2906 14.4929 8.40924C14.7935 8.48173 14.9886 8.71505 14.9947 9.04019C15.0035 9.51692 14.9987 9.99408 14.9991 10.4708C14.9991 10.9256 15.0004 11.3808 14.9991 11.8355C14.9947 13.1282 14.1208 13.9973 12.822 13.9986C11.2015 14.0004 9.58066 13.9986 7.96022 13.9986V13.999Z" fill="white"/>
<path d="M7.19263 2.34281C7.16583 2.39685 7.15089 2.46232 7.11047 2.50318C6.62364 2.99397 6.13548 3.48344 5.64294 3.96852C5.44302 4.16536 5.20048 4.23347 4.93158 4.13417C4.66312 4.0353 4.49923 3.8389 4.45968 3.55286C4.42629 3.31077 4.52823 3.11832 4.69695 2.95047C5.38941 2.26196 6.07968 1.57126 6.77127 0.881867C7.00019 0.653388 7.2458 0.438092 7.45407 0.192478C7.66761 -0.0592878 8.23529 -0.0649997 8.4787 0.184569C9.38558 1.11606 10.3153 2.02514 11.2341 2.9452C11.5566 3.26771 11.5689 3.66886 11.2749 3.965C10.9805 4.26115 10.5759 4.2484 10.2534 3.92853C9.77839 3.45708 9.30518 2.98387 8.83284 2.50977C8.79066 2.46759 8.76079 2.41355 8.7252 2.36522C8.70674 2.37488 8.68785 2.38455 8.66939 2.39422V2.58051C8.66939 4.70668 8.66939 6.83284 8.66852 8.95945C8.66852 9.06841 8.67027 9.1809 8.64655 9.28635C8.5679 9.63434 8.26868 9.81976 7.86664 9.78329C7.53359 9.75297 7.29545 9.50604 7.27304 9.1664C7.26777 9.08994 7.26865 9.01305 7.26865 8.93616C7.26865 6.82098 7.26865 4.70536 7.26865 2.59018C7.26865 2.52691 7.26865 2.4632 7.26865 2.39993C7.24316 2.38103 7.21812 2.36214 7.19263 2.34281Z" fill="white"/>
</g>
<defs>
<clipPath id="clip0_211_8446">
<rect width="14.062" height="14" fill="white" transform="translate(0.937988)"/>
</clipPath>
</defs>
</svg>
