<svg width="17" height="19" viewBox="0 0 17 19" fill="none" xmlns="http://www.w3.org/2000/svg">
<g clip-path="url(#clip0_118_350)">
<path d="M12.9839 14.6793C12.9839 15.4149 13.0402 16.114 12.9705 16.8002C12.8664 17.8229 12.0471 18.4963 11.0142 18.4979C9.33433 18.5011 7.65441 18.4989 5.97395 18.4989C4.70878 18.4989 3.4436 18.5 2.17897 18.4989C0.974425 18.4979 0.144391 17.6727 0.144391 16.4724C0.143854 11.8265 0.143854 7.18054 0.143854 2.53406C0.144391 1.32845 0.969596 0.501097 2.17199 0.500561C5.10367 0.499488 8.03535 0.499488 10.967 0.500561C12.171 0.500561 12.9962 1.32684 12.9979 2.53085C12.9989 3.50843 12.9962 4.48548 13.0005 5.46306C13.0005 5.5811 12.971 5.65997 12.8739 5.73241C12.7516 5.82362 12.6427 5.93522 12.5343 6.04414C10.6172 7.96068 8.7055 9.88312 6.77984 11.7916C6.3844 12.1838 6.12311 12.619 6.02438 13.17C5.90098 13.8605 5.7384 14.5441 5.60051 15.2325C5.31936 16.6404 6.49332 17.8079 7.90497 17.523C8.6454 17.3738 9.38262 17.2091 10.1225 17.0583C10.5426 16.9725 10.8957 16.7766 11.1961 16.4719C11.7783 15.8811 12.3674 15.2963 12.9834 14.6793H12.9839ZM6.56683 3.07168C5.52271 3.07168 4.4786 3.07115 3.43448 3.07168C3.00686 3.07168 2.71659 3.33244 2.71605 3.71285C2.71551 4.09165 3.00793 4.35671 3.43287 4.35671C5.52808 4.35724 7.62329 4.35671 9.71796 4.35671C9.78449 4.35671 9.85263 4.35617 9.91755 4.34222C10.2411 4.2714 10.4595 3.96825 10.424 3.64525C10.3881 3.31527 10.1139 3.07383 9.75981 3.07276C8.6953 3.07007 7.63133 3.07168 6.56683 3.07168ZM6.57112 5.6428C5.52701 5.6428 4.48289 5.6428 3.43877 5.6428C3.009 5.6428 2.71927 5.89981 2.71605 6.27968C2.71283 6.65902 3.00578 6.92783 3.42858 6.92783C5.52379 6.9289 7.61899 6.9289 9.71366 6.92783C10.137 6.92783 10.4294 6.66009 10.4267 6.28022C10.424 5.90196 10.1316 5.6428 9.70401 5.6428C8.65989 5.64227 7.61577 5.6428 6.57166 5.6428H6.57112ZM4.65244 8.21393C4.24413 8.21393 3.83582 8.21285 3.42751 8.21393C3.0031 8.215 2.71283 8.48059 2.71551 8.861C2.71819 9.23229 3.00847 9.49788 3.41839 9.49841C4.23501 9.50002 5.05163 9.50002 5.86771 9.49841C6.27763 9.49734 6.56737 9.23229 6.57005 8.86046C6.57273 8.48113 6.28031 8.21446 5.85698 8.21339C5.45565 8.21232 5.05377 8.21339 4.65244 8.21339V8.21393Z" fill="#64748B"/>
<path d="M16.8561 8.16666C16.8384 8.73325 16.656 9.18985 16.2847 9.56168C14.2802 11.5694 12.2751 13.5766 10.2636 15.5769C10.1568 15.6831 9.99696 15.7631 9.84833 15.7969C9.12561 15.961 8.39805 16.1075 7.67211 16.2561C7.12537 16.3677 6.75086 15.9906 6.86407 15.4422C6.98587 14.8531 7.11249 14.2656 7.23697 13.677C7.25897 13.5723 7.28365 13.4683 7.29921 13.3626C7.33355 13.1276 7.4473 12.9441 7.61577 12.7761C9.57309 10.8252 11.525 8.869 13.4797 6.91598C14.1965 6.19969 15.2261 6.0795 16.0245 6.62249C16.5814 7.00182 16.8304 7.54856 16.8561 8.16774V8.16666Z" fill="#64748B"/>
</g>
<defs>
<clipPath id="clip0_118_350">
<rect width="16.7123" height="18" fill="white" transform="translate(0.143854 0.5)"/>
</clipPath>
</defs>
</svg>
