<svg width="15" height="14" viewBox="0 0 15 14" fill="none" xmlns="http://www.w3.org/2000/svg">
<g clip-path="url(#clip0_211_8442)">
<path d="M7.95946 13.9966C6.33551 13.9966 4.71112 14.0001 3.08717 13.9953C2.01082 13.9922 1.17078 13.2793 0.985326 12.2236C0.969543 12.1324 0.964282 12.0385 0.964282 11.946C0.962528 10.9999 0.958144 10.0538 0.964282 9.10807C0.967789 8.56485 1.51364 8.23076 1.98144 8.47935C2.24231 8.6179 2.35849 8.84457 2.35762 9.13919C2.35499 10.0143 2.35674 10.889 2.35674 11.7641C2.35674 12.331 2.62506 12.6019 3.18713 12.6019C6.36971 12.6019 9.55272 12.6019 12.7353 12.6019C13.2912 12.6019 13.5639 12.331 13.5644 11.779C13.5648 10.8877 13.56 9.99633 13.567 9.105C13.5709 8.59773 14.0541 8.26452 14.5127 8.44735C14.7854 8.55608 14.9529 8.76346 14.9546 9.06071C14.9608 10.0669 14.9761 11.0736 14.9467 12.0789C14.9174 13.0684 14.0217 13.9475 13.0295 13.9865C12.4126 14.0106 11.794 13.9961 11.1758 13.9966C10.1038 13.9975 9.0323 13.9966 7.96034 13.9966H7.95946Z" fill="white"/>
<path d="M7.26274 7.35772C7.26274 7.29897 7.26274 7.24022 7.26274 7.18147C7.26274 5.0599 7.2623 2.93789 7.26406 0.816321C7.26406 0.702767 7.268 0.583952 7.30089 0.476975C7.4026 0.146836 7.71827 -0.0394978 8.07033 0.00741435C8.38951 0.0499422 8.64249 0.326593 8.65301 0.661116C8.66222 0.94522 8.65695 1.22976 8.65695 1.5143C8.65695 3.40657 8.65695 5.29841 8.65695 7.19068V7.36342C8.68195 7.38227 8.70694 7.40069 8.73149 7.41954C8.75867 7.36561 8.77402 7.30072 8.81435 7.25951C9.29005 6.77636 9.76838 6.2954 10.2485 5.81663C10.4558 5.60969 10.7057 5.53867 10.9855 5.63469C11.2573 5.72807 11.4164 5.92843 11.4563 6.21254C11.4914 6.46507 11.3875 6.66807 11.2113 6.84388C10.4133 7.63919 9.61756 8.43626 8.82093 9.23289C8.70869 9.34513 8.59864 9.45912 8.48421 9.56873C8.1646 9.8752 7.74589 9.87563 7.4311 9.56259C6.51259 8.64803 5.59626 7.7317 4.68213 6.81319C4.38312 6.51286 4.38005 6.08408 4.66416 5.80129C4.94782 5.51806 5.37529 5.52288 5.6765 5.82146C6.15395 6.29496 6.62702 6.77329 7.10052 7.25118C7.14217 7.29327 7.17374 7.34588 7.20969 7.39323C7.22723 7.3814 7.24521 7.37 7.26274 7.35816V7.35772Z" fill="white"/>
</g>
<defs>
<clipPath id="clip0_211_8442">
<rect width="14.0022" height="14" fill="white" transform="translate(0.960754)"/>
</clipPath>
</defs>
</svg>
