<svg width="128" height="41" viewBox="0 0 128 41" fill="none" xmlns="http://www.w3.org/2000/svg">
<path d="M22.1602 5V29H17.7773L7.33594 13.8945H7.16016V29H2.08594V5H6.53906L16.8984 20.0937H17.1094V5H22.1602ZM37.4553 21.3359V11H42.4475V29H37.6545V25.7305H37.467C37.0608 26.7852 36.385 27.6328 35.4397 28.2734C34.5022 28.9141 33.3576 29.2344 32.0061 29.2344C30.8029 29.2344 29.7443 28.9609 28.8303 28.4141C27.9162 27.8672 27.2014 27.0898 26.6858 26.082C26.1779 25.0742 25.9201 23.8672 25.9123 22.4609V11H30.9045V21.5703C30.9123 22.6328 31.1975 23.4727 31.76 24.0898C32.3225 24.707 33.0764 25.0156 34.0217 25.0156C34.6233 25.0156 35.1858 24.8789 35.7092 24.6055C36.2326 24.3242 36.6545 23.9102 36.9748 23.3633C37.3029 22.8164 37.4631 22.1406 37.4553 21.3359ZM46.0942 29V11H50.934V14.1406H51.1215C51.4496 13.0234 52.0004 12.1797 52.7738 11.6094C53.5473 11.0312 54.4379 10.7422 55.4457 10.7422C55.6957 10.7422 55.9653 10.7578 56.2543 10.7891C56.5434 10.8203 56.7973 10.8633 57.016 10.918V15.3477C56.7817 15.2773 56.4574 15.2148 56.0434 15.1602C55.6293 15.1055 55.2504 15.0781 54.9067 15.0781C54.1723 15.0781 53.516 15.2383 52.9379 15.5586C52.3676 15.8711 51.9145 16.3086 51.5785 16.8711C51.2504 17.4336 51.0863 18.082 51.0863 18.8164V29H46.0942ZM74.2272 16.1328L69.6569 16.4141C69.5787 16.0234 69.4108 15.6719 69.153 15.3594C68.8952 15.0391 68.5553 14.7852 68.1334 14.5977C67.7194 14.4023 67.2233 14.3047 66.6452 14.3047C65.8717 14.3047 65.2194 14.4687 64.6881 14.7969C64.1569 15.1172 63.8912 15.5469 63.8912 16.0859C63.8912 16.5156 64.0631 16.8789 64.4069 17.1758C64.7506 17.4727 65.3405 17.7109 66.1764 17.8906L69.4342 18.5469C71.1842 18.9062 72.4889 19.4844 73.3483 20.2812C74.2077 21.0781 74.6373 22.125 74.6373 23.4219C74.6373 24.6016 74.2897 25.6367 73.5944 26.5273C72.9069 27.418 71.9616 28.1133 70.7584 28.6133C69.5631 29.1055 68.1842 29.3516 66.6217 29.3516C64.2389 29.3516 62.3405 28.8555 60.9264 27.8633C59.5202 26.8633 58.6959 25.5039 58.4537 23.7852L63.3639 23.5273C63.5123 24.2539 63.8717 24.8086 64.442 25.1914C65.0123 25.5664 65.7428 25.7539 66.6334 25.7539C67.5084 25.7539 68.2116 25.5859 68.7428 25.25C69.2819 24.9062 69.5553 24.4648 69.5631 23.9258C69.5553 23.4727 69.3639 23.1016 68.9889 22.8125C68.6139 22.5156 68.0358 22.2891 67.2545 22.1328L64.1373 21.5117C62.3795 21.1602 61.0709 20.5508 60.2116 19.6836C59.36 18.8164 58.9342 17.7109 58.9342 16.3672C58.9342 15.2109 59.2467 14.2148 59.8717 13.3789C60.5045 12.543 61.3912 11.8984 62.5319 11.4453C63.6803 10.9922 65.0241 10.7656 66.5631 10.7656C68.8366 10.7656 70.6256 11.2461 71.9303 12.207C73.2428 13.168 74.0084 14.4766 74.2272 16.1328ZM85.6375 29.3516C83.786 29.3516 82.1922 28.9766 80.8563 28.2266C79.5282 27.4687 78.5047 26.3984 77.786 25.0156C77.0672 23.625 76.7079 21.9805 76.7079 20.082C76.7079 18.2305 77.0672 16.6055 77.786 15.207C78.5047 13.8086 79.5164 12.7187 80.8211 11.9375C82.1336 11.1562 83.6727 10.7656 85.4383 10.7656C86.6258 10.7656 87.7313 10.957 88.7547 11.3398C89.786 11.7148 90.6844 12.2812 91.45 13.0391C92.2235 13.7969 92.825 14.75 93.2547 15.8984C93.6844 17.0391 93.8993 18.375 93.8993 19.9062V21.2773H78.7V18.1836H89.2C89.2 17.4648 89.0438 16.8281 88.7313 16.2734C88.4188 15.7187 87.9852 15.2852 87.4305 14.9727C86.8836 14.6523 86.2469 14.4922 85.5204 14.4922C84.7625 14.4922 84.0907 14.668 83.5047 15.0195C82.9266 15.3633 82.4735 15.8281 82.1454 16.4141C81.8172 16.9922 81.6493 17.6367 81.6414 18.3477V21.2891C81.6414 22.1797 81.8055 22.9492 82.1336 23.5977C82.4696 24.2461 82.9422 24.7461 83.5516 25.0977C84.161 25.4492 84.8836 25.625 85.7196 25.625C86.2743 25.625 86.7821 25.5469 87.243 25.3906C87.7039 25.2344 88.0985 25 88.4266 24.6875C88.7547 24.375 89.0047 23.9922 89.1766 23.5391L93.7938 23.8438C93.5594 24.9531 93.0789 25.9219 92.3524 26.75C91.6336 27.5703 90.7039 28.2109 89.5633 28.6719C88.4305 29.125 87.1219 29.3516 85.6375 29.3516ZM96.8106 29V11H101.65V14.1406H101.838C102.166 13.0234 102.717 12.1797 103.49 11.6094C104.264 11.0312 105.154 10.7422 106.162 10.7422C106.412 10.7422 106.682 10.7578 106.971 10.7891C107.26 10.8203 107.514 10.8633 107.732 10.918V15.3477C107.498 15.2773 107.174 15.2148 106.76 15.1602C106.346 15.1055 105.967 15.0781 105.623 15.0781C104.889 15.0781 104.232 15.2383 103.654 15.5586C103.084 15.8711 102.631 16.3086 102.295 16.8711C101.967 17.4336 101.803 18.082 101.803 18.8164V29H96.8106ZM113.597 35.75C112.964 35.75 112.37 35.6992 111.816 35.5977C111.269 35.5039 110.816 35.3828 110.456 35.2344L111.581 31.5078C112.167 31.6875 112.695 31.7852 113.163 31.8008C113.64 31.8164 114.05 31.707 114.394 31.4727C114.745 31.2383 115.031 30.8398 115.249 30.2773L115.542 29.5156L109.085 11H114.335L118.062 24.2187H118.249L122.011 11H127.296L120.3 30.9453C119.964 31.9141 119.507 32.7578 118.929 33.4766C118.359 34.2031 117.636 34.7617 116.761 35.1523C115.886 35.5508 114.831 35.75 113.597 35.75Z" fill="#4D1384"/>
<path d="M0.24858 34.7965V33.9091H4.42969V34.7965H2.87109V39H1.80717V34.7965H0.24858ZM6.15732 36.7926V39H5.09837V33.9091H6.12749V35.8555H6.17223C6.2584 35.6301 6.39761 35.4536 6.58984 35.326C6.78208 35.1967 7.0232 35.1321 7.31321 35.1321C7.57836 35.1321 7.80954 35.1901 8.00675 35.3061C8.20561 35.4205 8.35973 35.5853 8.46911 35.8008C8.58014 36.0146 8.63483 36.2706 8.63317 36.5689V39H7.57422V36.7578C7.57588 36.5225 7.51622 36.3394 7.39524 36.2085C7.27592 36.0775 7.10855 36.0121 6.89311 36.0121C6.74893 36.0121 6.62133 36.0427 6.5103 36.104C6.40092 36.1654 6.31475 36.2549 6.25178 36.3725C6.19046 36.4885 6.15897 36.6286 6.15732 36.7926ZM11.2066 39.0746C10.8138 39.0746 10.4758 38.995 10.1924 38.8359C9.91066 38.6752 9.69357 38.4482 9.5411 38.1548C9.38864 37.8598 9.31241 37.511 9.31241 37.1083C9.31241 36.7156 9.38864 36.3709 9.5411 36.0742C9.69357 35.7776 9.90817 35.5464 10.1849 35.3807C10.4633 35.215 10.7898 35.1321 11.1643 35.1321C11.4162 35.1321 11.6507 35.1727 11.8678 35.2539C12.0866 35.3335 12.2771 35.4536 12.4395 35.6143C12.6036 35.7751 12.7312 35.9773 12.8224 36.2209C12.9135 36.4628 12.9591 36.7462 12.9591 37.071V37.3619H9.735V36.7056H11.9623C11.9623 36.5531 11.9291 36.4181 11.8628 36.3004C11.7965 36.1828 11.7046 36.0908 11.5869 36.0245C11.4709 35.9566 11.3358 35.9226 11.1817 35.9226C11.021 35.9226 10.8785 35.9599 10.7542 36.0344C10.6315 36.1074 10.5354 36.206 10.4658 36.3303C10.3962 36.4529 10.3606 36.5896 10.3589 36.7404V37.3643C10.3589 37.5533 10.3937 37.7165 10.4633 37.854C10.5346 37.9916 10.6349 38.0977 10.7641 38.1722C10.8934 38.2468 11.0467 38.2841 11.224 38.2841C11.3416 38.2841 11.4494 38.2675 11.5471 38.2344C11.6449 38.2012 11.7286 38.1515 11.7982 38.0852C11.8678 38.0189 11.9208 37.9377 11.9573 37.8416L12.9367 37.9062C12.887 38.1416 12.7851 38.3471 12.6309 38.5227C12.4785 38.6967 12.2813 38.8326 12.0393 38.9304C11.799 39.0265 11.5215 39.0746 11.2066 39.0746ZM15.2901 39V33.9091H17.2987C17.6848 33.9091 18.0137 33.9828 18.2855 34.1303C18.5573 34.2762 18.7644 34.4792 18.907 34.7393C19.0511 34.9979 19.1232 35.2962 19.1232 35.6342C19.1232 35.9723 19.0503 36.2706 18.9045 36.5291C18.7586 36.7876 18.5473 36.989 18.2706 37.1332C17.9955 37.2773 17.6624 37.3494 17.2713 37.3494H15.9911V36.4869H17.0973C17.3045 36.4869 17.4751 36.4512 17.6094 36.38C17.7453 36.3071 17.8464 36.2068 17.9126 36.0792C17.9806 35.9499 18.0146 35.8016 18.0146 35.6342C18.0146 35.4652 17.9806 35.3177 17.9126 35.1918C17.8464 35.0642 17.7453 34.9656 17.6094 34.896C17.4735 34.8247 17.3011 34.7891 17.0923 34.7891H16.3665V39H15.2901ZM19.8025 39V35.1818H20.8291V35.848H20.8689C20.9385 35.611 21.0553 35.4321 21.2194 35.3111C21.3834 35.1884 21.5724 35.1271 21.7861 35.1271C21.8392 35.1271 21.8963 35.1304 21.9577 35.1371C22.019 35.1437 22.0728 35.1528 22.1192 35.1644V36.104C22.0695 36.0891 22.0007 36.0759 21.9129 36.0643C21.8251 36.0527 21.7447 36.0469 21.6718 36.0469C21.516 36.0469 21.3768 36.0808 21.2542 36.1488C21.1332 36.2151 21.0371 36.3079 20.9658 36.4272C20.8962 36.5465 20.8614 36.6841 20.8614 36.8398V39H19.8025ZM24.2141 39.0746C23.828 39.0746 23.4941 38.9925 23.2124 38.8285C22.9323 38.6628 22.716 38.4324 22.5636 38.1374C22.4111 37.8408 22.3349 37.4969 22.3349 37.1058C22.3349 36.7114 22.4111 36.3667 22.5636 36.0717C22.716 35.7751 22.9323 35.5447 23.2124 35.3807C23.4941 35.215 23.828 35.1321 24.2141 35.1321C24.6003 35.1321 24.9334 35.215 25.2134 35.3807C25.4951 35.5447 25.7122 35.7751 25.8647 36.0717C26.0172 36.3667 26.0934 36.7114 26.0934 37.1058C26.0934 37.4969 26.0172 37.8408 25.8647 38.1374C25.7122 38.4324 25.4951 38.6628 25.2134 38.8285C24.9334 38.9925 24.6003 39.0746 24.2141 39.0746ZM24.2191 38.2543C24.3948 38.2543 24.5414 38.2045 24.6591 38.1051C24.7768 38.004 24.8654 37.8665 24.9251 37.6925C24.9864 37.5185 25.017 37.3204 25.017 37.0984C25.017 36.8763 24.9864 36.6783 24.9251 36.5043C24.8654 36.3303 24.7768 36.1927 24.6591 36.0916C24.5414 35.9905 24.3948 35.94 24.2191 35.94C24.0418 35.94 23.8926 35.9905 23.7717 36.0916C23.6523 36.1927 23.562 36.3303 23.5007 36.5043C23.4411 36.6783 23.4112 36.8763 23.4112 37.0984C23.4112 37.3204 23.4411 37.5185 23.5007 37.6925C23.562 37.8665 23.6523 38.004 23.7717 38.1051C23.8926 38.2045 24.0418 38.2543 24.2191 38.2543ZM28.8352 35.1818V35.9773H26.4787V35.1818H28.8352ZM27.0181 39V34.9059C27.0181 34.6291 27.072 34.3996 27.1797 34.2173C27.2891 34.035 27.4382 33.8983 27.6271 33.8072C27.8161 33.716 28.0307 33.6705 28.271 33.6705C28.4334 33.6705 28.5817 33.6829 28.7159 33.7077C28.8518 33.7326 28.9529 33.755 29.0192 33.7749L28.8303 34.5703C28.7888 34.5571 28.7375 34.5446 28.6761 34.533C28.6165 34.5214 28.5552 34.5156 28.4922 34.5156C28.3364 34.5156 28.2279 34.5521 28.1665 34.625C28.1052 34.6963 28.0746 34.7965 28.0746 34.9258V39H27.0181ZM29.4822 39V35.1818H30.5411V39H29.4822ZM30.0141 34.6896C29.8567 34.6896 29.7216 34.6374 29.6089 34.533C29.4979 34.427 29.4424 34.3002 29.4424 34.1527C29.4424 34.0069 29.4979 33.8817 29.6089 33.7773C29.7216 33.6713 29.8567 33.6183 30.0141 33.6183C30.1715 33.6183 30.3058 33.6713 30.4168 33.7773C30.5295 33.8817 30.5858 34.0069 30.5858 34.1527C30.5858 34.3002 30.5295 34.427 30.4168 34.533C30.3058 34.6374 30.1715 34.6896 30.0141 34.6896ZM33.4203 35.1818V35.9773H31.1209V35.1818H33.4203ZM31.6429 34.267H32.7019V37.8267C32.7019 37.9245 32.7168 38.0007 32.7466 38.0554C32.7765 38.1084 32.8179 38.1457 32.8709 38.1673C32.9256 38.1888 32.9886 38.1996 33.0598 38.1996C33.1096 38.1996 33.1593 38.1954 33.209 38.1871C33.2587 38.1772 33.2968 38.1697 33.3233 38.1648L33.4899 38.9528C33.4368 38.9693 33.3623 38.9884 33.2662 39.0099C33.17 39.0331 33.0532 39.0472 32.9157 39.0522C32.6605 39.0621 32.4367 39.0282 32.2445 38.9503C32.0539 38.8724 31.9056 38.7514 31.7995 38.5874C31.6935 38.4233 31.6413 38.2161 31.6429 37.9659V34.267ZM35.1989 39.0721C34.9553 39.0721 34.7382 39.0298 34.5476 38.9453C34.357 38.8591 34.2062 38.7324 34.0952 38.565C33.9858 38.396 33.9311 38.1855 33.9311 37.9336C33.9311 37.7215 33.9701 37.5433 34.0479 37.3991C34.1258 37.255 34.2319 37.139 34.3661 37.0511C34.5004 36.9633 34.6528 36.897 34.8235 36.8523C34.9959 36.8075 35.1765 36.776 35.3654 36.7578C35.5875 36.7346 35.7665 36.7131 35.9023 36.6932C36.0382 36.6716 36.1368 36.6402 36.1982 36.5987C36.2595 36.5573 36.2901 36.496 36.2901 36.4148V36.3999C36.2901 36.2424 36.2404 36.1206 36.141 36.0344C36.0432 35.9483 35.904 35.9052 35.7234 35.9052C35.5328 35.9052 35.3812 35.9474 35.2685 36.032C35.1558 36.1148 35.0812 36.2192 35.0447 36.3452L34.0653 36.2656C34.1151 36.0336 34.2128 35.8331 34.3587 35.6641C34.5045 35.4934 34.6926 35.3625 34.9229 35.2713C35.1549 35.1785 35.4234 35.1321 35.7283 35.1321C35.9405 35.1321 36.1435 35.157 36.3374 35.2067C36.5329 35.2564 36.7061 35.3335 36.8569 35.4379C37.0094 35.5423 37.1295 35.6765 37.2173 35.8406C37.3052 36.003 37.3491 36.1977 37.3491 36.4247V39H36.3448V38.4705H36.315C36.2537 38.5898 36.1716 38.6951 36.0689 38.7862C35.9661 38.8757 35.8427 38.9461 35.6985 38.9975C35.5543 39.0472 35.3878 39.0721 35.1989 39.0721ZM35.5021 38.3413C35.6579 38.3413 35.7955 38.3106 35.9148 38.2493C36.0341 38.1863 36.1277 38.1018 36.1957 37.9957C36.2636 37.8897 36.2976 37.7695 36.2976 37.6353V37.2301C36.2644 37.2517 36.2189 37.2715 36.1609 37.2898C36.1045 37.3063 36.0407 37.3221 35.9695 37.337C35.8982 37.3503 35.8269 37.3627 35.7557 37.3743C35.6844 37.3842 35.6198 37.3933 35.5618 37.4016C35.4375 37.4199 35.329 37.4489 35.2362 37.4886C35.1433 37.5284 35.0713 37.5823 35.0199 37.6502C34.9685 37.7165 34.9428 37.7994 34.9428 37.8988C34.9428 38.043 34.995 38.1532 35.0994 38.2294C35.2055 38.304 35.3397 38.3413 35.5021 38.3413ZM38.1905 39V33.9091H39.2495V35.8232H39.2818C39.3282 35.7204 39.3953 35.616 39.4831 35.5099C39.5726 35.4022 39.6886 35.3127 39.8311 35.2415C39.9753 35.1686 40.1543 35.1321 40.3681 35.1321C40.6465 35.1321 40.9033 35.205 41.1387 35.3509C41.374 35.495 41.5621 35.7129 41.7029 36.0046C41.8438 36.2946 41.9142 36.6584 41.9142 37.0959C41.9142 37.5218 41.8455 37.8814 41.7079 38.1747C41.572 38.4664 41.3864 38.6876 41.1511 38.8384C40.9174 38.9876 40.6556 39.0621 40.3656 39.0621C40.1601 39.0621 39.9853 39.0282 39.8411 38.9602C39.6986 38.8923 39.5817 38.8069 39.4906 38.7042C39.3994 38.5998 39.3298 38.4946 39.2818 38.3885H39.2346V39H38.1905ZM39.2271 37.0909C39.2271 37.3179 39.2586 37.516 39.3216 37.685C39.3845 37.854 39.4757 37.9858 39.595 38.0803C39.7143 38.1731 39.8593 38.2195 40.03 38.2195C40.2024 38.2195 40.3482 38.1722 40.4675 38.0778C40.5868 37.9817 40.6771 37.8491 40.7385 37.68C40.8014 37.5094 40.8329 37.313 40.8329 37.0909C40.8329 36.8705 40.8023 36.6766 40.7409 36.5092C40.6796 36.3419 40.5893 36.2109 40.47 36.1165C40.3507 36.022 40.204 35.9748 40.03 35.9748C39.8577 35.9748 39.7118 36.0204 39.5925 36.1115C39.4748 36.2027 39.3845 36.3319 39.3216 36.4993C39.2586 36.6667 39.2271 36.8639 39.2271 37.0909ZM43.6798 33.9091V39H42.6208V33.9091H43.6798ZM46.2681 39.0746C45.8754 39.0746 45.5373 38.995 45.2539 38.8359C44.9722 38.6752 44.7551 38.4482 44.6026 38.1548C44.4502 37.8598 44.3739 37.511 44.3739 37.1083C44.3739 36.7156 44.4502 36.3709 44.6026 36.0742C44.7551 35.7776 44.9697 35.5464 45.2464 35.3807C45.5249 35.215 45.8513 35.1321 46.2259 35.1321C46.4777 35.1321 46.7122 35.1727 46.9293 35.2539C47.1481 35.3335 47.3387 35.4536 47.5011 35.6143C47.6651 35.7751 47.7927 35.9773 47.8839 36.2209C47.975 36.4628 48.0206 36.7462 48.0206 37.071V37.3619H44.7965V36.7056H47.0238C47.0238 36.5531 46.9906 36.4181 46.9244 36.3004C46.8581 36.1828 46.7661 36.0908 46.6484 36.0245C46.5324 35.9566 46.3974 35.9226 46.2433 35.9226C46.0825 35.9226 45.94 35.9599 45.8157 36.0344C45.6931 36.1074 45.5969 36.206 45.5273 36.3303C45.4577 36.4529 45.4221 36.5896 45.4205 36.7404V37.3643C45.4205 37.5533 45.4553 37.7165 45.5249 37.854C45.5961 37.9916 45.6964 38.0977 45.8256 38.1722C45.9549 38.2468 46.1082 38.2841 46.2855 38.2841C46.4032 38.2841 46.5109 38.2675 46.6087 38.2344C46.7064 38.2012 46.7901 38.1515 46.8597 38.0852C46.9293 38.0189 46.9824 37.9377 47.0188 37.8416L47.9982 37.9062C47.9485 38.1416 47.8466 38.3471 47.6925 38.5227C47.54 38.6967 47.3428 38.8326 47.1009 38.9304C46.8606 39.0265 46.583 39.0746 46.2681 39.0746ZM54.6098 33.9091V39H53.6801L51.4653 35.7958H51.428V39H50.3517V33.9091H51.2963L53.4937 37.1108H53.5384V33.9091H54.6098ZM57.9277 37.3743V35.1818H58.9867V39H57.97V38.3065H57.9302C57.844 38.5302 57.7007 38.71 57.5002 38.8459C57.3013 38.9818 57.0585 39.0497 56.7718 39.0497C56.5166 39.0497 56.2921 38.9917 56.0982 38.8757C55.9043 38.7597 55.7527 38.5948 55.6433 38.381C55.5356 38.1673 55.4809 37.9112 55.4792 37.6129V35.1818H56.5382V37.424C56.5398 37.6494 56.6003 37.8275 56.7196 37.9585C56.839 38.0894 56.9989 38.1548 57.1994 38.1548C57.327 38.1548 57.4463 38.1258 57.5574 38.0678C57.6684 38.0082 57.7579 37.9203 57.8258 37.8043C57.8954 37.6883 57.9294 37.545 57.9277 37.3743ZM59.8337 39V35.1818H60.8604V35.848H60.9001C60.9697 35.611 61.0866 35.4321 61.2506 35.3111C61.4147 35.1884 61.6036 35.1271 61.8174 35.1271C61.8704 35.1271 61.9276 35.1304 61.9889 35.1371C62.0502 35.1437 62.1041 35.1528 62.1505 35.1644V36.104C62.1008 36.0891 62.032 36.0759 61.9442 36.0643C61.8563 36.0527 61.776 36.0469 61.703 36.0469C61.5473 36.0469 61.4081 36.0808 61.2854 36.1488C61.1644 36.2151 61.0683 36.3079 60.9971 36.4272C60.9275 36.5465 60.8927 36.6841 60.8927 36.8398V39H59.8337ZM65.8748 36.2706L64.9054 36.3303C64.8888 36.2474 64.8532 36.1728 64.7985 36.1065C64.7438 36.0386 64.6717 35.9847 64.5822 35.945C64.4944 35.9035 64.3891 35.8828 64.2665 35.8828C64.1025 35.8828 63.9641 35.9176 63.8514 35.9872C63.7387 36.0552 63.6824 36.1463 63.6824 36.2607C63.6824 36.3518 63.7188 36.4289 63.7917 36.4918C63.8646 36.5548 63.9898 36.6054 64.1671 36.6435L64.8581 36.7827C65.2293 36.8589 65.5061 36.9815 65.6884 37.1506C65.8707 37.3196 65.9618 37.5417 65.9618 37.8168C65.9618 38.067 65.8881 38.2866 65.7406 38.4755C65.5948 38.6644 65.3942 38.8119 65.139 38.918C64.8855 39.0224 64.593 39.0746 64.2615 39.0746C63.7561 39.0746 63.3534 38.9693 63.0534 38.7589C62.7551 38.5468 62.5803 38.2584 62.5289 37.8938L63.5705 37.8391C63.602 37.9933 63.6782 38.1109 63.7992 38.1921C63.9202 38.2717 64.0751 38.3114 64.264 38.3114C64.4496 38.3114 64.5988 38.2758 64.7115 38.2045C64.8258 38.1316 64.8838 38.038 64.8855 37.9237C64.8838 37.8275 64.8432 37.7488 64.7637 37.6875C64.6841 37.6245 64.5615 37.5765 64.3958 37.5433L63.7346 37.4116C63.3617 37.337 63.0841 37.2077 62.9018 37.0238C62.7212 36.8398 62.6309 36.6054 62.6309 36.3203C62.6309 36.075 62.6971 35.8638 62.8297 35.6864C62.964 35.5091 63.152 35.3724 63.394 35.2763C63.6376 35.1802 63.9226 35.1321 64.2491 35.1321C64.7314 35.1321 65.1109 35.234 65.3876 35.4379C65.666 35.6417 65.8284 35.9193 65.8748 36.2706ZM68.3687 39.0746C67.9759 39.0746 67.6379 38.995 67.3545 38.8359C67.0728 38.6752 66.8557 38.4482 66.7032 38.1548C66.5508 37.8598 66.4745 37.511 66.4745 37.1083C66.4745 36.7156 66.5508 36.3709 66.7032 36.0742C66.8557 35.7776 67.0703 35.5464 67.347 35.3807C67.6254 35.215 67.9519 35.1321 68.3264 35.1321C68.5783 35.1321 68.8128 35.1727 69.0299 35.2539C69.2487 35.3335 69.4392 35.4536 69.6017 35.6143C69.7657 35.7751 69.8933 35.9773 69.9845 36.2209C70.0756 36.4628 70.1212 36.7462 70.1212 37.071V37.3619H66.8971V36.7056H69.1244C69.1244 36.5531 69.0912 36.4181 69.0249 36.3004C68.9587 36.1828 68.8667 36.0908 68.749 36.0245C68.633 35.9566 68.498 35.9226 68.3438 35.9226C68.1831 35.9226 68.0406 35.9599 67.9163 36.0344C67.7936 36.1074 67.6975 36.206 67.6279 36.3303C67.5583 36.4529 67.5227 36.5896 67.521 36.7404V37.3643C67.521 37.5533 67.5558 37.7165 67.6254 37.854C67.6967 37.9916 67.797 38.0977 67.9262 38.1722C68.0555 38.2468 68.2088 38.2841 68.3861 38.2841C68.5038 38.2841 68.6115 38.2675 68.7093 38.2344C68.807 38.2012 68.8907 38.1515 68.9603 38.0852C69.0299 38.0189 69.0829 37.9377 69.1194 37.8416L70.0988 37.9062C70.0491 38.1416 69.9472 38.3471 69.7931 38.5227C69.6406 38.6967 69.4434 38.8326 69.2014 38.9304C68.9611 39.0265 68.6836 39.0746 68.3687 39.0746ZM70.8122 39V35.1818H71.8389V35.848H71.8786C71.9482 35.611 72.0651 35.4321 72.2291 35.3111C72.3932 35.1884 72.5821 35.1271 72.7959 35.1271C72.8489 35.1271 72.9061 35.1304 72.9674 35.1371C73.0287 35.1437 73.0826 35.1528 73.129 35.1644V36.104C73.0793 36.0891 73.0105 36.0759 72.9227 36.0643C72.8348 36.0527 72.7545 36.0469 72.6816 36.0469C72.5258 36.0469 72.3866 36.0808 72.2639 36.1488C72.143 36.2151 72.0468 36.3079 71.9756 36.4272C71.906 36.5465 71.8712 36.6841 71.8712 36.8398V39H70.8122ZM74.4465 40.4318C74.3122 40.4318 74.1863 40.421 74.0686 40.3995C73.9526 40.3796 73.8565 40.3539 73.7803 40.3224L74.0189 39.532C74.1432 39.5701 74.2551 39.5908 74.3545 39.5941C74.4556 39.5974 74.5426 39.5742 74.6155 39.5245C74.6901 39.4748 74.7506 39.3903 74.797 39.271L74.8591 39.1094L73.4894 35.1818H74.6031L75.3936 37.9858H75.4333L76.2313 35.1818H77.3524L75.8683 39.4126C75.7971 39.6181 75.7001 39.7971 75.5775 39.9496C75.4565 40.1037 75.3032 40.2222 75.1176 40.305C74.932 40.3896 74.7083 40.4318 74.4465 40.4318ZM79.3404 34.7965V33.9091H83.5215V34.7965H81.9629V39H80.899V34.7965H79.3404ZM85.3616 39.0746C84.9755 39.0746 84.6415 38.9925 84.3598 38.8285C84.0798 38.6628 83.8635 38.4324 83.711 38.1374C83.5586 37.8408 83.4823 37.4969 83.4823 37.1058C83.4823 36.7114 83.5586 36.3667 83.711 36.0717C83.8635 35.7751 84.0798 35.5447 84.3598 35.3807C84.6415 35.215 84.9755 35.1321 85.3616 35.1321C85.7477 35.1321 86.0808 35.215 86.3609 35.3807C86.6426 35.5447 86.8597 35.7751 87.0122 36.0717C87.1646 36.3667 87.2409 36.7114 87.2409 37.1058C87.2409 37.4969 87.1646 37.8408 87.0122 38.1374C86.8597 38.4324 86.6426 38.6628 86.3609 38.8285C86.0808 38.9925 85.7477 39.0746 85.3616 39.0746ZM85.3666 38.2543C85.5422 38.2543 85.6889 38.2045 85.8066 38.1051C85.9242 38.004 86.0129 37.8665 86.0725 37.6925C86.1338 37.5185 86.1645 37.3204 86.1645 37.0984C86.1645 36.8763 86.1338 36.6783 86.0725 36.5043C86.0129 36.3303 85.9242 36.1927 85.8066 36.0916C85.6889 35.9905 85.5422 35.94 85.3666 35.94C85.1892 35.94 85.0401 35.9905 84.9191 36.0916C84.7998 36.1927 84.7095 36.3303 84.6482 36.5043C84.5885 36.6783 84.5587 36.8763 84.5587 37.0984C84.5587 37.3204 84.5885 37.5185 84.6482 37.6925C84.7095 37.8665 84.7998 38.004 84.9191 38.1051C85.0401 38.2045 85.1892 38.2543 85.3666 38.2543ZM89.6546 39.0746C89.2684 39.0746 88.9345 38.9925 88.6528 38.8285C88.3727 38.6628 88.1565 38.4324 88.004 38.1374C87.8515 37.8408 87.7753 37.4969 87.7753 37.1058C87.7753 36.7114 87.8515 36.3667 88.004 36.0717C88.1565 35.7751 88.3727 35.5447 88.6528 35.3807C88.9345 35.215 89.2684 35.1321 89.6546 35.1321C90.0407 35.1321 90.3738 35.215 90.6539 35.3807C90.9356 35.5447 91.1527 35.7751 91.3051 36.0717C91.4576 36.3667 91.5338 36.7114 91.5338 37.1058C91.5338 37.4969 91.4576 37.8408 91.3051 38.1374C91.1527 38.4324 90.9356 38.6628 90.6539 38.8285C90.3738 38.9925 90.0407 39.0746 89.6546 39.0746ZM89.6595 38.2543C89.8352 38.2543 89.9819 38.2045 90.0995 38.1051C90.2172 38.004 90.3058 37.8665 90.3655 37.6925C90.4268 37.5185 90.4575 37.3204 90.4575 37.0984C90.4575 36.8763 90.4268 36.6783 90.3655 36.5043C90.3058 36.3303 90.2172 36.1927 90.0995 36.0916C89.9819 35.9905 89.8352 35.94 89.6595 35.94C89.4822 35.94 89.3331 35.9905 89.2121 36.0916C89.0928 36.1927 89.0025 36.3303 88.9411 36.5043C88.8815 36.6783 88.8517 36.8763 88.8517 37.0984C88.8517 37.3204 88.8815 37.5185 88.9411 37.6925C89.0025 37.8665 89.0928 38.004 89.2121 38.1051C89.3331 38.2045 89.4822 38.2543 89.6595 38.2543ZM93.2813 33.9091V39H92.2224V33.9091H93.2813ZM94.1495 39V33.9091H95.2085V35.8232H95.2408C95.2872 35.7204 95.3543 35.616 95.4421 35.5099C95.5316 35.4022 95.6476 35.3127 95.7901 35.2415C95.9343 35.1686 96.1133 35.1321 96.3271 35.1321C96.6055 35.1321 96.8623 35.205 97.0977 35.3509C97.333 35.495 97.5211 35.7129 97.6619 36.0046C97.8028 36.2946 97.8732 36.6584 97.8732 37.0959C97.8732 37.5218 97.8045 37.8814 97.6669 38.1747C97.531 38.4664 97.3454 38.6876 97.1101 38.8384C96.8764 38.9876 96.6146 39.0621 96.3246 39.0621C96.1191 39.0621 95.9442 39.0282 95.8001 38.9602C95.6576 38.8923 95.5407 38.8069 95.4496 38.7042C95.3584 38.5998 95.2888 38.4946 95.2408 38.3885H95.1935V39H94.1495ZM95.1861 37.0909C95.1861 37.3179 95.2176 37.516 95.2805 37.685C95.3435 37.854 95.4347 37.9858 95.554 38.0803C95.6733 38.1731 95.8183 38.2195 95.989 38.2195C96.1613 38.2195 96.3072 38.1722 96.4265 38.0778C96.5458 37.9817 96.6361 37.8491 96.6974 37.68C96.7604 37.5094 96.7919 37.313 96.7919 37.0909C96.7919 36.8705 96.7612 36.6766 96.6999 36.5092C96.6386 36.3419 96.5483 36.2109 96.429 36.1165C96.3097 36.022 96.163 35.9748 95.989 35.9748C95.8166 35.9748 95.6708 36.0204 95.5515 36.1115C95.4338 36.2027 95.3435 36.3319 95.2805 36.4993C95.2176 36.6667 95.1861 36.8639 95.1861 37.0909ZM100.305 39.0746C99.9188 39.0746 99.5849 38.9925 99.3032 38.8285C99.0231 38.6628 98.8068 38.4324 98.6544 38.1374C98.5019 37.8408 98.4257 37.4969 98.4257 37.1058C98.4257 36.7114 98.5019 36.3667 98.6544 36.0717C98.8068 35.7751 99.0231 35.5447 99.3032 35.3807C99.5849 35.215 99.9188 35.1321 100.305 35.1321C100.691 35.1321 101.024 35.215 101.304 35.3807C101.586 35.5447 101.803 35.7751 101.956 36.0717C102.108 36.3667 102.184 36.7114 102.184 37.1058C102.184 37.4969 102.108 37.8408 101.956 38.1374C101.803 38.4324 101.586 38.6628 101.304 38.8285C101.024 38.9925 100.691 39.0746 100.305 39.0746ZM100.31 38.2543C100.486 38.2543 100.632 38.2045 100.75 38.1051C100.868 38.004 100.956 37.8665 101.016 37.6925C101.077 37.5185 101.108 37.3204 101.108 37.0984C101.108 36.8763 101.077 36.6783 101.016 36.5043C100.956 36.3303 100.868 36.1927 100.75 36.0916C100.632 35.9905 100.486 35.94 100.31 35.94C100.133 35.94 99.9835 35.9905 99.8625 36.0916C99.7432 36.1927 99.6528 36.3303 99.5915 36.5043C99.5319 36.6783 99.502 36.8763 99.502 37.0984C99.502 37.3204 99.5319 37.5185 99.5915 37.6925C99.6528 37.8665 99.7432 38.004 99.8625 38.1051C99.9835 38.2045 100.133 38.2543 100.31 38.2543ZM103.621 35.1818L104.322 36.5167L105.04 35.1818H106.127L105.021 37.0909L106.157 39H105.075L104.322 37.68L103.581 39H102.487L103.621 37.0909L102.527 35.1818H103.621Z" fill="#4D1384"/>
</svg>
