<svg width="19" height="19" viewBox="0 0 19 19" fill="none" xmlns="http://www.w3.org/2000/svg">
<g clip-path="url(#clip0_118_334)">
<path d="M18.5002 9.60401C18.4101 9.74631 18.2814 9.79233 18.1142 9.78905C17.7112 9.78059 17.3083 9.78623 16.8945 9.78623V9.21092C17.0833 9.21092 17.274 9.21092 17.4642 9.21092C17.6807 9.21092 17.8977 9.2189 18.1142 9.20857C18.2818 9.20058 18.4101 9.25131 18.5002 9.39314V9.60401Z" fill="#64748B"/>
<path d="M9.42955 18.5C9.26659 18.4258 9.20553 18.3013 9.20976 18.1215C9.21868 17.718 9.21258 17.3146 9.21258 16.8976H9.78366C9.78366 17.3475 9.79494 17.7965 9.7738 18.2436C9.76957 18.3323 9.64136 18.415 9.57045 18.5H9.43002H9.42955Z" fill="#64748B"/>
<path d="M9.48685 13.6035C7.24477 13.6054 5.39626 11.754 5.39438 9.50351C5.39203 7.24265 7.23397 5.39648 9.49389 5.39319C11.7533 5.38991 13.6094 7.2403 13.6051 9.49177C13.6004 11.7648 11.7609 13.6016 9.48732 13.6035H9.48685ZM9.33375 9.90505C9.23465 9.90505 9.16514 9.90505 9.09564 9.90505C8.67953 9.90505 8.26343 9.90223 7.8478 9.9074C7.65806 9.90975 7.53548 10.03 7.53454 10.1929C7.5336 10.3559 7.65994 10.4813 7.84451 10.4827C8.43062 10.486 9.01627 10.486 9.60238 10.4827C9.79681 10.4818 9.91563 10.3709 9.91657 10.1793C9.9208 9.318 9.9208 8.4562 9.91657 7.59488C9.91563 7.42017 9.79024 7.29853 9.63432 7.29337C9.47839 7.28867 9.35535 7.40561 9.33656 7.57985C9.33093 7.63198 9.33375 7.68505 9.33375 7.73812C9.33375 8.34161 9.33375 8.9451 9.33375 9.54906C9.33375 9.65943 9.33375 9.77026 9.33375 9.90505Z" fill="#64748B"/>
<path d="M16.2685 9.20155H14.2058C13.8245 6.64622 12.3625 5.1814 9.79823 4.79019V2.72705C13.2562 2.81112 16.191 5.77034 16.2685 9.20155Z" fill="#64748B"/>
<path d="M2.7254 9.79565H4.81907C4.92098 10.9637 5.36104 11.9753 6.18714 12.8032C7.01371 13.6322 8.02485 14.0727 9.19849 14.1793V16.264C5.9805 16.2208 2.8508 13.4636 2.7254 9.79565Z" fill="#64748B"/>
<path d="M9.79588 16.2772V14.2051C12.3536 13.8233 13.816 12.3585 14.2072 9.79614H16.2718C16.176 13.1485 13.3947 16.1312 9.79541 16.2767L9.79588 16.2772Z" fill="#64748B"/>
<path d="M9.19896 4.81741C8.02391 4.92261 7.01324 5.36408 6.18667 6.19347C5.36104 7.02192 4.92051 8.03306 4.82048 9.20106H2.74043C2.75029 6.08404 5.44229 2.86981 9.19943 2.72046V4.81741H9.19896Z" fill="#64748B"/>
<path d="M2.10688 9.78386C1.6518 9.78386 1.21362 9.78809 0.774975 9.78199C0.609661 9.77964 0.501173 9.65706 0.499765 9.50114C0.498356 9.35132 0.600268 9.22029 0.752432 9.21747C1.20094 9.20949 1.64945 9.21466 2.10688 9.21466V9.78433V9.78386Z" fill="#64748B"/>
<path d="M9.21399 2.10243C9.21399 1.65157 9.20976 1.21292 9.21634 0.774277C9.21868 0.61225 9.34784 0.499067 9.50094 0.500006C9.647 0.500945 9.7785 0.608493 9.78132 0.760188C9.78883 1.204 9.78413 1.64828 9.78413 2.1029H9.21446L9.21399 2.10243Z" fill="#64748B"/>
</g>
<defs>
<clipPath id="clip0_118_334">
<rect width="18.0005" height="18" fill="white" transform="translate(0.499765 0.5)"/>
</clipPath>
</defs>
</svg>
