<svg width="305" height="45" viewBox="0 0 305 45" fill="none" xmlns="http://www.w3.org/2000/svg">
<g clip-path="url(#clip0_1364_791)">
<path d="M22.5 0C10.0747 0 0 10.0716 0 22.5C0 34.9284 10.0747 45 22.5 45C34.9253 45 45 34.9253 45 22.5C45 10.0747 34.9284 0 22.5 0ZM6.77578 28.7449C4.60004 28.0299 7.91735 22.8222 9.63891 22.6412C9.08961 24.0098 8.9331 29.4538 6.77578 28.7449ZM10.5933 19.689C10.1729 18.7838 9.33511 15.8194 10.7498 15.5984C11.9313 15.4143 11.5231 17.0499 11.6275 17.4304C12.2259 19.6645 13.303 21.1927 15.9114 20.7815C18.4953 20.3734 18.8482 16.6418 19.3085 16.5037C21.564 16.6909 19.9131 19.7872 19.0047 20.803C16.5466 23.5556 12.1399 23.034 10.5933 19.689ZM29.555 34.7228C29.1193 39.2031 25.535 37.6718 22.6872 37.6534C20.4255 37.635 17.4182 39.0252 15.9574 36.4229C13.7357 32.4642 17.8417 28.0176 21.8525 27.634C25.8971 27.2473 29.9724 30.4603 29.555 34.7228ZM34.7167 18.1025C33.5383 21.7144 29.1714 23.0524 26.3175 20.3826C25.6915 19.7964 23.6968 16.6541 25.1391 16.1968C26.2193 15.8531 26.3482 17.59 26.7594 18.2529C28.4595 20.9963 32.5655 20.4685 33.2038 17.5102C33.4002 16.605 32.7895 13.9198 34.3116 14.3801C35.5145 14.7422 35.0143 17.1849 34.7136 18.1025H34.7167ZM38.0155 26.0106C36.5395 26.4556 35.9319 22.3558 35.4225 21.4106C36.5824 21.5917 39.8998 25.4429 38.0155 26.0106Z" fill="#F4797C"/>
<path d="M87.5 0C75.0733 0 65 10.0733 65 22.5C65 34.9267 75.0733 45 87.5 45C99.9267 45 110 34.9267 110 22.5C110 10.0733 99.9267 0 87.5 0ZM93.0046 10.2543C93.3544 9.76033 94.5694 10.2114 94.5694 10.5366C94.5694 11.4939 94.7535 16.8604 94.5694 17.1335C94.3178 17.5078 93.0475 17.4772 92.7898 16.6088C92.5719 15.8694 92.6333 10.7759 93.0015 10.2543H93.0046ZM80.4551 9.61612C80.584 9.19883 81.6334 8.9687 81.9617 9.18655C82.468 9.521 82.4587 15.8571 81.9617 16.1854C81.618 16.4125 80.4551 16.1026 80.4551 15.7558C80.4551 14.4825 80.1943 10.463 80.4551 9.61919V9.61612ZM99.6321 31.8707C98.0796 31.7939 95.582 30.5543 93.7716 30.361C89.4238 29.9008 83.7873 30.9532 80.3048 33.7024C79.912 34.0123 78.249 36.5775 77.7151 34.7395C77.261 33.1716 81.8666 30.7507 83.011 30.2721C87.4356 28.4157 92.0749 28.0905 96.7295 29.2442C97.1529 29.3485 99.9451 30.2291 100.059 30.3641C100.169 30.493 100.424 31.9105 99.6352 31.8707H99.6321Z" fill="#FBAA23"/>
<path d="M152.5 0C140.075 0 130 10.0719 130 22.5C130 34.9281 140.072 45 152.5 45C164.928 45 175 34.9281 175 22.5C175 10.0719 164.925 0 152.5 0ZM148.199 18.5056C147.987 19.8156 146.358 19.2265 146.358 18.8124V12.6766C146.358 12.6214 147.005 11.9648 147.168 11.9341C147.484 11.839 148.199 12.5968 148.199 12.6766C148.199 14.3486 148.441 16.9962 148.199 18.5056ZM156.942 33.3849H148.506C148.49 32.8112 148.368 32.1025 149.009 31.8939C149.383 31.7712 155.608 31.627 156.341 31.6884C157.765 31.805 157.507 33.3849 156.942 33.3849ZM160.47 18.8124C160.253 19.5916 158.949 19.3217 158.694 18.4412C158.516 17.8368 158.516 13.3454 158.694 12.7379C159.016 11.6488 160.47 11.8053 160.47 12.3667C160.47 13.7841 160.756 17.8 160.47 18.8093V18.8124Z" fill="#FFCB05"/>
<path d="M217.5 0C205.075 0 195 10.0716 195 22.5C195 34.9284 205.072 45 217.5 45C229.928 45 240 34.9284 240 22.5C240 10.0716 229.925 0 217.5 0ZM223.69 11.8085C224.006 10.7252 225.466 10.8695 225.466 11.4372C225.466 12.3946 225.651 17.7619 225.466 18.035C225.436 18.081 224.503 18.3265 224.429 18.3112C223.475 18.1117 223.447 12.6309 223.69 11.8054V11.8085ZM211.35 12.3578C211.568 11.5784 212.872 11.8484 213.127 12.7291C213.305 13.3337 213.305 17.8263 213.127 18.4339C212.805 19.5233 211.35 19.3668 211.35 18.8052C211.35 17.3875 211.065 13.3705 211.35 12.3609V12.3578ZM233.261 27.8243C226.718 34.7504 214.057 37.1225 205.514 32.9276C204.943 32.6483 201.751 31.0035 202.761 30.0061C203.286 29.4875 206.419 31.5344 207.204 31.8504C214.717 34.8762 224.936 33.1178 230.993 27.7076C231.773 27.011 234.016 23.8901 234.525 23.9362C236.508 24.108 233.804 27.2504 233.261 27.8273V27.8243Z" fill="#6DA8D2"/>
<path d="M282.5 0C270.075 0 260 10.0747 260 22.5C260 34.9253 270.075 45 282.5 45C294.925 45 305 34.9253 305 22.5C305 10.0747 294.925 0 282.5 0ZM270.369 13.1495C272.082 11.25 275.04 11.0536 277.102 12.5143C278.066 13.1986 279.744 15.7641 279.376 16.921C279.207 17.4519 278.195 17.6084 277.891 17.3967C277.716 17.2739 277.501 14.8097 275.872 13.7387C272.849 11.7563 269.884 15.2639 270.498 18.3449C267.598 18.618 269.172 14.4722 270.366 13.1465L270.369 13.1495ZM293.063 31.8505C288.533 37.0151 280.68 37.9511 274.893 34.3637C273.481 33.4892 270.069 30.2516 269.891 28.5976C269.795 27.723 270.477 26.3359 271.336 26.0781C272.665 25.6823 276.835 27.097 278.643 27.2381C280.656 27.3977 283.685 27.3885 285.71 27.2565C287.852 27.1185 291.676 25.7928 293.342 26.026C296.702 26.4955 294.351 30.3805 293.066 31.8474L293.063 31.8505ZM295.966 18.3388C293.894 18.6549 294.652 17.2003 294.296 15.8807C293.526 13.036 289.936 12.2903 288.134 14.6502C287.269 15.7825 287.563 17.9153 286.041 17.3905C284.633 16.9026 286.658 13.573 287.542 12.8335C291.722 9.32897 297.034 13.3306 295.966 18.3419V18.3388Z" fill="#68C6B4"/>
</g>
<defs>
<clipPath id="clip0_1364_791">
<rect width="305" height="45" fill="white"/>
</clipPath>
</defs>
</svg>
