<svg width="41" height="40" viewBox="0 0 41 40" fill="none" xmlns="http://www.w3.org/2000/svg">
<circle opacity="0.5" cx="20.3334" cy="20" r="19.5" stroke="white"/>
<g clip-path="url(#clip0_116_335)">
<path d="M20.5081 18.1852C22.3082 18.5713 24.0803 17.425 24.4664 15.625C24.8524 13.825 23.7062 12.0529 21.9062 11.6668C20.1062 11.2807 18.334 12.427 17.948 14.227C17.5619 16.027 18.7081 17.7992 20.5081 18.1852Z" stroke="white" stroke-width="1.5" stroke-linecap="round" stroke-linejoin="round"/>
<path d="M14.2791 25.3721C16.0792 25.7582 17.8513 24.6119 18.2374 22.8119C18.6234 21.0119 17.4772 19.2397 15.6772 18.8537C13.8772 18.4676 12.105 19.6139 11.7189 21.4139C11.3329 23.2139 12.4791 24.9861 14.2791 25.3721Z" stroke="white" stroke-width="1.5" stroke-linecap="round" stroke-linejoin="round"/>
<path d="M23.242 27.2944C25.042 27.6804 26.8142 26.5342 27.2003 24.7342C27.5863 22.9341 26.4401 21.162 24.6401 20.7759C22.8401 20.3899 21.0679 21.5361 20.6818 23.3361C20.2958 25.1361 21.442 26.9083 23.242 27.2944Z" stroke="white" stroke-width="1.5" stroke-linecap="round" stroke-linejoin="round"/>
</g>
<defs>
<clipPath id="clip0_116_335">
<rect width="20" height="20" fill="white" transform="translate(12.6528 7.12524) rotate(12.1051)"/>
</clipPath>
</defs>
</svg>
