<svg width="19" height="19" viewBox="0 0 19 19" fill="none" xmlns="http://www.w3.org/2000/svg">
<g clip-path="url(#clip0_118_354)">
<path d="M4.0334 11.9954C5.87337 12.2577 7.479 11.7987 8.81037 10.5141C9.85266 9.50886 10.3995 8.26188 10.4588 6.81362C10.5893 3.64 7.93343 0.920243 4.5517 1.14546C4.59218 1.09301 4.61613 1.05024 4.65034 1.01888C4.99188 0.702434 5.39727 0.508003 5.8614 0.506292C8.01725 0.496029 10.1731 0.501161 12.3284 0.501161C12.3409 0.501161 12.3529 0.508003 12.3922 0.519407C12.3922 0.582126 12.3922 0.652829 12.3922 0.724101C12.3922 1.89582 12.3917 3.06754 12.3922 4.23869C12.3934 5.45944 13.2139 6.28335 14.4295 6.28392C15.6012 6.28506 16.7729 6.28392 17.9441 6.28392H18.179V6.51941C18.179 9.82645 18.179 13.1341 18.179 16.4411C18.179 17.6926 17.3705 18.4983 16.1184 18.4983C12.7777 18.4983 9.437 18.4983 6.09631 18.4983C4.8499 18.4983 4.03397 17.6835 4.0334 16.4388C4.03283 15.0328 4.0334 13.6267 4.0334 12.2212C4.0334 12.1488 4.0334 12.0764 4.0334 11.9943V11.9954ZM15.6075 13.0411C15.6075 12.3181 15.6086 11.5951 15.6063 10.8722C15.6063 10.7798 15.6023 10.6829 15.5767 10.5951C15.4872 10.2934 15.1827 10.103 14.8782 10.1475C14.5509 10.1948 14.3234 10.4668 14.3229 10.83C14.3206 12.2896 14.3212 13.7487 14.3229 15.2084C14.3229 15.6337 14.5886 15.9274 14.9666 15.9279C15.3452 15.9279 15.6069 15.6377 15.608 15.2107C15.6092 14.4877 15.608 13.7647 15.608 13.0417L15.6075 13.0411ZM10.4633 14.003C10.4633 13.5811 10.4662 13.1597 10.4622 12.7378C10.4588 12.3586 10.1874 12.0758 9.83099 12.0712C9.4655 12.0667 9.18099 12.3512 9.1787 12.7401C9.17414 13.5771 9.17471 14.4135 9.1787 15.2506C9.18042 15.6411 9.46037 15.9285 9.82358 15.9279C10.1879 15.9274 10.4599 15.6411 10.4627 15.2483C10.4656 14.8332 10.4633 14.4181 10.4627 14.003H10.4633ZM13.0354 14.328C13.0354 14.0064 13.0394 13.6854 13.0343 13.3638C13.0286 12.9995 12.7554 12.7201 12.4071 12.7138C12.0496 12.7076 11.7571 12.9852 11.7525 13.3593C11.7445 14.0019 11.7445 14.6445 11.7525 15.2871C11.7571 15.6508 12.0444 15.9262 12.3928 15.9274C12.7497 15.9285 13.0291 15.6463 13.0348 15.2717C13.0394 14.9569 13.036 14.6422 13.0354 14.328ZM7.89067 14.9792C7.89067 14.8651 7.89352 14.7517 7.89067 14.6376C7.87984 14.2847 7.61185 14.0104 7.27145 13.9996C6.92992 13.9888 6.63228 14.2488 6.61119 14.596C6.59636 14.8429 6.59522 15.0921 6.61233 15.3384C6.6357 15.6839 6.94018 15.9416 7.28001 15.9268C7.61242 15.912 7.87755 15.6417 7.89067 15.3002C7.89466 15.193 7.89124 15.0858 7.89181 14.9792H7.89067Z" fill="#64748B"/>
<path d="M4.35498 2.49792C4.35498 2.57205 4.35498 2.64446 4.35498 2.71744C4.35498 3.76828 4.35384 4.81913 4.35498 5.86997C4.35612 6.71041 4.89551 7.24809 5.7371 7.24923C6.78794 7.25037 7.83878 7.24923 8.88962 7.24923C8.96261 7.24923 9.03559 7.24923 9.10971 7.24923C8.93011 8.90845 7.34273 10.8379 4.86872 10.7843C2.66497 10.7359 0.836976 8.88223 0.819871 6.66138C0.801055 4.18452 2.76703 2.661 4.35498 2.49792Z" fill="#64748B"/>
<path d="M13.6786 0.518188C14.1381 0.569505 14.5167 0.737708 14.8058 1.05074C15.7962 2.12267 16.7792 3.20145 17.7496 4.29107C17.9161 4.47809 18.0096 4.72953 18.1642 4.99866C18.0228 4.99866 17.9578 4.99866 17.8933 4.99866C16.7353 4.99866 15.5767 4.99866 14.4187 4.99866C13.9283 4.99866 13.6791 4.74835 13.6786 4.25515C13.678 3.07658 13.6786 1.89859 13.6786 0.720032V0.518188Z" fill="#64748B"/>
<path d="M9.11427 5.95548H5.65385C5.65385 4.80258 5.65385 3.65538 5.65385 2.50818C7.04509 2.60682 8.8537 3.94617 9.1137 5.95548H9.11427Z" fill="#64748B"/>
</g>
<defs>
<clipPath id="clip0_118_354">
<rect width="17.3603" height="18" fill="white" transform="translate(0.81987 0.5)"/>
</clipPath>
</defs>
</svg>
