<svg width="19" height="16" viewBox="0 0 19 16" fill="none" xmlns="http://www.w3.org/2000/svg">
<path d="M0.935547 14.0017V9.50069C0.935547 9.08638 1.27133 8.75053 1.68555 8.75053H6.18555C6.59976 8.75053 6.93555 9.08638 6.93555 9.50069C6.93538 9.91485 6.59966 10.2508 6.18555 10.2508H3.57959L5.67944 12.2244L5.69629 12.2405C6.41273 12.9575 7.29869 13.4819 8.27222 13.7636C9.24584 14.0452 10.2756 14.0752 11.2642 13.8515C12.2526 13.6277 13.1683 13.1571 13.9258 12.4838C14.6833 11.8103 15.2576 10.9559 15.5957 10.0003C15.7338 9.60983 16.1626 9.40517 16.553 9.54318C16.9434 9.68138 17.1481 10.1101 17.01 10.5007C16.5874 11.6953 15.8688 12.7635 14.9219 13.6053C13.975 14.4471 12.8301 15.0355 11.5945 15.3152C10.3589 15.5947 9.07237 15.5566 7.85547 15.2046C6.64597 14.8546 5.54452 14.2052 4.65186 13.3174L2.43555 11.234V14.0017C2.43538 14.4158 2.09966 14.7518 1.68555 14.7518C1.27144 14.7518 0.935714 14.4158 0.935547 14.0017ZM8.27661 0.684826C9.51217 0.40528 10.7987 0.443382 12.0156 0.795446C13.2251 1.14541 14.3266 1.79479 15.2192 2.68257L17.4355 4.76529V1.99907C17.4355 1.58477 17.7713 1.24891 18.1855 1.24891C18.5998 1.24891 18.9355 1.58477 18.9355 1.99907V6.50004C18.9354 6.9142 18.5997 7.2502 18.1855 7.2502H13.6855C13.2714 7.2502 12.9357 6.9142 12.9355 6.50004C12.9355 6.08574 13.2713 5.74988 13.6855 5.74988H16.2922L14.1917 3.77558C14.186 3.77028 14.1803 3.76493 14.1748 3.75946C13.4584 3.04259 12.5723 2.51886 11.5989 2.23716C10.6253 1.95548 9.59548 1.9248 8.60693 2.14852C7.61851 2.37227 6.70278 2.84285 5.94531 3.51625C5.18784 4.18966 4.6135 5.04412 4.27539 5.99969L4.24609 6.07075C4.08381 6.41457 3.68418 6.58624 3.31812 6.45682C2.92763 6.31861 2.7229 5.88991 2.86108 5.49934L2.94385 5.27663C3.37448 4.17198 4.06152 3.18383 4.94922 2.39467C5.89611 1.55296 7.04104 0.96445 8.27661 0.684826Z" fill="white"/>
</svg>
