<svg width="16" height="16" viewBox="0 0 16 16" fill="none" xmlns="http://www.w3.org/2000/svg">
<path d="M0 13.6V2.4C0 1.76348 0.253038 1.15321 0.703125 0.703125C1.15321 0.253038 1.76348 0 2.4 0H11.2L11.2789 0.00390625C11.4621 0.0220583 11.6343 0.103061 11.7656 0.234375L15.7656 4.23438C15.9157 4.3844 16 4.58783 16 4.8V13.6C16 14.2365 15.747 14.8468 15.2969 15.2969C14.8468 15.747 14.2365 16 13.6 16H2.4C1.76348 16 1.15321 15.747 0.703125 15.2969C0.253038 14.8468 0 14.2365 0 13.6ZM1.6 13.6C1.6 13.8122 1.68435 14.0156 1.83438 14.1656C1.9844 14.3157 2.18783 14.4 2.4 14.4H13.6C13.8122 14.4 14.0156 14.3157 14.1656 14.1656C14.3157 14.0156 14.4 13.8122 14.4 13.6V5.13125L10.8688 1.6H2.4C2.18783 1.6 1.9844 1.68435 1.83438 1.83438C1.68435 1.9844 1.6 2.18783 1.6 2.4V13.6Z" fill="#8DACE5"/>
<path d="M11.2 15.2V9.6H4.8V15.2C4.8 15.6418 4.44183 16 4 16C3.55817 16 3.2 15.6418 3.2 15.2V8.8C3.2 8.35817 3.55817 8 4 8H12C12.4418 8 12.8 8.35817 12.8 8.8V15.2C12.8 15.6418 12.4418 16 12 16C11.5582 16 11.2 15.6418 11.2 15.2Z" fill="#8DACE5"/>
<path d="M3.2 0.8C3.2 0.358172 3.55817 0 4 0C4.44183 0 4.8 0.358172 4.8 0.8V4H10.4C10.8418 4 11.2 4.35817 11.2 4.8C11.2 5.24183 10.8418 5.6 10.4 5.6H4C3.55817 5.6 3.2 5.24183 3.2 4.8V0.8Z" fill="#8DACE5"/>
</svg>
