<svg width="15" height="14" viewBox="0 0 15 14" fill="none" xmlns="http://www.w3.org/2000/svg">
<g clip-path="url(#clip0_194_395)">
<path d="M10.7452 0.00407317C11.0799 0.00407317 11.3952 -0.00797971 11.709 0.0106828C11.8144 0.0169037 11.938 0.0775568 12.0146 0.152985C12.9431 1.07017 13.8669 1.99202 14.7821 2.92204C14.8676 3.00913 14.9306 3.16076 14.931 3.28246C14.9392 6.38238 14.9396 9.4823 14.9353 12.5822C14.9341 13.3579 14.3221 13.9625 13.5476 13.9737C13.2421 13.978 12.9368 13.9745 12.6083 13.9745V13.8027C12.6083 12.4928 12.6083 11.1829 12.6083 9.87344C12.6083 8.97763 12.0181 8.38665 11.1246 8.38627C9.00916 8.38627 6.89368 8.38627 4.77821 8.38627C3.88357 8.38627 3.2926 8.97725 3.29221 9.87149C3.29221 11.1763 3.29221 12.4815 3.29221 13.7863C3.29221 13.8435 3.29221 13.9007 3.29221 14.0002C2.84664 13.973 2.40574 13.9909 1.98427 13.9088C1.40263 13.7957 0.987774 13.2342 0.965223 12.6421C0.963668 12.5986 0.963279 12.5546 0.963279 12.5111C0.962891 8.8295 0.962891 5.14754 0.962891 1.46519C0.962891 0.764571 1.36802 0.216748 2.0111 0.0511183C2.11802 0.0235133 2.23078 0.00601718 2.34081 0.00562838C3.25294 0.00212916 4.16507 0.00329556 5.0772 0.00329556C5.09625 0.00329556 5.1153 0.00601718 5.15535 0.0091276V0.177479C5.15535 1.33689 5.15535 2.4963 5.15535 3.65571C5.15535 4.27507 5.54298 4.65959 6.16623 4.65998C7.3548 4.66037 8.54376 4.65998 9.73233 4.65998C10.3622 4.65998 10.7448 4.27546 10.7448 3.64288C10.7448 2.48813 10.7448 1.33378 10.7448 0.179034V0.00407317H10.7452Z" fill="white"/>
<path d="M11.6767 13.9681H4.22375C4.22375 13.9144 4.22375 13.8674 4.22375 13.8203C4.22375 12.5011 4.22375 11.1815 4.22375 9.86234C4.22375 9.49414 4.39949 9.31763 4.76652 9.31763C6.89133 9.31763 9.01652 9.31763 11.1413 9.31763C11.4963 9.31763 11.6763 9.4992 11.6763 9.85612C11.6763 11.1804 11.6763 12.5046 11.6763 13.8289V13.9681H11.6767Z" fill="white"/>
<path d="M9.80703 0.0129395V3.72095H6.09863V0.0129395H9.80703Z" fill="white"/>
</g>
<defs>
<clipPath id="clip0_194_395">
<rect width="13.9751" height="14" fill="white" transform="translate(0.962891)"/>
</clipPath>
</defs>
</svg>
