<svg width="40" height="40" viewBox="0 0 40 40" fill="none" xmlns="http://www.w3.org/2000/svg">
<path fill-rule="evenodd" clip-rule="evenodd" d="M0.632969 5.13321C0 6.66133 0 8.59856 0 12.473V27.527C0 31.4014 0 33.3387 0.632969 34.8668C1.47693 36.9043 3.09571 38.5231 5.13321 39.367C6.66133 40 8.59856 40 12.473 40H27.527C31.4014 40 33.3387 40 34.8668 39.367C36.9043 38.5231 38.5231 36.9043 39.367 34.8668C40 33.3387 40 31.4014 40 27.527V12.473C40 8.59856 40 6.66133 39.367 5.13321C38.5231 3.09571 36.9043 1.47693 34.8668 0.632969C33.3387 0 31.4014 0 27.527 0H12.473C8.59856 0 6.66133 0 5.13321 0.632969C3.09571 1.47693 1.47693 3.09571 0.632969 5.13321ZM23.091 10.8681C23.1267 10.7387 22.976 10.6392 22.871 10.7228L11.5975 19.7052C11.5089 19.7757 11.5378 19.917 11.647 19.9471L17.6775 21.6112C17.7513 21.6316 17.7946 21.7079 17.7743 21.7817L15.8556 28.7348C15.8199 28.8642 15.9706 28.9637 16.0756 28.8801L27.3491 19.8977C27.4377 19.8271 27.4088 19.6859 27.2996 19.6557L21.2691 17.9917C21.1953 17.9713 21.152 17.895 21.1724 17.8212L23.091 10.8681Z" fill="#4D1384"/>
</svg>
