<svg width="218" height="56" viewBox="0 0 218 56" fill="none" xmlns="http://www.w3.org/2000/svg">
<path fill-rule="evenodd" clip-rule="evenodd" d="M0.632969 5.13321C0 6.66133 0 8.59856 0 12.473V27.527C0 31.4014 0 33.3387 0.632969 34.8668C1.47693 36.9043 3.09571 38.5231 5.13321 39.367C6.66133 40 8.59856 40 12.473 40H27.527C31.4014 40 33.3387 40 34.8668 39.367C36.9043 38.5231 38.5231 36.9043 39.367 34.8668C40 33.3387 40 31.4014 40 27.527V12.473C40 8.59856 40 6.66133 39.367 5.13321C38.5231 3.09571 36.9043 1.47693 34.8668 0.632969C33.3387 0 31.4014 0 27.527 0H12.473C8.59856 0 6.66133 0 5.13321 0.632969C3.09571 1.47693 1.47693 3.09571 0.632969 5.13321ZM23.091 10.8681C23.1267 10.7387 22.976 10.6392 22.871 10.7228L11.5975 19.7052C11.5089 19.7757 11.5378 19.917 11.647 19.9471L17.6775 21.6112C17.7513 21.6316 17.7946 21.7079 17.7743 21.7817L15.8556 28.7348C15.8199 28.8642 15.9706 28.9637 16.0756 28.8801L27.3491 19.8977C27.4377 19.8271 27.4088 19.6859 27.2996 19.6557L21.2691 17.9917C21.1953 17.9713 21.152 17.895 21.1724 17.8212L23.091 10.8681Z" fill="#4D1384"/>
<path d="M78.1602 5V29H73.7773L63.3359 13.8945H63.1602V29H58.0859V5H62.5391L72.8984 20.0937H73.1094V5H78.1602ZM93.4553 21.3359V11H98.4475V29H93.6545V25.7305H93.467C93.0608 26.7852 92.385 27.6328 91.4397 28.2734C90.5022 28.9141 89.3576 29.2344 88.0061 29.2344C86.8029 29.2344 85.7443 28.9609 84.8303 28.4141C83.9162 27.8672 83.2014 27.0898 82.6858 26.082C82.1779 25.0742 81.9201 23.8672 81.9123 22.4609V11H86.9045V21.5703C86.9123 22.6328 87.1975 23.4727 87.76 24.0898C88.3225 24.707 89.0764 25.0156 90.0217 25.0156C90.6233 25.0156 91.1858 24.8789 91.7092 24.6055C92.2326 24.3242 92.6545 23.9102 92.9748 23.3633C93.3029 22.8164 93.4631 22.1406 93.4553 21.3359ZM102.094 29V11H106.934V14.1406H107.122C107.45 13.0234 108 12.1797 108.774 11.6094C109.547 11.0312 110.438 10.7422 111.446 10.7422C111.696 10.7422 111.965 10.7578 112.254 10.7891C112.543 10.8203 112.797 10.8633 113.016 10.918V15.3477C112.782 15.2773 112.457 15.2148 112.043 15.1602C111.629 15.1055 111.25 15.0781 110.907 15.0781C110.172 15.0781 109.516 15.2383 108.938 15.5586C108.368 15.8711 107.914 16.3086 107.579 16.8711C107.25 17.4336 107.086 18.082 107.086 18.8164V29H102.094ZM130.227 16.1328L125.657 16.4141C125.579 16.0234 125.411 15.6719 125.153 15.3594C124.895 15.0391 124.555 14.7852 124.133 14.5977C123.719 14.4023 123.223 14.3047 122.645 14.3047C121.872 14.3047 121.219 14.4687 120.688 14.7969C120.157 15.1172 119.891 15.5469 119.891 16.0859C119.891 16.5156 120.063 16.8789 120.407 17.1758C120.751 17.4727 121.34 17.7109 122.176 17.8906L125.434 18.5469C127.184 18.9062 128.489 19.4844 129.348 20.2812C130.208 21.0781 130.637 22.125 130.637 23.4219C130.637 24.6016 130.29 25.6367 129.594 26.5273C128.907 27.418 127.962 28.1133 126.758 28.6133C125.563 29.1055 124.184 29.3516 122.622 29.3516C120.239 29.3516 118.34 28.8555 116.926 27.8633C115.52 26.8633 114.696 25.5039 114.454 23.7852L119.364 23.5273C119.512 24.2539 119.872 24.8086 120.442 25.1914C121.012 25.5664 121.743 25.7539 122.633 25.7539C123.508 25.7539 124.212 25.5859 124.743 25.25C125.282 24.9062 125.555 24.4648 125.563 23.9258C125.555 23.4727 125.364 23.1016 124.989 22.8125C124.614 22.5156 124.036 22.2891 123.255 22.1328L120.137 21.5117C118.38 21.1602 117.071 20.5508 116.212 19.6836C115.36 18.8164 114.934 17.7109 114.934 16.3672C114.934 15.2109 115.247 14.2148 115.872 13.3789C116.505 12.543 117.391 11.8984 118.532 11.4453C119.68 10.9922 121.024 10.7656 122.563 10.7656C124.837 10.7656 126.626 11.2461 127.93 12.207C129.243 13.168 130.008 14.4766 130.227 16.1328ZM141.638 29.3516C139.786 29.3516 138.192 28.9766 136.856 28.2266C135.528 27.4687 134.505 26.3984 133.786 25.0156C133.067 23.625 132.708 21.9805 132.708 20.082C132.708 18.2305 133.067 16.6055 133.786 15.207C134.505 13.8086 135.516 12.7187 136.821 11.9375C138.134 11.1562 139.673 10.7656 141.438 10.7656C142.626 10.7656 143.731 10.957 144.755 11.3398C145.786 11.7148 146.684 12.2812 147.45 13.0391C148.223 13.7969 148.825 14.75 149.255 15.8984C149.684 17.0391 149.899 18.375 149.899 19.9062V21.2773H134.7V18.1836H145.2C145.2 17.4648 145.044 16.8281 144.731 16.2734C144.419 15.7187 143.985 15.2852 143.431 14.9727C142.884 14.6523 142.247 14.4922 141.52 14.4922C140.763 14.4922 140.091 14.668 139.505 15.0195C138.927 15.3633 138.473 15.8281 138.145 16.4141C137.817 16.9922 137.649 17.6367 137.641 18.3477V21.2891C137.641 22.1797 137.806 22.9492 138.134 23.5977C138.47 24.2461 138.942 24.7461 139.552 25.0977C140.161 25.4492 140.884 25.625 141.72 25.625C142.274 25.625 142.782 25.5469 143.243 25.3906C143.704 25.2344 144.098 25 144.427 24.6875C144.755 24.375 145.005 23.9922 145.177 23.5391L149.794 23.8438C149.559 24.9531 149.079 25.9219 148.352 26.75C147.634 27.5703 146.704 28.2109 145.563 28.6719C144.431 29.125 143.122 29.3516 141.638 29.3516ZM152.811 29V11H157.65V14.1406H157.838C158.166 13.0234 158.717 12.1797 159.49 11.6094C160.264 11.0312 161.154 10.7422 162.162 10.7422C162.412 10.7422 162.682 10.7578 162.971 10.7891C163.26 10.8203 163.514 10.8633 163.732 10.918V15.3477C163.498 15.2773 163.174 15.2148 162.76 15.1602C162.346 15.1055 161.967 15.0781 161.623 15.0781C160.889 15.0781 160.232 15.2383 159.654 15.5586C159.084 15.8711 158.631 16.3086 158.295 16.8711C157.967 17.4336 157.803 18.082 157.803 18.8164V29H152.811ZM169.597 35.75C168.964 35.75 168.37 35.6992 167.816 35.5977C167.269 35.5039 166.816 35.3828 166.456 35.2344L167.581 31.5078C168.167 31.6875 168.695 31.7852 169.163 31.8008C169.64 31.8164 170.05 31.707 170.394 31.4727C170.745 31.2383 171.031 30.8398 171.249 30.2773L171.542 29.5156L165.085 11H170.335L174.062 24.2187H174.249L178.011 11H183.296L176.3 30.9453C175.964 31.9141 175.507 32.7578 174.929 33.4766C174.359 34.2031 173.636 34.7617 172.761 35.1523C171.886 35.5508 170.831 35.75 169.597 35.75Z" fill="#4D1384"/>
<path d="M56.2486 34.7965V33.9091H60.4297V34.7965H58.8711V39H57.8072V34.7965H56.2486ZM62.1573 36.7926V39H61.0984V33.9091H62.1275V35.8555H62.1722C62.2584 35.6301 62.3976 35.4536 62.5898 35.326C62.7821 35.1967 63.0232 35.1321 63.3132 35.1321C63.5784 35.1321 63.8095 35.1901 64.0067 35.3061C64.2056 35.4205 64.3597 35.5853 64.4691 35.8008C64.5801 36.0146 64.6348 36.2706 64.6332 36.5689V39H63.5742V36.7578C63.5759 36.5225 63.5162 36.3394 63.3952 36.2085C63.2759 36.0775 63.1085 36.0121 62.8931 36.0121C62.7489 36.0121 62.6213 36.0427 62.5103 36.104C62.4009 36.1654 62.3147 36.2549 62.2518 36.3725C62.1905 36.4885 62.159 36.6286 62.1573 36.7926ZM67.2066 39.0746C66.8138 39.0746 66.4758 38.995 66.1924 38.8359C65.9107 38.6752 65.6936 38.4482 65.5411 38.1548C65.3886 37.8598 65.3124 37.511 65.3124 37.1083C65.3124 36.7156 65.3886 36.3709 65.5411 36.0742C65.6936 35.7776 65.9082 35.5464 66.1849 35.3807C66.4633 35.215 66.7898 35.1321 67.1643 35.1321C67.4162 35.1321 67.6507 35.1727 67.8678 35.2539C68.0866 35.3335 68.2771 35.4536 68.4395 35.6143C68.6036 35.7751 68.7312 35.9773 68.8224 36.2209C68.9135 36.4628 68.9591 36.7462 68.9591 37.071V37.3619H65.735V36.7056H67.9623C67.9623 36.5531 67.9291 36.4181 67.8628 36.3004C67.7965 36.1828 67.7046 36.0908 67.5869 36.0245C67.4709 35.9566 67.3358 35.9226 67.1817 35.9226C67.021 35.9226 66.8785 35.9599 66.7542 36.0344C66.6315 36.1074 66.5354 36.206 66.4658 36.3303C66.3962 36.4529 66.3606 36.5896 66.3589 36.7404V37.3643C66.3589 37.5533 66.3937 37.7165 66.4633 37.854C66.5346 37.9916 66.6349 38.0977 66.7641 38.1722C66.8934 38.2468 67.0467 38.2841 67.224 38.2841C67.3416 38.2841 67.4494 38.2675 67.5471 38.2344C67.6449 38.2012 67.7286 38.1515 67.7982 38.0852C67.8678 38.0189 67.9208 37.9377 67.9573 37.8416L68.9367 37.9062C68.887 38.1416 68.7851 38.3471 68.6309 38.5227C68.4785 38.6967 68.2813 38.8326 68.0393 38.9304C67.799 39.0265 67.5215 39.0746 67.2066 39.0746ZM71.2901 39V33.9091H73.2987C73.6848 33.9091 74.0137 33.9828 74.2855 34.1303C74.5573 34.2762 74.7644 34.4792 74.907 34.7393C75.0511 34.9979 75.1232 35.2962 75.1232 35.6342C75.1232 35.9723 75.0503 36.2706 74.9045 36.5291C74.7586 36.7876 74.5473 36.989 74.2706 37.1332C73.9955 37.2773 73.6624 37.3494 73.2713 37.3494H71.9911V36.4869H73.0973C73.3045 36.4869 73.4751 36.4512 73.6094 36.38C73.7453 36.3071 73.8464 36.2068 73.9126 36.0792C73.9806 35.9499 74.0146 35.8016 74.0146 35.6342C74.0146 35.4652 73.9806 35.3177 73.9126 35.1918C73.8464 35.0642 73.7453 34.9656 73.6094 34.896C73.4735 34.8247 73.3011 34.7891 73.0923 34.7891H72.3665V39H71.2901ZM75.8025 39V35.1818H76.8291V35.848H76.8689C76.9385 35.611 77.0553 35.4321 77.2194 35.3111C77.3834 35.1884 77.5724 35.1271 77.7861 35.1271C77.8392 35.1271 77.8963 35.1304 77.9577 35.1371C78.019 35.1437 78.0728 35.1528 78.1192 35.1644V36.104C78.0695 36.0891 78.0007 36.0759 77.9129 36.0643C77.8251 36.0527 77.7447 36.0469 77.6718 36.0469C77.516 36.0469 77.3768 36.0808 77.2542 36.1488C77.1332 36.2151 77.0371 36.3079 76.9658 36.4272C76.8962 36.5465 76.8614 36.6841 76.8614 36.8398V39H75.8025ZM80.2141 39.0746C79.828 39.0746 79.4941 38.9925 79.2124 38.8285C78.9323 38.6628 78.716 38.4324 78.5636 38.1374C78.4111 37.8408 78.3349 37.4969 78.3349 37.1058C78.3349 36.7114 78.4111 36.3667 78.5636 36.0717C78.716 35.7751 78.9323 35.5447 79.2124 35.3807C79.4941 35.215 79.828 35.1321 80.2141 35.1321C80.6003 35.1321 80.9334 35.215 81.2134 35.3807C81.4951 35.5447 81.7122 35.7751 81.8647 36.0717C82.0172 36.3667 82.0934 36.7114 82.0934 37.1058C82.0934 37.4969 82.0172 37.8408 81.8647 38.1374C81.7122 38.4324 81.4951 38.6628 81.2134 38.8285C80.9334 38.9925 80.6003 39.0746 80.2141 39.0746ZM80.2191 38.2543C80.3948 38.2543 80.5414 38.2045 80.6591 38.1051C80.7768 38.004 80.8654 37.8665 80.9251 37.6925C80.9864 37.5185 81.017 37.3204 81.017 37.0984C81.017 36.8763 80.9864 36.6783 80.9251 36.5043C80.8654 36.3303 80.7768 36.1927 80.6591 36.0916C80.5414 35.9905 80.3948 35.94 80.2191 35.94C80.0418 35.94 79.8926 35.9905 79.7717 36.0916C79.6523 36.1927 79.562 36.3303 79.5007 36.5043C79.4411 36.6783 79.4112 36.8763 79.4112 37.0984C79.4112 37.3204 79.4411 37.5185 79.5007 37.6925C79.562 37.8665 79.6523 38.004 79.7717 38.1051C79.8926 38.2045 80.0418 38.2543 80.2191 38.2543ZM84.8352 35.1818V35.9773H82.4787V35.1818H84.8352ZM83.0181 39V34.9059C83.0181 34.6291 83.072 34.3996 83.1797 34.2173C83.2891 34.035 83.4382 33.8983 83.6271 33.8072C83.8161 33.716 84.0307 33.6705 84.271 33.6705C84.4334 33.6705 84.5817 33.6829 84.7159 33.7077C84.8518 33.7326 84.9529 33.755 85.0192 33.7749L84.8303 34.5703C84.7888 34.5571 84.7375 34.5446 84.6761 34.533C84.6165 34.5214 84.5552 34.5156 84.4922 34.5156C84.3364 34.5156 84.2279 34.5521 84.1665 34.625C84.1052 34.6963 84.0746 34.7965 84.0746 34.9258V39H83.0181ZM85.4822 39V35.1818H86.5411V39H85.4822ZM86.0141 34.6896C85.8567 34.6896 85.7216 34.6374 85.6089 34.533C85.4979 34.427 85.4424 34.3002 85.4424 34.1527C85.4424 34.0069 85.4979 33.8817 85.6089 33.7773C85.7216 33.6713 85.8567 33.6183 86.0141 33.6183C86.1715 33.6183 86.3058 33.6713 86.4168 33.7773C86.5295 33.8817 86.5858 34.0069 86.5858 34.1527C86.5858 34.3002 86.5295 34.427 86.4168 34.533C86.3058 34.6374 86.1715 34.6896 86.0141 34.6896ZM89.4203 35.1818V35.9773H87.1209V35.1818H89.4203ZM87.6429 34.267H88.7019V37.8267C88.7019 37.9245 88.7168 38.0007 88.7466 38.0554C88.7765 38.1084 88.8179 38.1457 88.8709 38.1673C88.9256 38.1888 88.9886 38.1996 89.0598 38.1996C89.1096 38.1996 89.1593 38.1954 89.209 38.1871C89.2587 38.1772 89.2968 38.1697 89.3233 38.1648L89.4899 38.9528C89.4368 38.9693 89.3623 38.9884 89.2662 39.0099C89.17 39.0331 89.0532 39.0472 88.9157 39.0522C88.6605 39.0621 88.4367 39.0282 88.2445 38.9503C88.0539 38.8724 87.9056 38.7514 87.7995 38.5874C87.6935 38.4233 87.6413 38.2161 87.6429 37.9659V34.267ZM91.1989 39.0721C90.9553 39.0721 90.7382 39.0298 90.5476 38.9453C90.357 38.8591 90.2062 38.7324 90.0952 38.565C89.9858 38.396 89.9311 38.1855 89.9311 37.9336C89.9311 37.7215 89.9701 37.5433 90.0479 37.3991C90.1258 37.255 90.2319 37.139 90.3661 37.0511C90.5004 36.9633 90.6528 36.897 90.8235 36.8523C90.9959 36.8075 91.1765 36.776 91.3654 36.7578C91.5875 36.7346 91.7665 36.7131 91.9023 36.6932C92.0382 36.6716 92.1368 36.6402 92.1982 36.5987C92.2595 36.5573 92.2901 36.496 92.2901 36.4148V36.3999C92.2901 36.2424 92.2404 36.1206 92.141 36.0344C92.0432 35.9483 91.904 35.9052 91.7234 35.9052C91.5328 35.9052 91.3812 35.9474 91.2685 36.032C91.1558 36.1148 91.0812 36.2192 91.0447 36.3452L90.0653 36.2656C90.1151 36.0336 90.2128 35.8331 90.3587 35.6641C90.5045 35.4934 90.6926 35.3625 90.9229 35.2713C91.1549 35.1785 91.4234 35.1321 91.7283 35.1321C91.9405 35.1321 92.1435 35.157 92.3374 35.2067C92.5329 35.2564 92.7061 35.3335 92.8569 35.4379C93.0094 35.5423 93.1295 35.6765 93.2173 35.8406C93.3052 36.003 93.3491 36.1977 93.3491 36.4247V39H92.3448V38.4705H92.315C92.2537 38.5898 92.1716 38.6951 92.0689 38.7862C91.9661 38.8757 91.8427 38.9461 91.6985 38.9975C91.5543 39.0472 91.3878 39.0721 91.1989 39.0721ZM91.5021 38.3413C91.6579 38.3413 91.7955 38.3106 91.9148 38.2493C92.0341 38.1863 92.1277 38.1018 92.1957 37.9957C92.2636 37.8897 92.2976 37.7695 92.2976 37.6353V37.2301C92.2644 37.2517 92.2189 37.2715 92.1609 37.2898C92.1045 37.3063 92.0407 37.3221 91.9695 37.337C91.8982 37.3503 91.8269 37.3627 91.7557 37.3743C91.6844 37.3842 91.6198 37.3933 91.5618 37.4016C91.4375 37.4199 91.329 37.4489 91.2362 37.4886C91.1433 37.5284 91.0713 37.5823 91.0199 37.6502C90.9685 37.7165 90.9428 37.7994 90.9428 37.8988C90.9428 38.043 90.995 38.1532 91.0994 38.2294C91.2055 38.304 91.3397 38.3413 91.5021 38.3413ZM94.1905 39V33.9091H95.2495V35.8232H95.2818C95.3282 35.7204 95.3953 35.616 95.4831 35.5099C95.5726 35.4022 95.6886 35.3127 95.8311 35.2415C95.9753 35.1686 96.1543 35.1321 96.3681 35.1321C96.6465 35.1321 96.9033 35.205 97.1387 35.3509C97.374 35.495 97.5621 35.7129 97.7029 36.0046C97.8438 36.2946 97.9142 36.6584 97.9142 37.0959C97.9142 37.5218 97.8455 37.8814 97.7079 38.1747C97.572 38.4664 97.3864 38.6876 97.1511 38.8384C96.9174 38.9876 96.6556 39.0621 96.3656 39.0621C96.1601 39.0621 95.9853 39.0282 95.8411 38.9602C95.6986 38.8923 95.5817 38.8069 95.4906 38.7042C95.3994 38.5998 95.3298 38.4946 95.2818 38.3885H95.2346V39H94.1905ZM95.2271 37.0909C95.2271 37.3179 95.2586 37.516 95.3216 37.685C95.3845 37.854 95.4757 37.9858 95.595 38.0803C95.7143 38.1731 95.8593 38.2195 96.03 38.2195C96.2024 38.2195 96.3482 38.1722 96.4675 38.0778C96.5868 37.9817 96.6771 37.8491 96.7385 37.68C96.8014 37.5094 96.8329 37.313 96.8329 37.0909C96.8329 36.8705 96.8023 36.6766 96.7409 36.5092C96.6796 36.3419 96.5893 36.2109 96.47 36.1165C96.3507 36.022 96.204 35.9748 96.03 35.9748C95.8577 35.9748 95.7118 36.0204 95.5925 36.1115C95.4748 36.2027 95.3845 36.3319 95.3216 36.4993C95.2586 36.6667 95.2271 36.8639 95.2271 37.0909ZM99.6798 33.9091V39H98.6208V33.9091H99.6798ZM102.268 39.0746C101.875 39.0746 101.537 38.995 101.254 38.8359C100.972 38.6752 100.755 38.4482 100.603 38.1548C100.45 37.8598 100.374 37.511 100.374 37.1083C100.374 36.7156 100.45 36.3709 100.603 36.0742C100.755 35.7776 100.97 35.5464 101.246 35.3807C101.525 35.215 101.851 35.1321 102.226 35.1321C102.478 35.1321 102.712 35.1727 102.929 35.2539C103.148 35.3335 103.339 35.4536 103.501 35.6143C103.665 35.7751 103.793 35.9773 103.884 36.2209C103.975 36.4628 104.021 36.7462 104.021 37.071V37.3619H100.797V36.7056H103.024C103.024 36.5531 102.991 36.4181 102.924 36.3004C102.858 36.1828 102.766 36.0908 102.648 36.0245C102.532 35.9566 102.397 35.9226 102.243 35.9226C102.083 35.9226 101.94 35.9599 101.816 36.0344C101.693 36.1074 101.597 36.206 101.527 36.3303C101.458 36.4529 101.422 36.5896 101.42 36.7404V37.3643C101.42 37.5533 101.455 37.7165 101.525 37.854C101.596 37.9916 101.696 38.0977 101.826 38.1722C101.955 38.2468 102.108 38.2841 102.286 38.2841C102.403 38.2841 102.511 38.2675 102.609 38.2344C102.706 38.2012 102.79 38.1515 102.86 38.0852C102.929 38.0189 102.982 37.9377 103.019 37.8416L103.998 37.9062C103.949 38.1416 103.847 38.3471 103.692 38.5227C103.54 38.6967 103.343 38.8326 103.101 38.9304C102.861 39.0265 102.583 39.0746 102.268 39.0746ZM110.61 33.9091V39H109.68L107.465 35.7958H107.428V39H106.352V33.9091H107.296L109.494 37.1108H109.538V33.9091H110.61ZM113.928 37.3743V35.1818H114.987V39H113.97V38.3065H113.93C113.844 38.5302 113.701 38.71 113.5 38.8459C113.301 38.9818 113.059 39.0497 112.772 39.0497C112.517 39.0497 112.292 38.9917 112.098 38.8757C111.904 38.7597 111.753 38.5948 111.643 38.381C111.536 38.1673 111.481 37.9112 111.479 37.6129V35.1818H112.538V37.424C112.54 37.6494 112.6 37.8275 112.72 37.9585C112.839 38.0894 112.999 38.1548 113.199 38.1548C113.327 38.1548 113.446 38.1258 113.557 38.0678C113.668 38.0082 113.758 37.9203 113.826 37.8043C113.895 37.6883 113.929 37.545 113.928 37.3743ZM115.834 39V35.1818H116.86V35.848H116.9C116.97 35.611 117.087 35.4321 117.251 35.3111C117.415 35.1884 117.604 35.1271 117.817 35.1271C117.87 35.1271 117.928 35.1304 117.989 35.1371C118.05 35.1437 118.104 35.1528 118.15 35.1644V36.104C118.101 36.0891 118.032 36.0759 117.944 36.0643C117.856 36.0527 117.776 36.0469 117.703 36.0469C117.547 36.0469 117.408 36.0808 117.285 36.1488C117.164 36.2151 117.068 36.3079 116.997 36.4272C116.927 36.5465 116.893 36.6841 116.893 36.8398V39H115.834ZM121.875 36.2706L120.905 36.3303C120.889 36.2474 120.853 36.1728 120.798 36.1065C120.744 36.0386 120.672 35.9847 120.582 35.945C120.494 35.9035 120.389 35.8828 120.267 35.8828C120.102 35.8828 119.964 35.9176 119.851 35.9872C119.739 36.0552 119.682 36.1463 119.682 36.2607C119.682 36.3518 119.719 36.4289 119.792 36.4918C119.865 36.5548 119.99 36.6054 120.167 36.6435L120.858 36.7827C121.229 36.8589 121.506 36.9815 121.688 37.1506C121.871 37.3196 121.962 37.5417 121.962 37.8168C121.962 38.067 121.888 38.2866 121.741 38.4755C121.595 38.6644 121.394 38.8119 121.139 38.918C120.885 39.0224 120.593 39.0746 120.262 39.0746C119.756 39.0746 119.353 38.9693 119.053 38.7589C118.755 38.5468 118.58 38.2584 118.529 37.8938L119.57 37.8391C119.602 37.9933 119.678 38.1109 119.799 38.1921C119.92 38.2717 120.075 38.3114 120.264 38.3114C120.45 38.3114 120.599 38.2758 120.711 38.2045C120.826 38.1316 120.884 38.038 120.885 37.9237C120.884 37.8275 120.843 37.7488 120.764 37.6875C120.684 37.6245 120.561 37.5765 120.396 37.5433L119.735 37.4116C119.362 37.337 119.084 37.2077 118.902 37.0238C118.721 36.8398 118.631 36.6054 118.631 36.3203C118.631 36.075 118.697 35.8638 118.83 35.6864C118.964 35.5091 119.152 35.3724 119.394 35.2763C119.638 35.1802 119.923 35.1321 120.249 35.1321C120.731 35.1321 121.111 35.234 121.388 35.4379C121.666 35.6417 121.828 35.9193 121.875 36.2706ZM124.369 39.0746C123.976 39.0746 123.638 38.995 123.354 38.8359C123.073 38.6752 122.856 38.4482 122.703 38.1548C122.551 37.8598 122.475 37.511 122.475 37.1083C122.475 36.7156 122.551 36.3709 122.703 36.0742C122.856 35.7776 123.07 35.5464 123.347 35.3807C123.625 35.215 123.952 35.1321 124.326 35.1321C124.578 35.1321 124.813 35.1727 125.03 35.2539C125.249 35.3335 125.439 35.4536 125.602 35.6143C125.766 35.7751 125.893 35.9773 125.984 36.2209C126.076 36.4628 126.121 36.7462 126.121 37.071V37.3619H122.897V36.7056H125.124C125.124 36.5531 125.091 36.4181 125.025 36.3004C124.959 36.1828 124.867 36.0908 124.749 36.0245C124.633 35.9566 124.498 35.9226 124.344 35.9226C124.183 35.9226 124.041 35.9599 123.916 36.0344C123.794 36.1074 123.698 36.206 123.628 36.3303C123.558 36.4529 123.523 36.5896 123.521 36.7404V37.3643C123.521 37.5533 123.556 37.7165 123.625 37.854C123.697 37.9916 123.797 38.0977 123.926 38.1722C124.055 38.2468 124.209 38.2841 124.386 38.2841C124.504 38.2841 124.611 38.2675 124.709 38.2344C124.807 38.2012 124.891 38.1515 124.96 38.0852C125.03 38.0189 125.083 37.9377 125.119 37.8416L126.099 37.9062C126.049 38.1416 125.947 38.3471 125.793 38.5227C125.641 38.6967 125.443 38.8326 125.201 38.9304C124.961 39.0265 124.684 39.0746 124.369 39.0746ZM126.812 39V35.1818H127.839V35.848H127.879C127.948 35.611 128.065 35.4321 128.229 35.3111C128.393 35.1884 128.582 35.1271 128.796 35.1271C128.849 35.1271 128.906 35.1304 128.967 35.1371C129.029 35.1437 129.083 35.1528 129.129 35.1644V36.104C129.079 36.0891 129.011 36.0759 128.923 36.0643C128.835 36.0527 128.754 36.0469 128.682 36.0469C128.526 36.0469 128.387 36.0808 128.264 36.1488C128.143 36.2151 128.047 36.3079 127.976 36.4272C127.906 36.5465 127.871 36.6841 127.871 36.8398V39H126.812ZM130.446 40.4318C130.312 40.4318 130.186 40.421 130.069 40.3995C129.953 40.3796 129.857 40.3539 129.78 40.3224L130.019 39.532C130.143 39.5701 130.255 39.5908 130.354 39.5941C130.456 39.5974 130.543 39.5742 130.616 39.5245C130.69 39.4748 130.751 39.3903 130.797 39.271L130.859 39.1094L129.489 35.1818H130.603L131.394 37.9858H131.433L132.231 35.1818H133.352L131.868 39.4126C131.797 39.6181 131.7 39.7971 131.578 39.9496C131.457 40.1037 131.303 40.2222 131.118 40.305C130.932 40.3896 130.708 40.4318 130.446 40.4318ZM135.34 34.7965V33.9091H139.521V34.7965H137.963V39H136.899V34.7965H135.34ZM141.362 39.0746C140.975 39.0746 140.642 38.9925 140.36 38.8285C140.08 38.6628 139.863 38.4324 139.711 38.1374C139.559 37.8408 139.482 37.4969 139.482 37.1058C139.482 36.7114 139.559 36.3667 139.711 36.0717C139.863 35.7751 140.08 35.5447 140.36 35.3807C140.642 35.215 140.975 35.1321 141.362 35.1321C141.748 35.1321 142.081 35.215 142.361 35.3807C142.643 35.5447 142.86 35.7751 143.012 36.0717C143.165 36.3667 143.241 36.7114 143.241 37.1058C143.241 37.4969 143.165 37.8408 143.012 38.1374C142.86 38.4324 142.643 38.6628 142.361 38.8285C142.081 38.9925 141.748 39.0746 141.362 39.0746ZM141.367 38.2543C141.542 38.2543 141.689 38.2045 141.807 38.1051C141.924 38.004 142.013 37.8665 142.073 37.6925C142.134 37.5185 142.165 37.3204 142.165 37.0984C142.165 36.8763 142.134 36.6783 142.073 36.5043C142.013 36.3303 141.924 36.1927 141.807 36.0916C141.689 35.9905 141.542 35.94 141.367 35.94C141.189 35.94 141.04 35.9905 140.919 36.0916C140.8 36.1927 140.709 36.3303 140.648 36.5043C140.589 36.6783 140.559 36.8763 140.559 37.0984C140.559 37.3204 140.589 37.5185 140.648 37.6925C140.709 37.8665 140.8 38.004 140.919 38.1051C141.04 38.2045 141.189 38.2543 141.367 38.2543ZM145.655 39.0746C145.268 39.0746 144.935 38.9925 144.653 38.8285C144.373 38.6628 144.156 38.4324 144.004 38.1374C143.852 37.8408 143.775 37.4969 143.775 37.1058C143.775 36.7114 143.852 36.3667 144.004 36.0717C144.156 35.7751 144.373 35.5447 144.653 35.3807C144.935 35.215 145.268 35.1321 145.655 35.1321C146.041 35.1321 146.374 35.215 146.654 35.3807C146.936 35.5447 147.153 35.7751 147.305 36.0717C147.458 36.3667 147.534 36.7114 147.534 37.1058C147.534 37.4969 147.458 37.8408 147.305 38.1374C147.153 38.4324 146.936 38.6628 146.654 38.8285C146.374 38.9925 146.041 39.0746 145.655 39.0746ZM145.66 38.2543C145.835 38.2543 145.982 38.2045 146.1 38.1051C146.217 38.004 146.306 37.8665 146.366 37.6925C146.427 37.5185 146.457 37.3204 146.457 37.0984C146.457 36.8763 146.427 36.6783 146.366 36.5043C146.306 36.3303 146.217 36.1927 146.1 36.0916C145.982 35.9905 145.835 35.94 145.66 35.94C145.482 35.94 145.333 35.9905 145.212 36.0916C145.093 36.1927 145.002 36.3303 144.941 36.5043C144.881 36.6783 144.852 36.8763 144.852 37.0984C144.852 37.3204 144.881 37.5185 144.941 37.6925C145.002 37.8665 145.093 38.004 145.212 38.1051C145.333 38.2045 145.482 38.2543 145.66 38.2543ZM149.281 33.9091V39H148.222V33.9091H149.281ZM150.15 39V33.9091H151.208V35.8232H151.241C151.287 35.7204 151.354 35.616 151.442 35.5099C151.532 35.4022 151.648 35.3127 151.79 35.2415C151.934 35.1686 152.113 35.1321 152.327 35.1321C152.605 35.1321 152.862 35.205 153.098 35.3509C153.333 35.495 153.521 35.7129 153.662 36.0046C153.803 36.2946 153.873 36.6584 153.873 37.0959C153.873 37.5218 153.804 37.8814 153.667 38.1747C153.531 38.4664 153.345 38.6876 153.11 38.8384C152.876 38.9876 152.615 39.0621 152.325 39.0621C152.119 39.0621 151.944 39.0282 151.8 38.9602C151.658 38.8923 151.541 38.8069 151.45 38.7042C151.358 38.5998 151.289 38.4946 151.241 38.3885H151.194V39H150.15ZM151.186 37.0909C151.186 37.3179 151.218 37.516 151.281 37.685C151.344 37.854 151.435 37.9858 151.554 38.0803C151.673 38.1731 151.818 38.2195 151.989 38.2195C152.161 38.2195 152.307 38.1722 152.426 38.0778C152.546 37.9817 152.636 37.8491 152.697 37.68C152.76 37.5094 152.792 37.313 152.792 37.0909C152.792 36.8705 152.761 36.6766 152.7 36.5092C152.639 36.3419 152.548 36.2109 152.429 36.1165C152.31 36.022 152.163 35.9748 151.989 35.9748C151.817 35.9748 151.671 36.0204 151.551 36.1115C151.434 36.2027 151.344 36.3319 151.281 36.4993C151.218 36.6667 151.186 36.8639 151.186 37.0909ZM156.305 39.0746C155.919 39.0746 155.585 38.9925 155.303 38.8285C155.023 38.6628 154.807 38.4324 154.654 38.1374C154.502 37.8408 154.426 37.4969 154.426 37.1058C154.426 36.7114 154.502 36.3667 154.654 36.0717C154.807 35.7751 155.023 35.5447 155.303 35.3807C155.585 35.215 155.919 35.1321 156.305 35.1321C156.691 35.1321 157.024 35.215 157.304 35.3807C157.586 35.5447 157.803 35.7751 157.956 36.0717C158.108 36.3667 158.184 36.7114 158.184 37.1058C158.184 37.4969 158.108 37.8408 157.956 38.1374C157.803 38.4324 157.586 38.6628 157.304 38.8285C157.024 38.9925 156.691 39.0746 156.305 39.0746ZM156.31 38.2543C156.486 38.2543 156.632 38.2045 156.75 38.1051C156.868 38.004 156.956 37.8665 157.016 37.6925C157.077 37.5185 157.108 37.3204 157.108 37.0984C157.108 36.8763 157.077 36.6783 157.016 36.5043C156.956 36.3303 156.868 36.1927 156.75 36.0916C156.632 35.9905 156.486 35.94 156.31 35.94C156.133 35.94 155.983 35.9905 155.862 36.0916C155.743 36.1927 155.653 36.3303 155.592 36.5043C155.532 36.6783 155.502 36.8763 155.502 37.0984C155.502 37.3204 155.532 37.5185 155.592 37.6925C155.653 37.8665 155.743 38.004 155.862 38.1051C155.983 38.2045 156.133 38.2543 156.31 38.2543ZM159.621 35.1818L160.322 36.5167L161.04 35.1818H162.127L161.021 37.0909L162.157 39H161.075L160.322 37.68L159.581 39H158.487L159.621 37.0909L158.527 35.1818H159.621Z" fill="#4D1384"/>
<line x1="-4.37114e-08" y1="55.5" x2="218" y2="55.5" stroke="#F1F5F9"/>
</svg>
