<svg width="23" height="23" viewBox="0 0 23 23" fill="none" xmlns="http://www.w3.org/2000/svg">
<g clip-path="url(#clip0_1235_513)">
<path d="M0.5 3.55665C0.59845 3.22311 0.656013 2.87073 0.802881 2.56032C1.42962 1.23313 2.49374 0.537529 3.96188 0.511706C5.25732 0.488573 6.55331 0.506865 7.84929 0.506865C10.0469 0.506865 12.2451 0.503637 14.4427 0.507941C15.9819 0.511168 17.2633 1.4069 17.747 2.84652C17.8659 3.19997 17.9288 3.58839 17.932 3.96121C17.9493 6.13679 17.9417 8.3129 17.9396 10.489C17.9396 10.9732 17.662 11.3213 17.2278 11.4036C16.8502 11.4751 16.4462 11.2691 16.3031 10.9022C16.245 10.7542 16.2261 10.5826 16.2256 10.4212C16.2207 8.30268 16.2234 6.18413 16.2218 4.06504C16.2213 3.17092 15.7608 2.52589 14.949 2.29617C14.7725 2.24614 14.5821 2.22785 14.3981 2.22785C10.9475 2.22408 7.49692 2.22408 4.04634 2.2257C2.94779 2.22624 2.21991 2.95842 2.21991 4.06127C2.21883 9.02141 2.21883 13.9816 2.21991 18.9422C2.21991 20.0548 2.94887 20.781 4.06409 20.7816C5.83242 20.7832 7.60075 20.7837 9.36908 20.78C9.64667 20.7794 9.89522 20.8397 10.0932 21.042C10.5058 21.4616 10.3794 22.1599 9.84626 22.4149C9.78278 22.4455 9.71715 22.4719 9.65259 22.5004H3.55033C3.51159 22.4864 3.47339 22.4665 3.43358 22.4595C2.24519 22.2589 1.37152 21.6214 0.848071 20.54C0.683988 20.1995 0.613513 19.8143 0.5 19.4501C0.5 14.1521 0.5 8.85464 0.5 3.55665Z" fill="black"/>
<path d="M12.7873 22.5005C12.5442 22.4042 12.3225 22.2815 12.1988 22.034C12.0793 21.7957 12.0874 21.5536 12.1633 21.3046C12.4904 20.2318 12.8083 19.1559 13.1467 18.0869C13.2048 17.904 13.3199 17.7206 13.4555 17.5839C14.9898 16.041 16.5289 14.5029 18.0756 12.9718C18.796 12.2585 19.668 12.0191 20.6407 12.3031C21.5951 12.5818 22.2035 13.2354 22.4273 14.2076C22.621 15.05 22.4246 15.8183 21.849 16.4638C21.4686 16.8905 21.0485 17.2821 20.6434 17.6872C19.484 18.846 18.3209 20.001 17.1648 21.1625C16.9663 21.3621 16.7414 21.4891 16.4703 21.5617C15.3734 21.8576 14.2791 22.1642 13.1843 22.4677C13.165 22.473 13.1488 22.4892 13.1311 22.5005H12.7873ZM14.2377 20.3943C14.454 20.3346 14.6283 20.2652 14.8085 20.2399C15.6558 20.1205 16.2933 19.682 16.8619 19.0526C17.5801 18.2569 18.3672 17.5242 19.1091 16.7802C18.7088 16.3756 18.3091 15.9721 17.8932 15.5525C16.8689 16.5827 15.8393 17.6173 14.8117 18.6534C14.773 18.6921 14.7396 18.7443 14.7235 18.796C14.5632 19.314 14.4072 19.8332 14.2372 20.3943H14.2377ZM19.1887 14.2899C19.5922 14.7025 19.9881 15.1071 20.3835 15.5116C20.8548 15.0823 20.9108 14.5368 20.5191 14.1554C20.1318 13.7788 19.6013 13.8385 19.1887 14.2899Z" fill="black"/>
<path d="M6.16003 11.5458C6.76256 10.8168 7.3581 10.0927 7.95794 9.37181C8.33076 8.92422 8.91823 8.88656 9.2889 9.28089C9.60092 9.61283 9.60146 10.0766 9.27921 10.4693C8.64763 11.2386 8.01336 12.0047 7.37585 12.7686C7.27579 12.8886 7.16335 13.0048 7.03747 13.0951C6.42148 13.5384 5.64572 13.4793 5.09645 12.9467C4.79357 12.6524 4.49822 12.35 4.20879 12.0423C3.85157 11.6631 3.84942 11.1514 4.19157 10.8104C4.54018 10.4628 5.05664 10.4763 5.43914 10.8448C5.67585 11.0724 5.91041 11.3026 6.16003 11.5452V11.5458Z" fill="black"/>
<path d="M6.16053 16.7423C6.76092 16.016 7.35645 15.2919 7.95576 14.5716C8.33934 14.1105 8.95478 14.0842 9.3163 14.5075C9.6052 14.8459 9.58906 15.2914 9.26788 15.6814C8.64921 16.433 8.02946 17.184 7.40595 17.9312C7.29674 18.062 7.17677 18.1916 7.04012 18.2911C6.42629 18.7371 5.64892 18.6785 5.09911 18.1464C4.79569 17.8527 4.50088 17.5498 4.21091 17.2426C3.85262 16.8628 3.84831 16.3528 4.18993 16.0101C4.53746 15.6615 5.05553 15.6733 5.43749 16.0402C5.6742 16.2678 5.9093 16.4975 6.16107 16.7418L6.16053 16.7423Z" fill="black"/>
<path d="M6.17507 6.24964C6.75823 5.54382 7.35592 4.82293 7.95092 4.10043C8.17741 3.82552 8.4577 3.67812 8.81653 3.74752C9.48254 3.87663 9.73754 4.61904 9.29963 5.16562C8.87893 5.69015 8.44532 6.20391 8.01548 6.72091C7.75941 7.02863 7.51624 7.34927 7.23918 7.63708C6.6345 8.26705 5.71779 8.27512 5.09319 7.66721C4.79085 7.37294 4.49712 7.06898 4.20876 6.76126C3.84617 6.37391 3.84939 5.85369 4.20553 5.51531C4.55683 5.18122 5.0593 5.20113 5.43696 5.56049C5.67475 5.78698 5.91684 6.00917 6.17507 6.25018V6.24964Z" fill="black"/>
<path d="M12.3683 7.76621C11.9675 7.76621 11.5667 7.76944 11.1659 7.76567C10.6365 7.76083 10.2573 7.40308 10.254 6.91244C10.2508 6.42181 10.6301 6.05276 11.1552 6.04953C11.9713 6.04469 12.7874 6.04469 13.603 6.04953C14.128 6.05276 14.5073 6.42181 14.5041 6.91298C14.5008 7.40308 14.1216 7.76083 13.5922 7.76567C13.1844 7.76944 12.7761 7.76621 12.3683 7.76621Z" fill="black"/>
<path d="M12.3693 13.0497C11.9685 13.0497 11.5677 13.0524 11.167 13.0492C10.6376 13.0443 10.2578 12.6871 10.2545 12.197C10.2508 11.6983 10.6344 11.3352 11.1761 11.3325C11.9777 11.3293 12.7793 11.3293 13.5814 11.3325C14.1237 11.3347 14.5072 11.6967 14.5046 12.1954C14.5019 12.693 14.1183 13.046 13.5722 13.0492C13.1715 13.0519 12.7707 13.0492 12.3699 13.0492L12.3693 13.0497Z" fill="black"/>
</g>
<defs>
<clipPath id="clip0_1235_513">
<rect width="22" height="22" fill="white" transform="translate(0.5 0.5)"/>
</clipPath>
</defs>
</svg>
