<svg width="15" height="19" viewBox="0 0 15 19" fill="none" xmlns="http://www.w3.org/2000/svg">
<g clip-path="url(#clip0_117_317)">
<path d="M7.50912 8.59973C5.29319 8.60885 3.46572 6.79533 3.45123 4.57403C3.43728 2.34361 5.24866 0.510778 7.47746 0.500047C9.72237 0.489317 11.5509 2.30176 11.5552 4.54237C11.5595 6.77172 9.74597 8.5906 7.50912 8.59973Z" fill="#64748B"/>
<path d="M5.63712 18.4952C4.80923 18.4952 4.00656 18.4952 3.20335 18.4952C2.74138 18.4952 2.27942 18.4979 1.81799 18.4947C0.854358 18.4882 0.135388 17.6754 0.280791 16.7225C0.434243 15.7186 0.566233 14.7061 0.805532 13.721C1.36247 11.4279 2.82401 9.9808 5.09413 9.34714C5.14993 9.33158 5.21003 9.32997 5.30285 9.31763C5.30285 9.61917 5.27441 9.9089 5.30875 10.1911C5.38065 10.7813 5.66985 11.2588 6.13235 11.6355C6.19029 11.6827 6.23644 11.7884 6.23053 11.8619C6.08245 13.5944 5.92631 15.3269 5.77072 17.0589C5.72833 17.5305 5.68272 18.0021 5.63658 18.4952H5.63712Z" fill="#64748B"/>
<path d="M9.36878 18.4904C9.32264 17.986 9.27703 17.501 9.23304 17.016C9.10266 15.5764 8.97335 14.1374 8.84351 12.6978C8.81722 12.4049 8.78771 12.1114 8.76839 11.8179C8.76517 11.7685 8.79146 11.6966 8.82902 11.6677C9.49487 11.1542 9.76314 10.469 9.71915 9.6449C9.71432 9.55208 9.71861 9.45818 9.71861 9.32458C9.9842 9.4099 10.2348 9.47321 10.4714 9.56925C12.5188 10.4009 13.7352 11.9172 14.1687 14.0746C14.3479 14.9658 14.533 15.8559 14.7101 16.7477C14.8802 17.6056 14.2637 18.4571 13.3891 18.4807C12.0579 18.5167 10.7252 18.4904 9.36932 18.4904H9.36878Z" fill="#64748B"/>
<path d="M7.14856 12.1146H7.85787C8.06015 14.2324 8.26243 16.3469 8.46632 18.4786H6.54066C6.74293 16.3614 6.94521 14.2426 7.14856 12.1146Z" fill="#64748B"/>
<path d="M6.18654 9.2188H8.81775C8.82097 9.59116 8.86658 9.95762 8.73888 10.3128C8.52855 10.8971 7.93889 11.2604 7.33259 11.1836C6.72523 11.1074 6.23643 10.5827 6.18922 9.93991C6.17205 9.70813 6.18654 9.47366 6.18654 9.21826V9.2188Z" fill="#64748B"/>
</g>
<defs>
<clipPath id="clip0_117_317">
<rect width="14.476" height="18" fill="white" transform="translate(0.262012 0.5)"/>
</clipPath>
</defs>
</svg>
