<svg width="23" height="19" viewBox="0 0 23 19" fill="none" xmlns="http://www.w3.org/2000/svg">
<g clip-path="url(#clip0_118_324)">
<path d="M6.04533 3.90634H7.73818V4.21298C7.73818 8.04543 7.73818 11.8779 7.73818 15.7109C7.73818 16.3294 8.02874 16.7635 8.5536 16.9036C8.71668 16.9472 8.89354 16.9513 9.06409 16.9513C12.4027 16.9535 15.7419 16.953 19.0805 16.953H19.3722C19.3722 17.3768 19.3952 17.7896 19.3567 18.1968C19.3469 18.3024 19.1511 18.4023 19.0254 18.4793C18.9668 18.5149 18.8715 18.4919 18.7928 18.4919C14.0284 18.4919 9.26335 18.4793 4.49892 18.4994C2.81411 18.5063 1.61855 17.464 1.21543 16.3173C0.766381 15.0408 0.969086 13.8596 1.88844 12.861C2.81353 11.8566 3.97521 11.562 5.29768 11.9014C5.37405 11.9209 5.4487 11.9474 5.52565 11.9629C5.77544 12.0134 6.00341 11.8532 6.03844 11.6005C6.04935 11.523 6.04476 11.4432 6.04476 11.3645C6.04476 8.96478 6.04476 6.56505 6.04476 4.16474V3.90576L6.04533 3.90634Z" fill="#64748B"/>
<path d="M12.2063 9.10838C12.088 8.97343 11.9904 8.85054 11.8807 8.73972C11.5184 8.3722 11.1543 8.00699 10.7845 7.64752C10.7311 7.59584 10.6427 7.58033 10.5703 7.54818C10.5422 7.6234 10.4928 7.69805 10.4905 7.77442C10.4813 8.08968 10.4865 8.40494 10.4865 8.72019C10.4865 10.3464 10.4865 11.9732 10.4865 13.5995C10.4865 14.0675 10.622 14.207 11.0825 14.2076C13.0102 14.2082 14.9379 14.2093 16.8657 14.2041C16.9604 14.2041 17.0552 14.1473 17.1499 14.1174C17.104 14.0353 17.0741 13.9371 17.0104 13.8728C16.3557 13.2101 15.6959 12.5521 15.035 11.8963C14.9799 11.8417 14.9012 11.8107 14.8409 11.7734C15.2233 11.1113 15.5702 10.5112 15.9268 9.89393C15.979 9.937 16.0233 9.96801 16.0606 10.0053C17.9917 11.9353 19.9223 13.8653 21.8523 15.7965C21.8977 15.8419 21.9477 15.8867 21.9792 15.9412C22.0579 16.075 21.9924 16.2237 21.8391 16.2536C21.7559 16.2697 21.668 16.2662 21.5824 16.2662C17.4118 16.2662 13.2411 16.2662 9.07041 16.2662C8.98427 16.2662 8.89813 16.2662 8.81315 16.257C8.61216 16.2341 8.45942 16.1204 8.44908 15.9228C8.42784 15.5111 8.44277 15.0971 8.44277 14.667H9.51429V14.238H8.44449V13.1424H9.51314V12.7088C9.20765 12.7088 8.9079 12.7031 8.60929 12.7111C8.47033 12.7152 8.41865 12.6721 8.42324 12.5285C8.43243 12.2293 8.42611 11.9302 8.42611 11.6149H9.51199V11.1819H8.42726C8.42726 10.8391 8.42152 10.5181 8.43415 10.1983C8.43587 10.1575 8.53292 10.0892 8.58747 10.0874C8.89412 10.0765 9.20076 10.0823 9.51831 10.0823V9.6539H8.43989V8.55883H9.51659V8.13275H8.42898C8.42898 7.77672 8.42439 7.44252 8.43587 7.10888C8.43702 7.0773 8.53751 7.02562 8.59322 7.0239C8.89354 7.01528 9.19444 7.01988 9.51199 7.01988V6.58863H8.43875V5.5016H9.51314V5.07437H8.44219C8.43587 4.9911 8.42726 4.92334 8.42669 4.85558C8.42554 4.24632 8.41922 3.63763 8.43243 3.02894C8.43473 2.91869 8.52086 2.81015 8.56795 2.70105C8.67763 2.74871 8.8143 2.76996 8.89354 2.84863C10.3182 4.26182 11.7343 5.68306 13.1572 7.0974C13.2704 7.20995 13.2801 7.28632 13.198 7.42299C12.9023 7.91339 12.6226 8.41297 12.3361 8.90854C12.3045 8.96309 12.2683 9.01477 12.2063 9.11125V9.10838Z" fill="#64748B"/>
<path d="M5.35051 0.695833V11.1906C4.00794 10.9057 2.79516 11.1722 1.70066 12.0663C1.69377 11.9715 1.68458 11.9055 1.68458 11.84C1.68401 8.97459 1.69894 6.10858 1.67884 3.24372C1.66563 1.41018 3.41418 0.0521148 5.20637 0.639558C5.25346 0.655063 5.29882 0.676309 5.35051 0.696982V0.695833Z" fill="#64748B"/>
<path d="M12.498 10.0024C13.0763 9.00094 13.6442 8.0167 14.2127 7.03246C15.0746 5.53945 15.9365 4.04644 16.7985 2.554C17.1476 1.94933 17.6351 1.82587 18.2456 2.16237C18.6257 2.37196 18.9254 2.62807 18.9053 3.10182C18.899 3.25342 18.8611 3.41994 18.7859 3.5503C17.3543 6.0442 15.9153 8.53352 14.4774 11.0234C14.4636 11.0475 14.4441 11.0676 14.4131 11.1078C13.7751 10.7392 13.1406 10.3728 12.498 10.0018V10.0024Z" fill="#64748B"/>
<path d="M19.3871 12.3126C18.3541 11.2795 17.3371 10.2637 16.3069 9.23293C17.2929 7.52573 18.2886 5.8013 19.2849 4.07629C19.3039 4.07859 19.3234 4.08146 19.3423 4.08376C19.3607 4.18425 19.3957 4.28417 19.3957 4.38466C19.3986 6.99112 19.398 9.597 19.398 12.2035C19.398 12.2373 19.3912 12.2718 19.3871 12.312V12.3126Z" fill="#64748B"/>
<path d="M13.662 6.61155C12.7553 5.70483 11.8704 4.81994 10.9683 3.91724H15.2165C14.6973 4.81706 14.1828 5.70885 13.662 6.61155Z" fill="#64748B"/>
<path d="M11.233 9.04232C11.4208 9.23756 11.6131 9.42878 11.7923 9.63149C11.825 9.66881 11.8359 9.77562 11.8078 9.8095C11.4466 10.2482 11.438 10.7616 11.4615 11.2905C11.4782 11.662 11.4615 12.0352 11.4655 12.4079C11.4747 13.1539 12.192 13.5782 12.8443 13.2176C13.3823 12.9201 13.9112 12.6049 14.428 12.3063C14.8283 12.7082 15.2205 13.1027 15.6173 13.5018H11.1853V9.07448C11.2014 9.06357 11.2169 9.05266 11.233 9.04175V9.04232Z" fill="#64748B"/>
<path d="M12.1546 10.6002C12.8052 10.9758 13.4266 11.3347 14.0777 11.7108C13.7097 11.9256 13.3674 12.1254 13.0252 12.3247C12.8523 12.4251 12.6818 12.5297 12.5043 12.621C12.3309 12.7105 12.1621 12.633 12.1586 12.4498C12.1483 11.8457 12.1546 11.2416 12.1546 10.6002Z" fill="#64748B"/>
</g>
<defs>
<clipPath id="clip0_118_324">
<rect width="21.0262" height="18" fill="white" transform="translate(0.986887 0.5)"/>
</clipPath>
</defs>
</svg>
