<svg width="19" height="12" viewBox="0 0 19 12" fill="none" xmlns="http://www.w3.org/2000/svg">
<g clip-path="url(#clip0_54_1330)">
<path d="M0.098877 5.82402C0.214302 5.41808 0.520962 5.14174 0.783604 4.84144C1.72413 3.76642 2.76491 2.799 3.94949 1.99591C5.12722 1.19771 6.38809 0.587329 7.80059 0.3286C9.06097 0.097749 10.294 0.209262 11.505 0.61325C13.1845 1.17424 14.6268 2.13188 15.9102 3.32624C16.5856 3.95521 17.199 4.65167 17.8225 5.33346C18.1947 5.74039 18.183 6.23632 17.8367 6.65596C16.7876 7.92711 15.6163 9.06816 14.2507 9.99743C13.0745 10.7976 11.8136 11.408 10.4016 11.6687C9.14118 11.9015 7.9077 11.7919 6.69671 11.3889C5.02255 10.8318 3.58267 9.88005 2.30272 8.69058C1.61848 8.05476 1.00076 7.34558 0.36641 6.65743C0.245115 6.52587 0.186424 6.33708 0.099366 6.1747C0.099366 6.05732 0.099366 5.94042 0.099366 5.82304L0.098877 5.82402ZM9.10206 10.1901C11.4208 10.1828 13.2882 8.31251 13.2862 5.99863C13.2843 3.68327 11.4159 1.81397 9.09912 1.81006C6.78132 1.80614 4.89294 3.69794 4.90615 6.01037C4.91935 8.33257 6.79159 10.198 9.10206 10.1901Z" fill="#FD357E"/>
<path d="M9.10495 3.10751C10.7087 3.1168 11.9979 4.41387 11.9881 6.0083C11.9788 7.61203 10.6818 8.90127 9.08735 8.89149C7.48362 8.8822 6.19438 7.58513 6.20416 5.9907C6.21345 4.38697 7.51052 3.09773 9.10495 3.10751ZM8.20747 5.78626C8.26421 5.43949 8.44175 5.20717 8.80416 5.14653C8.83253 5.14164 8.87508 5.09664 8.87557 5.06974C8.88095 4.77922 8.87899 4.48919 8.87899 4.19965C8.00499 4.18595 7.23467 4.95578 7.28065 5.78626H8.20796H8.20747Z" fill="#FD357E"/>
</g>
<defs>
<clipPath id="clip0_54_1330">
<rect width="18" height="11.5807" fill="white" transform="translate(0.098877 0.209656)"/>
</clipPath>
</defs>
</svg>
