<svg width="18" height="18" viewBox="0 0 18 18" fill="none" xmlns="http://www.w3.org/2000/svg">
<g clip-path="url(#clip0_52_1321)">
<path d="M17.0942 9.00584C17.0942 10.6433 17.101 12.2817 17.0922 13.9191C17.0815 15.9142 15.7716 17.5224 13.832 17.921C13.5591 17.9776 13.2745 17.9941 12.9948 17.9951C11.3856 18.0019 9.77546 18.0019 8.1663 17.9971C6.28424 17.9912 4.82127 16.7544 4.54544 14.8938C4.47039 14.3918 4.49671 13.8694 4.52205 13.3577C4.54349 12.9288 4.98112 12.5877 5.41874 12.6004C5.86806 12.6131 6.25694 12.9571 6.28618 13.3938C6.30665 13.7017 6.29398 14.0117 6.29691 14.3216C6.30665 15.4337 7.07078 16.2008 8.18579 16.2037C9.78131 16.2086 11.3768 16.2105 12.9723 16.2037C14.3281 16.1978 15.2979 15.23 15.2998 13.8723C15.3047 10.6247 15.3057 7.37718 15.2998 4.13059C15.2969 2.77387 14.3261 1.80896 12.9684 1.80311C11.3729 1.79726 9.77741 1.79824 8.1819 1.80311C7.06884 1.80603 6.30568 2.57406 6.29691 3.68907C6.29496 3.96295 6.30178 4.23781 6.29398 4.51169C6.28034 5.02338 5.8856 5.41227 5.39242 5.40642C4.90509 5.40058 4.50938 5.01948 4.50743 4.51851C4.50451 3.83917 4.45383 3.15691 4.6741 2.49219C5.15558 1.04287 6.47722 0.0331281 8.00158 0.0165589C9.71601 -0.00293432 11.4324 -0.00780761 13.1468 0.0165589C15.3174 0.0477479 17.0552 1.79044 17.0874 3.96588C17.1117 5.64521 17.0922 7.32553 17.0922 9.00584H17.0942Z" fill="#8DACE5"/>
<path d="M9.46455 9.8996C9.38268 9.8996 9.30178 9.8996 9.21991 9.8996C6.77449 9.8996 4.32907 9.8996 1.88268 9.8996C1.33687 9.8996 0.977218 9.60331 0.908017 9.10623C0.84174 8.6345 1.20236 8.16763 1.67605 8.11695C1.77351 8.10623 1.87293 8.10818 1.9704 8.10818C4.38755 8.10818 6.80568 8.10818 9.22283 8.10818C9.30373 8.10818 9.38462 8.10818 9.51523 8.10818C9.43433 8.02046 9.39145 7.9688 9.34466 7.92202C9.02205 7.59843 8.69554 7.27972 8.37683 6.95223C8.00646 6.57212 8.00646 6.02728 8.36611 5.66861C8.72186 5.31383 9.27644 5.31578 9.65071 5.68713C10.5435 6.57309 11.4334 7.46296 12.3193 8.35574C12.6985 8.73781 12.6975 9.27192 12.3174 9.65496C11.4314 10.5478 10.5425 11.4376 9.64876 12.3236C9.27546 12.6939 8.71698 12.693 8.36318 12.3382C8.00451 11.9785 8.00743 11.4337 8.37878 11.0546C8.74232 10.6832 9.11269 10.3207 9.48014 9.95321C9.47429 9.93567 9.46845 9.91812 9.46357 9.90058L9.46455 9.8996Z" fill="#8DACE5"/>
</g>
<defs>
<clipPath id="clip0_52_1321">
<rect width="16.1979" height="18" fill="white" transform="translate(0.901123)"/>
</clipPath>
</defs>
</svg>
