<svg width="17" height="16" viewBox="0 0 17 16" fill="none" xmlns="http://www.w3.org/2000/svg">
<g clip-path="url(#clip0_54_1325)">
<path d="M16.0988 1.89157C16.0127 2.4251 15.694 2.81209 15.3114 3.16401C15.1013 3.35719 14.9065 3.56728 14.7196 3.75545C13.934 2.96989 13.1557 2.19152 12.3635 1.39969C12.3804 1.38216 12.4211 1.3377 12.4637 1.29512C12.7173 1.04088 12.9694 0.785081 13.2258 0.533662C13.7045 0.0643265 14.2744 -0.103182 14.9162 0.0934447C15.5562 0.289445 15.9413 0.739995 16.0725 1.40063C16.0763 1.41942 16.0897 1.43633 16.0988 1.45417V1.89157Z" fill="#133F32"/>
<path d="M6.75482 15.9848C5.18212 15.9848 3.60911 15.9786 2.03641 15.9876C1.33538 15.9917 0.825029 15.6667 0.43616 15.1178C0.204154 14.7907 0.0998915 14.4168 0.0998915 14.0154C0.0995784 10.9063 0.0980129 7.79727 0.100518 4.68789C0.101457 3.57231 0.985649 2.68624 2.10686 2.68248C3.8671 2.67622 5.62735 2.67967 7.38759 2.68154C7.80182 2.68186 8.09958 2.96709 8.09864 3.35126C8.0977 3.73575 7.79932 4.01597 7.38383 4.01597C5.6549 4.01723 3.92565 4.01629 2.19672 4.0166C1.69388 4.0166 1.43557 4.2724 1.43557 4.77305C1.43526 7.82483 1.43526 10.8769 1.43557 13.9287C1.43557 14.4228 1.69169 14.6798 2.18513 14.6801C5.24223 14.6808 8.29934 14.6808 11.3564 14.6801C11.8355 14.6801 12.0988 14.414 12.0988 13.935C12.0991 12.2007 12.0988 10.4664 12.0991 8.73219C12.0991 8.36868 12.2951 8.10975 12.6232 8.03241C12.9695 7.95101 13.333 8.17644 13.4104 8.52523C13.427 8.60069 13.4335 8.6799 13.4339 8.75755C13.4351 10.4971 13.4417 12.2364 13.432 13.976C13.427 14.8439 13.0181 15.4779 12.2294 15.8424C12.0377 15.931 11.8098 15.9776 11.5978 15.9792C9.9835 15.9901 8.36884 15.9851 6.7545 15.9851L6.75482 15.9848Z" fill="#133F32"/>
<path d="M11.6181 2.14865C12.404 2.93453 13.1802 3.71102 13.9676 4.49846C13.9332 4.53509 13.8931 4.57987 13.8505 4.62245C12.2011 6.27217 10.5486 7.91938 8.90542 9.57537C8.71505 9.76698 8.50997 9.87375 8.24885 9.92103C7.58383 10.0416 6.92193 10.1793 6.2591 10.3121C5.9197 10.38 5.73435 10.1962 5.8026 9.85809C5.95289 9.11386 6.09942 8.36899 6.25441 7.6257C6.27257 7.53928 6.31859 7.44566 6.37996 7.38367C8.1114 5.64628 9.84628 3.91265 11.5809 2.1784C11.5918 2.16744 11.6053 2.15898 11.6181 2.14865Z" fill="#133F32"/>
</g>
<defs>
<clipPath id="clip0_54_1325">
<rect width="16" height="15.9753" fill="white" transform="translate(0.098877 0.0123596)"/>
</clipPath>
</defs>
</svg>
