<svg width="214" height="200" viewBox="0 0 214 200" fill="none" xmlns="http://www.w3.org/2000/svg">
<g clip-path="url(#clip0_1638_1635)">
<g clip-path="url(#clip1_1638_1635)">
<mask id="mask0_1638_1635" style="mask-type:luminance" maskUnits="userSpaceOnUse" x="0" y="0" width="214" height="200">
<path d="M213.5 0H0.5V200H213.5V0Z" fill="white"/>
</mask>
<g mask="url(#mask0_1638_1635)">
<path d="M125.578 78.5474C128.629 78.5203 132.78 78.6072 137.137 79.0716C141.468 79.5334 146.139 80.3816 150.166 81.9367C154.133 83.4685 157.937 85.8664 159.835 89.7297C161.789 93.7063 161.745 97.6263 160.844 101.323C159.972 104.904 158.238 108.479 156.68 111.786C153.475 118.591 150.844 124.71 153.083 131.568L153.194 131.895L153.295 132.177C155.476 138.029 161.023 140.506 169.489 142.029C173.757 142.797 178.315 143.254 183.216 143.915C188.021 144.563 193.019 145.393 197.727 146.904H197.726C207.494 150.036 212.829 156.505 213.325 164.127C213.807 171.525 209.652 179.084 202.514 184.501L199.037 179.897C205.098 175.297 207.898 169.443 207.577 164.503C207.269 159.786 204.041 154.992 195.971 152.404V152.404C191.762 151.054 187.174 150.276 182.448 149.639C177.817 149.015 172.898 148.51 168.471 147.713C159.68 146.131 150.997 143.119 147.754 133.798V133.797C144.447 124.295 148.326 115.997 151.471 109.321C153.113 105.834 154.544 102.843 155.248 99.9531C155.924 97.179 155.867 94.7218 154.667 92.2821L154.667 92.2813C153.71 90.3318 151.518 88.6474 148.095 87.3257C144.733 86.0273 140.621 85.2507 136.527 84.8143C132.458 84.3806 128.541 84.2961 125.63 84.3221C124.178 84.335 122.985 84.3753 122.159 84.412C121.747 84.4304 121.426 84.4479 121.212 84.4606C121.105 84.4669 121.025 84.4721 120.972 84.4755C120.946 84.4772 120.927 84.4784 120.915 84.4792C120.909 84.4796 120.905 84.4799 120.903 84.4801L120.901 84.4805C120.901 84.4804 120.901 84.4802 120.695 81.6C120.489 78.7199 120.49 78.72 120.49 78.72C120.491 78.7199 120.492 78.7196 120.492 78.7195C120.494 78.7194 120.496 78.7193 120.499 78.7191C120.504 78.7188 120.511 78.7185 120.52 78.7179C120.538 78.7167 120.563 78.7146 120.595 78.7125C120.66 78.7082 120.753 78.7026 120.873 78.6955C121.114 78.6813 121.462 78.6625 121.904 78.6428C122.788 78.6035 124.049 78.5611 125.578 78.5474Z" fill="#232020"/>
<path d="M122.838 73.5361C122.813 107.38 95.4443 134.808 61.6754 134.808C27.9065 134.808 0.538111 107.385 0.512695 73.5361H122.838Z" fill="#E0BBAD"/>
<path d="M111.075 73.5361C111.054 100.875 88.9462 123.024 61.671 123.024C34.3958 123.024 12.2927 100.875 12.2715 73.5361H111.075Z" fill="#232020"/>
<path d="M213.502 194.757L207.466 200.003L183.863 172.711L189.899 167.465L213.502 194.757Z" fill="#B6D9CB"/>
<path d="M101.523 125.564C101.523 124.151 100.382 123.008 98.9733 123.008C97.5664 123.008 96.4231 124.153 96.4231 125.564C96.4231 126.976 97.5641 128.12 98.9733 128.12C100.383 128.12 101.523 126.976 101.523 125.564ZM26.8184 125.496C26.8184 124.086 25.6751 122.94 24.2681 122.94C22.8613 122.94 21.7184 124.086 21.7183 125.496C21.7183 126.906 22.8612 128.052 24.2681 128.052C25.6751 128.052 26.8184 126.906 26.8184 125.496ZM113.409 125.564C113.409 133.553 106.951 140.036 98.9733 140.036C90.9957 140.036 84.5372 133.553 84.5372 125.564C84.5372 117.573 91.0019 111.092 98.9733 111.092C106.943 111.092 113.409 117.567 113.409 125.564ZM38.7043 125.496C38.7043 133.487 32.2396 139.968 24.2681 139.968C16.2968 139.968 9.83203 133.487 9.83203 125.496C9.83207 117.505 16.2968 111.024 24.2681 111.024C32.2395 111.024 38.7042 117.505 38.7043 125.496Z" fill="#CA8E78"/>
</g>
<path d="M55.8214 0V39.5601L36.0904 5.29959L26.03 11.1172L45.7568 45.3735L11.5897 25.5977L5.79069 35.683L39.9578 55.4588H0.5V67.1026H122.762V55.4588H83.3041L117.471 35.683L111.672 25.5977L77.4924 45.382L97.2234 11.1172L87.1631 5.29959L67.4363 39.5473V0H55.8214Z" fill="#F5A68E"/>
</g>
</g>
<defs>
<clipPath id="clip0_1638_1635">
<rect width="213" height="200" fill="white" transform="translate(0.5)"/>
</clipPath>
<clipPath id="clip1_1638_1635">
<rect width="213" height="200" fill="white" transform="translate(0.5)"/>
</clipPath>
</defs>
</svg>
