<svg width="202" height="76" viewBox="0 0 202 76" fill="none" xmlns="http://www.w3.org/2000/svg">
<g clip-path="url(#clip0_1212_1031)">
<path d="M22.8268 20.6671H17.2327L21.1824 16.7097L17.7734 13.2865L13.8237 17.2439V11.6464H8.99556V17.2439L5.04592 13.2865L1.63692 16.7097L5.58656 20.6671H0V25.5047H5.57905L1.63692 29.4545L5.04592 32.8777L8.99556 28.9204V34.5179H13.8237V28.9204L17.7734 32.8777L21.1824 29.4545L17.2327 25.5047H22.8268V20.6671Z" fill="#8DACE5"/>
<path d="M22.8268 57.3668C22.8268 51.0545 17.7133 45.9386 11.4134 45.9386C5.1135 45.9386 0 51.0545 0 57.3668H22.8193H22.8268Z" fill="#EBDBA0"/>
<path d="M22.8268 34.5254C22.8268 40.8376 17.7133 45.9536 11.4134 45.9536C5.1135 45.9536 0 40.8301 0 34.5254H22.8193H22.8268Z" fill="#E8A68E"/>
<path d="M51.9835 45.9386C51.9835 52.2508 46.87 57.3668 40.5701 57.3668C34.2702 57.3668 29.1642 52.2508 29.1567 45.9386H51.976H51.9835Z" fill="#C0D9CB"/>
<path d="M40.5703 45.9235L29.1118 34.4426L40.5703 22.9618V45.9235Z" fill="#E8A68E"/>
<path d="M52.0317 11.4774L40.5737 -0.00296021L29.1158 11.4774L40.5737 22.9578L52.0317 11.4774Z" fill="#BA8D77"/>
<path d="M40.5703 22.9618V45.9235L52.0288 34.4426L40.5703 22.9618Z" fill="#133F32"/>
<path d="M66.0023 56.321C65.6419 56.6144 65.2064 56.8401 64.6883 56.9831C64.1702 57.1335 63.6296 57.2013 63.0589 57.2013C61.6172 57.2013 60.5059 56.8251 59.7175 56.0727C58.929 55.3204 58.5386 54.2219 58.5386 52.7774V38.7912H61.6097V43.9975H65.1163V46.4577H61.6097V52.7022C61.6097 53.3417 61.7674 53.8307 62.0902 54.1618C62.4131 54.4928 62.8561 54.6658 63.4268 54.6658C64.1101 54.6658 64.6883 54.4853 65.1463 54.1241L66.0023 56.3135V56.321Z" fill="#1D1D1B"/>
<path d="M70.1399 58.4351C69.0812 57.8633 68.2477 57.0658 67.647 56.0351C67.0463 55.0119 66.7534 53.8533 66.7534 52.5517C66.7534 51.2502 67.0538 50.0991 67.647 49.0834C68.2402 48.0677 69.0736 47.2702 70.1399 46.6984C71.2061 46.1266 72.4 45.8408 73.7216 45.8408C75.0431 45.8408 76.2671 46.1266 77.3258 46.6984C78.3846 47.2702 79.218 48.0677 79.8188 49.0834C80.4119 50.0991 80.7123 51.2577 80.7123 52.5517C80.7123 53.8458 80.4119 55.0044 79.8188 56.0351C79.218 57.0583 78.3921 57.8558 77.3258 58.4351C76.2596 59.0144 75.0582 59.2928 73.7216 59.2928C72.385 59.2928 71.1986 59.0069 70.1399 58.4351ZM76.5224 55.5386C77.2582 54.7862 77.6262 53.7931 77.6262 52.5668C77.6262 51.3404 77.2582 50.3473 76.5224 49.5875C75.7865 48.8351 74.8554 48.4589 73.7216 48.4589C72.5878 48.4589 71.6642 48.8351 70.9358 49.5875C70.2075 50.3398 69.8395 51.3329 69.8395 52.5668C69.8395 53.8006 70.2 54.7862 70.9358 55.5386C71.6642 56.2909 72.5878 56.6671 73.7216 56.6671C74.8554 56.6671 75.7865 56.2909 76.5224 55.5386Z" fill="#1D1D1B"/>
<path d="M85.2776 54.252C84.2188 53.6802 83.3854 52.8828 82.7847 51.852C82.184 50.8288 81.8911 49.6702 81.8911 48.3686C81.8911 47.0671 82.1915 45.916 82.7847 44.9003C83.3779 43.8846 84.2113 43.0871 85.2776 42.5154C86.3438 41.9436 87.5377 41.6577 88.8593 41.6577C90.1808 41.6577 91.4048 41.9436 92.4635 42.5154C93.5223 43.0871 94.3557 43.8846 94.9564 44.9003C95.5496 45.916 95.85 47.0746 95.85 48.3686C95.85 49.6627 95.5496 50.8213 94.9564 51.852C94.3557 52.8752 93.5298 53.6727 92.4635 54.252C91.3973 54.8313 90.1959 55.1097 88.8593 55.1097C87.5227 55.1097 86.3363 54.8238 85.2776 54.252ZM91.6601 51.348C92.3959 50.5956 92.7639 49.6025 92.7639 48.3762C92.7639 47.1498 92.3959 46.1567 91.6601 45.3969C90.9242 44.6445 89.9931 44.2683 88.8593 44.2683C87.7255 44.2683 86.8019 44.6445 86.0735 45.3969C85.3452 46.1492 84.9772 47.1423 84.9772 48.3762C84.9772 49.61 85.3377 50.5956 86.0735 51.348C86.8019 52.1003 87.7255 52.4765 88.8593 52.4765C89.9931 52.4765 90.9242 52.1003 91.6601 51.348Z" fill="#1D1D1B"/>
<path d="M98.5456 55.3881C97.7872 54.6433 97.4043 53.59 97.4043 52.2282V38.084H100.475V52.0025C100.475 53.3116 101.091 53.9662 102.315 53.9662C102.721 53.9662 103.088 53.8834 103.419 53.7179L103.562 56.1781C102.991 56.3887 102.375 56.5016 101.722 56.5016C100.363 56.5016 99.304 56.1254 98.5456 55.3806V55.3881Z" fill="#1D1D1B"/>
<path d="M115.651 47.3831C116.657 47.9398 117.445 48.7298 118.016 49.7455C118.587 50.7611 118.872 51.9348 118.872 53.2589C118.872 54.5831 118.587 55.7643 118.016 56.7875C117.445 57.8107 116.657 58.6006 115.651 59.1574C114.645 59.7141 113.503 59.9925 112.227 59.9925C111.326 59.9925 110.507 59.8345 109.764 59.526C109.021 59.2176 108.397 58.7511 107.887 58.1266V59.8194H104.966V41.5749H108.037V48.2859C108.563 47.7141 109.178 47.2777 109.892 46.9843C110.605 46.6909 111.386 46.5404 112.234 46.5404C113.511 46.5404 114.652 46.8188 115.658 47.3755L115.651 47.3831ZM114.667 56.2307C115.396 55.4784 115.763 54.4853 115.763 53.2589C115.763 52.0326 115.396 51.0395 114.667 50.2796C113.939 49.5273 113.008 49.1511 111.881 49.1511C111.146 49.1511 110.485 49.3166 109.892 49.6552C109.306 49.9937 108.84 50.4677 108.495 51.0922C108.15 51.7166 107.977 52.4389 107.977 53.2589C107.977 54.079 108.15 54.8013 108.495 55.4257C108.84 56.0502 109.306 56.5317 109.892 56.8627C110.485 57.2013 111.146 57.3668 111.881 57.3668C113.008 57.3668 113.939 56.9906 114.667 56.2382V56.2307Z" fill="#1D1D1B"/>
<path d="M123.407 55.2978C122.349 54.726 121.515 53.9285 120.915 52.8978C120.314 51.8746 120.021 50.716 120.021 49.4144C120.021 48.1129 120.321 46.9618 120.915 45.9461C121.508 44.9304 122.341 44.1329 123.407 43.5611C124.474 42.9893 125.668 42.7034 126.989 42.7034C128.311 42.7034 129.535 42.9893 130.593 43.5611C131.66 44.1329 132.486 44.9304 133.086 45.9461C133.68 46.9618 133.98 48.1204 133.98 49.4144C133.98 50.7085 133.68 51.8671 133.086 52.8978C132.486 53.921 131.66 54.7185 130.593 55.2978C129.527 55.8696 128.326 56.1555 126.989 56.1555C125.653 56.1555 124.466 55.8696 123.407 55.2978ZM129.79 52.3937C130.526 51.6414 130.894 50.6483 130.894 49.4219C130.894 48.1956 130.526 47.2025 129.79 46.4426C129.054 45.6903 128.123 45.3141 126.989 45.3141C125.855 45.3141 124.932 45.6903 124.203 46.4426C123.475 47.195 123.107 48.1881 123.107 49.4219C123.107 50.6558 123.468 51.6414 124.203 52.3937C124.932 53.1461 125.855 53.5223 126.989 53.5223C128.123 53.5223 129.054 53.1461 129.79 52.3937Z" fill="#1D1D1B"/>
<path d="M143.538 57.3517L140.174 52.8L136.788 57.3517H133.401L138.507 50.6859L133.627 44.2157H137.036L140.249 48.5191L143.463 44.2157H146.775L141.864 50.6332L146.992 57.3442H143.531L143.538 57.3517Z" fill="#1D1D1B"/>
<path d="M68.9911 24.2633C69.9523 25.2038 70.4253 26.5806 70.4253 28.3862V35.8871H68.6833V28.5592C68.6833 27.2125 68.3454 26.1893 67.6771 25.4821C67.0088 24.7749 66.0477 24.4213 64.8087 24.4213C63.4196 24.4213 62.3158 24.8351 61.5049 25.6627C60.6939 26.4903 60.2884 27.6339 60.2884 29.0934V35.8796H58.5464V22.9467H60.2133V25.3317C60.6864 24.5417 61.3472 23.9323 62.1882 23.4959C63.0291 23.0596 64.0053 22.8414 65.1241 22.8414C66.746 22.8414 68.03 23.3154 68.9911 24.2558V24.2633Z" fill="#1D1D1B"/>
<path d="M86.2837 22.9467V35.8796H84.6167V33.5172C84.1587 34.3072 83.528 34.9166 82.7245 35.353C81.9211 35.7893 81.005 36.0075 79.9763 36.0075C78.2943 36.0075 76.9578 35.5335 75.9891 34.5931C75.013 33.6527 74.5249 32.2683 74.5249 30.4476V22.9467H76.2669V30.2746C76.2669 31.6364 76.6048 32.6671 77.2731 33.3743C77.9414 34.0815 78.9025 34.4351 80.1415 34.4351C81.5006 34.4351 82.5743 34.0213 83.3553 33.1937C84.1437 32.3661 84.5341 31.215 84.5341 29.7404V22.9542H86.2762L86.2837 22.9467Z" fill="#1D1D1B"/>
<path d="M94.1453 23.511C94.9562 23.0671 95.9549 22.8489 97.1488 22.8489V24.5492L96.7283 24.5266C95.3692 24.5266 94.303 24.948 93.5371 25.7831C92.7637 26.6182 92.3807 27.7919 92.3807 29.2966V35.8872H90.6387V22.9542H92.3056V25.4897C92.7111 24.6245 93.3268 23.9624 94.1378 23.5185L94.1453 23.511Z" fill="#1D1D1B"/>
<path d="M100.43 35.5561C99.4691 35.2552 98.7257 34.8715 98.1851 34.4125L98.9735 33.0357C99.5141 33.4646 100.19 33.8107 101.008 34.0815C101.827 34.3524 102.675 34.4878 103.561 34.4878C104.74 34.4878 105.611 34.3072 106.174 33.9386C106.738 33.5699 107.023 33.0508 107.023 32.3737C107.023 31.8997 106.865 31.5235 106.557 31.2527C106.25 30.9818 105.852 30.7787 105.379 30.6357C104.905 30.4928 104.275 30.3649 103.486 30.2295C102.435 30.0339 101.594 29.8307 100.956 29.6276C100.318 29.4245 99.7769 29.0709 99.3264 28.5818C98.8759 28.0928 98.6506 27.4082 98.6506 26.543C98.6506 25.4596 99.1011 24.5718 100.002 23.8872C100.903 23.195 102.157 22.8564 103.757 22.8564C104.59 22.8564 105.424 22.9693 106.257 23.1875C107.091 23.4056 107.781 23.6991 108.322 24.0602L107.564 25.4596C106.497 24.7223 105.228 24.3536 103.757 24.3536C102.645 24.3536 101.804 24.5492 101.241 24.9404C100.678 25.3317 100.393 25.8508 100.393 26.4903C100.393 26.9793 100.55 27.3781 100.873 27.6715C101.196 27.9649 101.587 28.1831 102.067 28.326C102.54 28.469 103.193 28.6119 104.034 28.7549C105.063 28.9505 105.889 29.1461 106.512 29.3417C107.136 29.5373 107.669 29.8759 108.104 30.3498C108.54 30.8238 108.765 31.4784 108.765 32.3135C108.765 33.442 108.292 34.3448 107.353 35.0069C106.415 35.669 105.108 36 103.441 36C102.39 36 101.391 35.8495 100.438 35.5411L100.43 35.5561Z" fill="#1D1D1B"/>
<path d="M119.21 34.0288C119.886 33.743 120.464 33.3216 120.937 32.7649L121.921 33.8934C121.35 34.5781 120.637 35.1047 119.788 35.4658C118.94 35.827 117.994 36.0075 116.965 36.0075C115.636 36.0075 114.464 35.7216 113.428 35.1574C112.4 34.5931 111.596 33.8107 111.025 32.81C110.455 31.8094 110.169 30.6809 110.169 29.4169C110.169 28.153 110.44 27.0245 110.995 26.0238C111.544 25.0232 112.302 24.2483 113.263 23.684C114.224 23.1273 115.328 22.8489 116.552 22.8489C117.701 22.8489 118.729 23.1122 119.661 23.6389C120.584 24.1655 121.32 24.8953 121.868 25.8282C122.416 26.7611 122.709 27.8295 122.739 29.0257L112.137 31.0947C112.467 32.148 113.06 32.968 113.916 33.5699C114.772 34.1718 115.801 34.4652 116.995 34.4652C117.798 34.4652 118.534 34.3223 119.218 34.0364L119.21 34.0288ZM114.127 24.9781C113.413 25.3994 112.858 25.9787 112.46 26.7235C112.062 27.4683 111.859 28.326 111.859 29.2966C111.859 29.5448 111.866 29.7254 111.881 29.8382L120.99 28.0702C120.794 26.9868 120.291 26.0991 119.495 25.3994C118.692 24.6997 117.708 24.3536 116.552 24.3536C115.651 24.3536 114.847 24.5643 114.134 24.9781H114.127Z" fill="#1D1D1B"/>
<path d="M129.272 23.511C130.083 23.0671 131.081 22.8489 132.275 22.8489V24.5492L131.855 24.5266C130.496 24.5266 129.429 24.948 128.664 25.7831C127.89 26.6182 127.507 27.7919 127.507 29.2966V35.8872H125.765V22.9542H127.432V25.4897C127.838 24.6245 128.453 23.9624 129.264 23.5185L129.272 23.511Z" fill="#1D1D1B"/>
<path d="M146.737 22.9467V34.3072C146.737 36.5041 146.234 38.1292 145.243 39.19C144.244 40.2508 142.742 40.7774 140.73 40.7774C139.604 40.7774 138.53 40.6044 137.524 40.2508C136.517 39.8972 135.706 39.4081 135.083 38.7837L135.969 37.452C136.525 38.0088 137.216 38.4451 138.034 38.7536C138.853 39.0621 139.731 39.2201 140.662 39.2201C142.149 39.2201 143.245 38.8364 143.951 38.0765C144.657 37.3166 145.01 36.1279 145.01 34.5254V33.0282C144.552 33.7806 143.929 34.3674 143.133 34.7737C142.337 35.1799 141.443 35.3906 140.445 35.3906C138.755 35.3906 137.426 34.9166 136.457 33.9762C135.481 33.0357 134.993 31.6514 134.993 29.8307V22.9467H136.735V29.6577C136.735 31.0194 137.073 32.0502 137.741 32.7574C138.41 33.4646 139.371 33.8182 140.61 33.8182C141.969 33.8182 143.043 33.4044 143.824 32.5768C144.612 31.7492 145.002 30.5981 145.002 29.1235V22.9542H146.744L146.737 22.9467Z" fill="#1D1D1B"/>
<path d="M61.7147 19.027C61.5571 19.1699 61.3618 19.2828 61.1291 19.358C60.8963 19.4332 60.656 19.4708 60.4007 19.4708C59.8075 19.4708 59.357 19.3129 59.0416 18.9893C58.7262 18.6734 58.561 18.2219 58.561 17.6351V11.7292H59.4095V13.106H61.3093V13.8207H59.4095V17.5824C59.4095 17.9586 59.4996 18.2445 59.6874 18.4401C59.8676 18.6357 60.1379 18.7335 60.4908 18.7335C60.8737 18.7335 61.1816 18.6282 61.4219 18.41L61.7222 19.0194L61.7147 19.027Z" fill="#1D1D1B"/>
<path d="M68.0898 13.753C68.5554 14.2119 68.7881 14.8815 68.7881 15.7618V19.4107H67.9396V15.8445C67.9396 15.19 67.7744 14.6934 67.4516 14.3473C67.1212 14.0013 66.6556 13.8357 66.0549 13.8357C65.3791 13.8357 64.8385 14.0389 64.448 14.4376C64.0576 14.8439 63.8548 15.4006 63.8548 16.1078V19.4107H63.0063V10.5254H63.8548V14.2119C64.0876 13.8433 64.403 13.5649 64.8085 13.3618C65.2139 13.1586 65.6795 13.0608 66.2051 13.0608C66.9935 13.0608 67.6243 13.294 68.0898 13.753Z" fill="#1D1D1B"/>
<path d="M74.615 18.5078C74.9454 18.3649 75.2232 18.1618 75.456 17.8909L75.9366 18.4401C75.6587 18.7787 75.3133 19.0345 74.9003 19.2075C74.4874 19.3806 74.0293 19.4708 73.5262 19.4708C72.8805 19.4708 72.3098 19.3354 71.8067 19.0571C71.3036 18.7787 70.9132 18.4025 70.6353 17.9135C70.3575 17.4244 70.2148 16.8752 70.2148 16.2583C70.2148 15.6414 70.35 15.0922 70.6128 14.6031C70.8831 14.1141 71.2511 13.7379 71.7166 13.4671C72.1897 13.1962 72.7228 13.0608 73.316 13.0608C73.8716 13.0608 74.3747 13.1887 74.8253 13.4445C75.2758 13.7003 75.6362 14.0539 75.899 14.5129C76.1693 14.9718 76.3045 15.4834 76.327 16.0702L71.1609 17.0784C71.3186 17.59 71.6115 17.9887 72.0245 18.2821C72.445 18.5755 72.9405 18.7185 73.5262 18.7185C73.9167 18.7185 74.2771 18.6508 74.6075 18.5078H74.615ZM72.1371 14.0991C71.7917 14.3022 71.5214 14.5881 71.3261 14.9492C71.1309 15.3103 71.0333 15.7317 71.0333 16.1981C71.0333 16.3185 71.0333 16.4088 71.0483 16.4614L75.4785 15.5962C75.3809 15.0696 75.1406 14.6332 74.7502 14.2947C74.3597 13.9561 73.8791 13.7831 73.316 13.7831C72.8805 13.7831 72.4825 13.8884 72.1371 14.0915V14.0991Z" fill="#1D1D1B"/>
</g>
<line x1="-4.37114e-08" y1="75.5" x2="202" y2="75.5" stroke="#F1F5F9"/>
<defs>
<clipPath id="clip0_1212_1031">
<rect width="147" height="60" fill="white"/>
</clipPath>
</defs>
</svg>
